<?xml version="1.0" encoding="utf-8"?>
<!-- Generator: Adobe Illustrator 20.1.0, SVG Export Plug-In . SVG Version: 6.00 Build 0)  -->
<svg version="1.1" id="Layer_1" xmlns="http://www.w3.org/2000/svg" xmlns:xlink="http://www.w3.org/1999/xlink" x="0px" y="0px"
	 viewBox="0 0 48.5 43.1" style="enable-background:new 0 0 48.5 43.1;" xml:space="preserve">
<style type="text/css">
	.st0{fill:#345770;}
	.st1{fill:#113A41;}
</style>
<path class="st0" d="M805.7,736.2c-0.1-0.3-0.3-0.2-0.5-0.3c-2.1-1-2.6-3.4-0.9-5.1c3.2-3.2,6.4-6.4,9.6-9.6c0.6-0.6,0.5-0.8,0-1.3
	c-3.1-3-6.1-6.1-9.2-9.1c-2.3-2.3-1.7-4.8,1.3-5.8c0.3,0,0.6,0,0.9,0c1,0.3,1.7,0.9,2.4,1.6c3.7,3.7,7.4,7.4,11.1,11.1
	c0.7,0.7,1.4,1.5,1.7,2.5c0,0.4,0,0.8,0,1.2c-0.7,1.3-1.7,2.2-2.7,3.2c-3.2,3.2-6.5,6.4-9.7,9.6c-0.9,0.9-1.7,1.7-2.9,2
	C806.4,736.2,806,736.2,805.7,736.2z"/>
<path class="st1" d="M22.6,5.1c0.2,0,0.3,0,0.5,0c0,0.1,0,0.1,0.1,0.1c0.1,0,0.2,0,0.2-0.1c1.2,0,2.4,0,3.7,0c0,0.1,0.1,0.1,0.2,0.1
	c0.1,0,0.1,0,0.1-0.1c0.2,0,0.3,0,0.5,0c0.2,0.5,0.8,0.3,1.1,0.4c8.5,1.9,14.2,10.3,12.9,18.8c-1.1,7.2-6.4,12.7-13.6,14.1
	c-0.2,0-0.4,0-0.4,0.3c-0.2,0-0.3,0-0.5,0c0-0.1,0-0.1-0.1-0.1c0,0-0.1,0.1-0.1,0.1c-1.3,0-2.6,0-4,0c0,0-0.1-0.1-0.1-0.1
	c-0.1,0-0.1,0.1-0.1,0.1c-0.2,0-0.3,0-0.5,0c0-0.4-0.3-0.3-0.5-0.3C15.4,37.2,10,31.8,8.7,25c0-0.2,0.1-0.5-0.3-0.5
	c0-0.2,0-0.3,0-0.5c0,0,0.1,0,0.1,0c0,0-0.1-0.1-0.1-0.1c0-1.3,0-2.6,0-4c0,0,0.1-0.1,0.1-0.1c0-0.1-0.1-0.1-0.1-0.1
	c0-0.2,0-0.3,0-0.5c0.3,0,0.3-0.2,0.3-0.4c1.4-7.1,6.4-12.1,13.5-13.5C22.4,5.3,22.7,5.4,22.6,5.1z M23.1,25.9c0,1.1,0,2.1,0,3.2
	c0,0.5,0.1,0.8,0.7,0.7c0.6-0.1,1.3,0,1.9,0c0.5,0,0.6-0.2,0.6-0.7c0-2.1,0-4.3,0-6.4c0-0.5,0.1-0.8,0.7-0.7
	c0.6,0.1,1.4,0.2,1.8-0.1c0.4-0.3,0.3-1.1,0.4-1.7c0-0.2,0.1-0.4,0.1-0.6c0.1-0.4,0-0.7-0.6-0.7c-0.6,0.1-1.2,0-1.8,0
	c-0.4,0-0.6-0.1-0.5-0.5c0-0.5,0-1.1,0-1.6c0-0.9,0.4-1.2,1.3-1.3c0.6-0.1,1.4,0.3,1.7-0.2c0.3-0.4,0.1-1.2,0.1-1.8
	c0-0.1,0-0.2,0-0.3c0.1-0.4-0.2-0.5-0.5-0.6c-0.7,0-1.5-0.1-2.2,0c-1.8,0.1-3.1,1.2-3.5,2.9c-0.1,0.5-0.1,1.1-0.1,1.7
	c0,1.6,0,1.7-1.6,1.6c-0.8,0-1.1,0.1-1,1c0.1,0.7-0.3,1.5,0.1,2c0.4,0.4,1.3,0.1,1.9,0.1c0.4,0,0.6,0.1,0.6,0.6
	C23,23.7,23.1,24.8,23.1,25.9z"/>
<path class="st1" d="M23.4,5.1c0,0.1-0.1,0.1-0.2,0.1c-0.1,0-0.1,0-0.1-0.1C23.2,5.1,23.3,5.1,23.4,5.1z"/>
<path class="st1" d="M27.4,5.1c0,0.1,0,0.1-0.1,0.1c-0.1,0-0.2,0-0.2-0.1C27.2,5.1,27.3,5.1,27.4,5.1z"/>
<path class="st1" d="M8.4,19.8c0.1,0,0.1,0,0.1,0.1c0,0-0.1,0.1-0.1,0.1C8.4,19.9,8.4,19.8,8.4,19.8z"/>
<path class="st1" d="M8.4,23.9c0,0,0.1,0.1,0.1,0.1c0,0-0.1,0-0.1,0C8.4,24,8.4,23.9,8.4,23.9z"/>
</svg>
