<?xml version="1.0" encoding="utf-8"?>
<!-- Generator: Adobe Illustrator 20.1.0, SVG Export Plug-In . SVG Version: 6.00 Build 0)  -->
<svg version="1.1" id="Layer_1" xmlns="http://www.w3.org/2000/svg" xmlns:xlink="http://www.w3.org/1999/xlink" x="0px" y="0px"
	 viewBox="0 0 140.9 59.6" style="enable-background:new 0 0 140.9 59.6;" xml:space="preserve">
<style type="text/css">
	.st0{fill:#345770;}
	.st1{fill:#113A41;}
</style>
<path class="st0" d="M849.9,744.5c-0.1-0.3-0.3-0.2-0.5-0.3c-2.1-1-2.6-3.4-0.9-5.1c3.2-3.2,6.4-6.4,9.6-9.6c0.6-0.6,0.5-0.8,0-1.3
	c-3.1-3-6.1-6.1-9.2-9.1c-2.3-2.3-1.7-4.8,1.3-5.8c0.3,0,0.6,0,0.9,0c1,0.3,1.7,0.9,2.4,1.6c3.7,3.7,7.4,7.4,11.1,11.1
	c0.7,0.7,1.4,1.5,1.7,2.5c0,0.4,0,0.8,0,1.2c-0.7,1.3-1.7,2.2-2.7,3.2c-3.2,3.2-6.5,6.4-9.7,9.6c-0.9,0.9-1.7,1.7-2.9,2
	C850.6,744.5,850.2,744.5,849.9,744.5z"/>
<g>
	<path class="st1" d="M61.6,26.5c2-0.7,3.9-1.3,5.8-1.9c0.8-0.3,1.6-0.5,2.3-0.8c0.3-0.1,0.4-0.2,0.4-0.5c0.3-2.2,0.6-4.4,1-6.6
		c0.4-2.7,0.9-5.4,1.4-8.2c0-0.1,0.1-0.2,0.1-0.4c0.1-0.3,0.3-0.3,0.5-0.1c0.6,0.8,0.9,1.6,0.8,2.6c-0.5,4-1.1,7.9-1.6,11.9
		c0,0.2,0,0.3,0,0.6c0.6-0.1,1.1-0.2,1.6-0.4c3.4-0.8,6.8-1.1,10.3-1c2,0.1,3.8,0.6,5.3,2c0.3,0.3,0.5,0.6,0.8,0.9
		c-0.1,0-0.1,0.1-0.1,0.1c-0.9-0.8-1.9-0.9-3.1-0.9c-2,0-3.9-0.2-5.9-0.1C78,23.8,75,24.5,72,25.4c-0.1,0-0.3,0.2-0.3,0.3
		c-0.3,2-0.6,4-0.8,6c-0.3,2-0.5,4-0.7,6.1c-0.1,1.5-0.2,3-0.1,4.5c0,0.7-0.3,1.1-0.8,1.5c-0.6-0.3-0.9-0.9-1.1-1.6
		c-0.3-1.1-0.2-2.3-0.1-3.5c0.4-3,0.7-6,1.1-9c0.1-1.2,0.3-2.5,0.4-3.8c-0.2,0-0.3,0-0.5,0.1c-2.6,0.7-5.2,1.6-7.7,2.6
		c-0.3,0.1-0.4,0.2-0.4,0.5c-0.2,2.8-0.4,5.5-0.4,8.3c0,0.4,0.1,0.7,0.6,0.8c0,0.4,0,0.8-0.1,1.2C61.2,39.8,61,40,60.6,40
		c-0.2,0-0.3,0-0.5,0c-0.4,0-0.7-0.2-0.8-0.5c-0.2-0.7-0.3-1.4-0.4-2c-0.2-2,0-4,0.1-6c0-0.7,0.1-1.5,0.1-2.2
		c-0.3,0.1-0.5,0.1-0.7,0.2c-0.6,0.1-1.2-0.1-1.4-0.5c-0.2-0.4-0.1-0.5,0.3-0.7c0.6-0.3,1.2-0.5,1.8-0.9c0.2-0.1,0.4-0.4,0.5-0.7
		c0.4-2.6,0.8-5.2,1.2-7.9c0.3-2.3,0.6-4.7,0.8-7c0.2-2,0.4-4,0.1-6c-0.1,0-0.2,0-0.3,0c-0.2-0.5,0.2-0.7,0.5-0.8
		c0.1-0.1,0.5,0,0.7,0.1c0.9,0.7,1.3,1.6,1.2,2.7c-0.1,2-0.2,4-0.4,6c-0.3,2.9-0.7,5.8-1.1,8.7c-0.2,1.2-0.3,2.4-0.5,3.6
		C61.6,26.2,61.6,26.3,61.6,26.5z"/>
	<path class="st1" d="M102.2,33c-0.1,0.1-0.3,0.2-0.4,0.3c-0.8,0.6-1.6,1.3-2.5,1.8c-1.4,0.8-2.9,0.1-3.7-0.7
		c-0.2-0.2-0.5-0.6-0.5-0.9c0-0.8-0.1-1.7,0.1-2.4c0.3-1.4,0.9-2.6,1.8-3.8c1.3-1.7,3.8-2,5.3-0.7c0.1,0.1,0.2,0.1,0.3,0.1
		c0.1-0.7,0.2-1.4,0.3-2.1c0.1-0.5,0.3-1,0.5-1.5c0.2-0.5,0.7-0.8,1.2-0.7c0.5,0,0.7,0.4,0.9,0.8c0.5,1,0.4,2.1,0.1,3.2
		c-0.3,1.1-0.7,2.2-1.2,3.3c-0.2,0.5-0.3,1.1-0.3,1.6c0.1,3,0.3,6.1,0.4,9.1c0.1,1.4,0.1,2.8,0.2,4.3c2.3-0.6,4.5-1.1,6.7-1.7
		c0.2,0.3,0,0.4-0.3,0.5c-1.6,0.4-3.2,0.9-4.8,1.3c-0.4,0.1-0.8,0.3-1.3,0.5c-0.3,0.1-0.4,0.3-0.4,0.6c0.2,2.9,0.3,5.8,0.5,8.6
		c0,0.8-0.5,1.2-1.3,0.9c-1-0.4-2-0.7-3-1.1c-3.4-1.2-7-1.9-10.6-2.2c-1.6-0.1-3.2-0.2-4.8-0.5c-0.9-0.1-1.9-0.5-2.8-0.8
		c-0.7-0.2-0.9-0.8-0.6-1.5c0.1-0.2,0.3-0.3,0.5-0.4c0.8-0.2,1.6-0.3,2.5-0.4c1.6-0.1,3.3-0.1,4.9-0.3c0.9-0.1,1.8-0.4,2.7-0.6
		c3.1-0.8,6.3-1.6,9.4-2.5c0.3-0.1,0.4-0.2,0.4-0.6c-0.1-3.3-0.2-6.6-0.3-10c0-0.6,0-1.1,0-1.7C102.3,33.1,102.3,33,102.2,33z
		 M90,50.2c0.1,0,0.2,0.1,0.4,0.1c1,0.1,2.1,0.2,3.1,0.4c2.3,0.4,4.5,0.8,6.8,1.2c0.5,0.1,1,0.3,1.5,0.5c0.5,0.2,0.9,0.4,1.5,0.7
		c-0.1-2.5-0.3-4.8-0.4-7.1C98.6,47.5,94.3,48.9,90,50.2z M96.8,32.1c0,1.2,0.8,1.8,1.8,1.3c0.4-0.2,0.8-0.4,1-0.7
		c0.8-1.1,1.6-2.2,2.4-3.3c0.2-0.3,0.2-0.7-0.2-0.9c-0.6-0.3-1.3-0.5-1.9-0.7c-0.1,0-0.3,0-0.4,0.1C97.8,28.8,96.9,30.2,96.8,32.1z"
		/>
	<path class="st1" d="M5.2,7.8c0.7,0.1,1.4,0.3,2.1,0.4c0.2,0,0.4,0,0.5,0.1C7.9,8.4,8,8.5,8.1,8.6C8,8.7,8,8.8,7.9,8.8
		C6.9,8.6,5.8,8.5,4.8,8.2C4,8,3.9,7.7,4.3,6.9c0.7-1.4,1.9-2.1,3.3-2.5C9.3,3.9,11,3.9,12.7,4c4,0.2,7.9,0.6,11.8,0.8
		c0.3,0,0.6,0.1,0.8,0.1c0.4-0.9,1.1-1,1.7-0.3c0.4,0.5,0.9,0.5,1.4,0.6c5,0.3,10,0.7,15,1.1c2.5,0.2,5.1,0.5,7.6,0.7
		c0.9,0.1,1.8,0.4,2.7,0.6c0.1,0,0.1,0.2,0.2,0.2C54,7.9,53.9,8,53.8,8c-1.1,0.1-2.1,0.1-3.2,0.2c-3.9,0.3-7.8,0-11.7-0.3
		c-3.4-0.2-6.8-0.5-10.2-0.7c-0.1,0-0.2,0-0.3,0c0,0.1-0.1,0.2,0,0.2c0.2,2.7,0.1,5.4,0,8.1c-0.2,4.9-0.4,9.8-0.6,14.8
		c-0.2,4.4-0.4,8.7-0.3,13.1c0,1.4,0.1,2.8,0.2,4.1c0,0.5-0.3,0.6-0.6,0.6c-0.2,0.1-0.6,0-0.7-0.1c-0.2-0.2-0.4-0.6-0.5-0.9
		c-0.4-1.5-0.5-3-0.5-4.6c0.1-3.1,0.2-6.1,0.3-9.2c0.2-4.7,0.4-9.4,0.6-14.1c0.1-3.5,0.2-7,0.3-10.6c0-0.4,0-0.7-0.1-1.1
		c0-0.4-0.2-0.6-0.7-0.7c-2.4-0.2-4.8-0.5-7.2-0.7C15.6,6.1,12.7,5.8,9.9,6C8.3,6.1,6.8,6.6,5.5,7.4C5.4,7.5,5.3,7.6,5.2,7.6
		C5.2,7.7,5.2,7.7,5.2,7.8z"/>
	<path class="st1" d="M76.2,34.5c-0.2,0.8,0.6,1.3,1.4,1.3c1.5-0.1,2.9-0.1,4.4-0.3c2.2-0.4,4.4-0.9,6.5-1.4c0.1,0,0.2-0.1,0.2-0.1
		c0.2-1.8,0.3-3.7,0.6-5.4c0.1-1,0.4-1.9,0.6-2.9c0-0.2,0.2-0.4,0.3-0.6c0.2-0.2,0.4-0.2,0.6,0c0.4,0.4,0.7,0.7,0.6,1.3
		c-0.3,2.4-0.5,4.8-0.7,7.2c-0.1,1.1,0.1,2.3,0.2,3.4c0,0.2,0,0.4,0.1,0.6c0,0.5-0.3,0.8-0.8,0.5c-0.8-0.4-1.2-1.1-1.3-2
		c-0.1-0.5-0.1-1-0.1-1.5c-0.8,0.4-1.6,0.9-2.4,1.3c-2.3,1.2-4.8,1.9-7.4,2c-1.1,0-2.1,0-3.2-0.4c-1-0.4-1.5-1.2-1.5-2.3
		c-0.1-1.9,0.7-3.5,1.9-5c0.9-1.2,1.9-2.3,2.9-3.3c1.3-1.2,2.8-1.6,4.5-1.2c0.9,0.3,1.3,0.9,1.3,1.8c0.1,1.7-0.7,3-1.9,4
		c-1.2,1.1-2.7,1.9-4.2,2.6c-0.5,0.2-1.1,0.2-1.6,0.3C76.8,34.5,76.5,34.5,76.2,34.5z M77,32.6c0.3-0.1,0.4-0.1,0.6-0.1
		c2.2-0.6,3.8-2.1,5.1-3.9c0.1-0.2,0.1-0.5,0-0.8c-0.1-0.3-0.4-0.4-0.7-0.3c-0.6,0.2-1.2,0.4-1.7,0.7C78.8,29.3,77.9,30.9,77,32.6z"
		/>
	<path class="st1" d="M122.9,39.3c0.3-0.1,0-0.7,0.5-0.5c0,0.5,0,1.1,0,1.6c-0.1,1-0.9,1.3-1.7,0.7c-0.6-0.4-0.8-1-0.8-1.7
		c0.1-2.2,0.1-4.5,0.3-6.7c0.2-2.8,0.6-5.7,1-8.5c0.1-0.9,0.2-1.9,0.4-2.8c0-0.1,0-0.2,0-0.4c-0.9,0.2-1.8,0.4-2.7,0.5
		c-1.1,0.2-2.2,0.3-3.3,0.4c-0.3,0-1-0.4-1-0.7c0-0.1,0.1-0.3,0.2-0.4c0.5-0.3,1.1-0.5,1.6-0.7c1.7-0.5,3.3-0.9,5-1.3
		c0.1,0,0.3-0.1,0.5-0.1c0-0.2,0-0.3,0-0.5c-0.1-1.6-0.1-3.2-0.2-4.8c0-0.4,0.2-0.9,0.3-1.3c0.1-0.3,0.4-0.4,0.7-0.4
		c0.3,0,0.6,0.1,0.7,0.4c0.2,0.6,0.3,1.2,0.4,1.8c0.1,1.2,0.1,2.4,0.1,3.5c0,0.2,0,0.3,0,0.6c0.7-0.1,1.3-0.3,1.9-0.4
		c1.1-0.2,2.1-0.6,3.2-0.7c1.7-0.1,3.4-0.5,4.8,0.8c0.6,0.5,1.1,1.2,1.7,1.8c0.1,0.1,0.1,0.3,0.2,0.6c-0.2-0.1-0.3-0.1-0.4-0.2
		c-1.3-1.1-2.7-1.6-4.4-1.3c-1.8,0.4-3.7,0.7-5.5,1c-0.2,0-0.4,0.1-0.6,0.2c-0.8,0.3-1.2,0.7-1.3,1.6c-0.3,2.8-0.7,5.6-0.9,8.4
		c-0.3,2.6-0.4,5.2-0.7,7.8C122.9,38.1,122.9,38.7,122.9,39.3z"/>
	<path class="st1" d="M43.1,34.5c0,0.8,0.5,1.3,1.5,1.3c1.9,0.1,3.7-0.1,5.5-0.5c2.1-0.4,4.1-0.9,6.2-1.4c0.1,0,0.2,0,0.4,0
		c-0.7,0.4-1.3,0.8-2,1.2c-2.3,1.4-4.8,2.3-7.5,2.7c-1.3,0.2-2.6,0.2-3.9-0.1c-1.4-0.3-2.2-1.1-2.2-2.7c0-1.9,0.8-3.4,1.9-4.8
		c0.9-1.1,1.8-2.3,2.9-3.3c1.2-1.1,2.8-1.6,4.4-1.2c1,0.3,1.3,0.8,1.4,1.9c0.1,1.9-0.9,3.2-2.2,4.3c-1.2,1-2.5,1.7-3.9,2.3
		c-0.5,0.2-1,0.2-1.5,0.3C43.8,34.5,43.4,34.5,43.1,34.5z M44,32.6c0.2,0,0.4-0.1,0.5-0.1c2.2-0.6,3.9-2.1,5.2-3.9
		c0.1-0.2,0.1-0.5,0-0.8c-0.1-0.3-0.4-0.4-0.7-0.3c-0.6,0.2-1.3,0.4-1.8,0.8C45.7,29.4,44.9,30.9,44,32.6z"/>
	<path class="st1" d="M33.3,34c0.1-0.5,0.2-1,0.3-1.5c0.3-1,0.7-2.1,1.1-3.1c0.4-1.1,1.4-1.5,2.5-1.6c0.5-0.1,1,0.2,1.3,0.6
		c0.6,0.7,0.8,1.5,1,2.3c0.4,1.7,0.5,3.4,0.5,5.1c0,0.6-0.6,0.6-0.9,0.8c-0.1,0.1-0.5-0.1-0.6-0.3c-0.2-0.4-0.5-0.9-0.5-1.3
		c-0.2-1.3-0.3-2.6-0.4-3.9c0-0.3-0.1-0.6-0.2-0.9c0-0.1-0.2-0.3-0.3-0.3c-0.1,0-0.3,0.1-0.3,0.2c-0.4,0.8-0.9,1.6-1.1,2.5
		c-0.4,1.2-0.6,2.5-0.9,3.8c-0.1,0.3-0.2,0.7-0.4,1c-0.6,0.9-1.8,0.9-2.4-0.1c-0.5-0.7-0.6-1.6-0.7-2.4c-0.3-1.6-0.1-3.1,0-4.7
		c0.2-2.3,0.4-4.7,0.7-7c0.2-1.1,0.5-2.2,0.8-3.3c0.1-0.2,0.2-0.4,0.3-0.6c0.2-0.3,0.4-0.5,0.9-0.3c0.4,0.2,0.5,0.4,0.5,0.9
		c-0.4,3-0.8,6-1.1,9.1c-0.2,1.5-0.1,3.1-0.2,4.6c0,0.2,0,0.3,0,0.5C33.2,34,33.2,34,33.3,34z"/>
	<path class="st1" d="M111.6,34c0.1-0.3,0.1-0.5,0.2-0.8c0.3-1.1,0.6-2.3,1-3.4c0.1-0.4,0.4-0.8,0.7-1.1c1-1.1,2.9-1.4,3.8,0.4
		c0.5,1.2,0.7,2.4,0.8,3.6c0.1,1,0.1,2,0.2,3.1c0,0.2-0.1,0.4-0.3,0.5c-1,0.7-1.3,0.3-1.5-0.5c-0.3-1-0.4-2.2-0.6-3.2
		c-0.1-0.7-0.1-1.5-0.2-2.2c0-0.2-0.2-0.3-0.3-0.5c-0.1,0.1-0.3,0.2-0.4,0.3c-0.8,1.1-1.1,2.3-1.4,3.6c-0.2,0.9-0.4,1.9-0.6,2.8
		c-0.1,0.7-0.7,1.3-1.3,1.4c-0.6,0.1-1.3-0.2-1.5-0.9c-0.3-0.9-0.6-1.8-0.7-2.7c-0.1-1.6,0-3.2,0.1-4.8c0.2-2.2,0.4-4.5,0.7-6.7
		c0.1-1,0.5-2,0.7-3c0.1-0.3,0.2-0.5,0.4-0.7c0.2-0.3,0.4-0.5,0.8-0.3c0.4,0.2,0.6,0.3,0.5,0.8c-0.4,2.6-0.7,5.3-1,7.9
		c-0.2,2-0.2,3.9-0.3,5.9c0,0.1,0,0.3,0,0.4C111.5,34,111.5,34,111.6,34z"/>
	<path class="st1" d="M132.4,26.6c-0.1-0.1-0.2-0.2-0.3-0.1c-0.9,0.1-1.8,0.2-2.5,0.6c-0.4,0.3-0.4,0.4-0.1,0.8
		c1.1,1.5,2.5,2.6,4,3.8c0.6,0.5,1.3,0.9,1.6,1.8c0.6,1.9,0.2,3.6-1.7,4.4c-1.1,0.5-2.2,0.8-3.4,0.3c-0.8-0.4-1.3-1-1.3-1.9
		c0-0.5,0.2-0.8,0.8-1c0.2,0.9,0.9,1.2,1.7,1.3c0.7,0.1,1.8-0.5,2.1-1.1c0.3-0.6,0.3-0.9-0.2-1.4c-1.2-1.1-2.4-2.1-3.6-3.1
		c-0.9-0.7-1.5-1.6-2-2.5c-0.5-1-0.3-1.9,0.6-2.5c1-0.7,2.1-1,3.3-1.2c0.6-0.1,1.5,0.5,1.7,1.1C133,25.9,132.9,26.1,132.4,26.6z"/>
	<path class="st1" d="M90,20c-0.1-0.8,0.3-1.5,0.9-2c0.5-0.5,1-0.5,1.5-0.2c1.6,0.8,2,2.8,0.6,4c-0.6,0.6-1.3,0.4-2,0.2
		c-0.6-0.2-1-0.7-1-1.3C90,20.4,90,20.2,90,20z"/>
	<path class="st1" d="M115.2,45.5c-0.3,0-0.6,0.1-0.9-0.3c-0.1-0.2-0.5-0.2-0.7-0.2c-0.2,0.1-0.4,0.4-0.4,0.6c0,0.2,0.3,0.3,0.5,0.5
		c0,0,0.1,0,0.2,0c0.6,0,1.1,0.3,1.2,0.9c0.1,0.5,0,1-0.4,1.4c-0.4,0.4-1.1,0.4-1.7,0.1c-0.4-0.2-0.6-0.6-0.7-1.1
		c0.3-0.1,0.6-0.2,0.9,0.3c0.1,0.2,0.5,0.2,0.7,0.2c0.2,0,0.4-0.4,0.4-0.5c-0.1-0.2-0.3-0.4-0.5-0.6c-0.1-0.1-0.3,0-0.5-0.1
		c-0.7-0.1-1.1-0.7-1.1-1.4c0.1-0.8,0.7-1.2,1.5-1.2C114.7,44.3,115.2,44.8,115.2,45.5z"/>
	<path class="st1" d="M119.2,47.7c0.2,0.2,0.3,0.3,0.5,0.5c-0.5,0.7-2,1-3,0.2c-1-0.8-1.1-2.5-0.2-3.4c0.8-0.9,2.3-0.9,3.2,0
		c-0.2,0.2-0.3,0.3-0.5,0.5c-1-0.6-1.7-0.5-2.2,0.1c-0.5,0.6-0.4,1.6,0,2.1C117.6,48.2,118.3,48.3,119.2,47.7z"/>
	<path class="st1" d="M123.6,47.7c0.2,0.2,0.3,0.3,0.4,0.5c-0.4,0.7-2.1,1-3,0.1c-0.9-0.8-1-2.5,0-3.4c0.8-0.8,2.3-0.8,3.1,0.1
		c-0.2,0.1-0.3,0.3-0.5,0.4c-1.1-0.5-1.8-0.4-2.2,0.2c-0.4,0.6-0.4,1.5,0.1,2.1C122,48.2,122.8,48.2,123.6,47.7z"/>
</g>
</svg>
