<?xml version="1.0" encoding="utf-8"?>
<!-- Generator: Adobe Illustrator 20.1.0, SVG Export Plug-In . SVG Version: 6.00 Build 0)  -->
<svg version="1.1" id="Layer_1" xmlns="http://www.w3.org/2000/svg" xmlns:xlink="http://www.w3.org/1999/xlink" x="0px" y="0px"
	 viewBox="0 0 1190.6 595.3" style="enable-background:new 0 0 1190.6 595.3;" xml:space="preserve">
<style type="text/css">
	.st0{clip-path:url(#SVGID_2_);}
	.st1{fill:#FFFFFF;}
	.st2{fill:#E0F2FC;}
	.st3{fill:url(#SVGID_3_);}
	.st4{fill:url(#SVGID_4_);}
	.st5{fill:url(#SVGID_5_);}
	.st6{fill:url(#SVGID_6_);}
	.st7{fill:url(#SVGID_7_);}
	.st8{fill:url(#SVGID_8_);}
	.st9{fill:url(#SVGID_9_);}
	.st10{fill:url(#SVGID_10_);}
	.st11{fill:url(#SVGID_11_);}
	.st12{fill:url(#SVGID_12_);}
	.st13{fill:url(#SVGID_13_);}
</style>
<defs>
	<rect id="SVGID_1_" width="1190.6" height="595.3"/>
</defs>
<clipPath id="SVGID_2_">
	<use xlink:href="#SVGID_1_"  style="overflow:visible;"/>
</clipPath>
<g id="mountains" class="st0">
	<g>
		<path class="st1" d="M0,111.1V31.8C8,29.7,27.7,65,35.7,63.3c8.4-1.7,51.6,28.5,60,26.3c16.4-3.9,23-15.5,40.3-19.4
			c19.7-4.3,38.5-9.9,57.7-14.2c13.1-3,61.4-49.1,76-49.1c0,0.4,0.5,0,0,0c15,3.4,23.9,15.1,39.9,19c19.7,4.3,24.4,28.9,43.2,34.9
			c16.9,5.2,35.7,37.1,53.5,41.4c15.9,3.9,45-36.2,58.2-28.9c29.1,16,51.6,64.2,89.6,68.1c35.7,3.4,41.7-1.7,72.7-12.5
			c6.6-2.2,31.9-16.8,37.5-20.3c13.1,4.3,26.3,21.1,40.8,24.1c8.9,1.7,25.8,16,34.2,16.4c8.9,0.4,39.9-20.3,46.9-26.7
			c17.4-16.4,39.9-31.5,59.6-47.4c1.9-1.7,5.2-3,6.1-4.3c13.6-3.9,30.5-34.5,44.1-34.5c8,0,11.3,12.5,23.9,19.8
			c16.4,9.5,38.9,28.9,60,28.5c5.2-2.2,16.4-10.3,23-10.8c11.3-1.3,19.2,8.2,32.4,6.5l0,0c14.1-6.9,20.6,16.4,37.5,20.7
			c17.8,4.7,43.2-20.7,46-22.9c11.3-10.3,33.3,21.1,46.4,14.7c8.9-4.7,17.4-9.1,25.3-16.8v519.5H0V111.1z"/>
		<path class="st2" d="M738.8,148.2c-1.9,5.6,6.6,9.5,13.1,12.9c3.3,1.7,8.4,5.6,11.7,7.3c3.8,1.7,8.4,1.7,12.2,3.9
			c3.3,2.2,5.2,4.7,8.9,6.5c4.2,2.2,9.4,3,14.1,3.9c8.4,1.3,15,5.2,22.5,9.9c7.5,4.7-27.7-19-32.4-20.7c-6.6-2.6,26.3,7.3,22.5,3.4
			c-1.4-1.7-8.9-5.6-10.8-6.5c-1.9-0.9-5.2-4.7-7-6c-3.8-2.2-7-10.3-9.9-12.9c-4.2-4.3-9.9-18.1-12.7-16.4
			C754.7,141.3,738.8,148.2,738.8,148.2z"/>
		<path class="st2" d="M984.1,91.7c2.8,5.2,8.9,8.6,13.1,11.6c5.2,3.9,18.8,2.2,49.3,24.6c7.5,4.7,14.5,4.3,22.5,8.6
			c3.3,1.7,7.5,3.4,11.3,5.2c4.7,2.2,10.8,3.4,14.5,6c5.6,0.4,11.7,12.1,17.4,13.4c6.1,1.3,14.1,7.3,19.7,10.3
			c13.6,7.8,25.8,27.2,38.9,29.3c6.6,0.9,14.1,4.7,20.2,4.7v-25.4c-2.8-1.3-125.7-38.4-158.1-65.5c-4.7-3.9-48.8-24.1-48.8-24.6
			L984.1,91.7z"/>
		<path class="st2" d="M410,102.1c10.3,9.9,24.9,20.7,38,27.6c7,3.9,14.1,7.3,21.6,10.3c7,3,5.6,3.4,12.2,6.9
			c5.6,2.6,19.2,6.5,25.3,8.6c5.6,2.2,7.5,7.3,13.1,9.1c5.6,1.7,10.8,2.6,16.4,4.3c6.1,1.7,12.2,5.2,17.8,8.2c0-0.4,0.5,0,0.5,0
			c3.3,5.2,18.3,8.2,24.4,10.3c9.4,3,8,6.9,17.4,10.3c18.8,6.5,5.2,1.7,25.3,2.2c6.6,0,14.5,2.2,20.6,1.3
			c7.5-0.9-15.9-8.6-21.6-12.5c1.9,0,2.3-0.9,3.8-1.3c-1.4-1.7-4.2-2.2-5.6-3.9c-0.9-1.7-0.5-3.4-0.9-5.6c-2.8-1.7-5.6-3.4-9.4-4.3
			c-6.6,3.4-56.3-33.6-56.3-33.6c-2.3,19.4,28.6,40.5,22.5,36.2c-2.8-2.2-27.2-12.5-30.5-14.2c-3.3-1.7-8-3.9-11.3-5.6
			c-8.4-3.4-16.4-4.3-24.9-9.1c-7.5-4.3-16.9-7.3-24.9-9.9c-9.4-3.4-25.8-10.3-33.8-15.1c-7.5-4.3-14.5-14.2-14.5-14.2
			c-3.3-1.7-11.7-1.3-17.8-5.6c0-0.4-0.5-0.4-0.9-0.4H410z"/>
		
			<linearGradient id="SVGID_3_" gradientUnits="userSpaceOnUse" x1="1264.2921" y1="1320.2131" x2="1327.8013" y2="1320.2131" gradientTransform="matrix(0.527 0.5112 0.2884 -0.5208 -2.6696 121.7281)">
			<stop  offset="0" style="stop-color:#C9DEF8"/>
			<stop  offset="0.5" style="stop-color:#A7CCEF"/>
			<stop  offset="1" style="stop-color:#6DAFE3"/>
		</linearGradient>
		<path class="st3" d="M1045.1,78.8c0.9,0,6.1,4.3,9.4,7.8c2.3,2.2,9.4,8.6,11.7,10.3c1.4,0.9,10.8,3.9,13.6,3.9
			c0,0-6.1,10.3-2.8,13.4c-0.5,5.2-5.6-2.6-7-3.4c0,0.9,0,1.3,0,2.2c-0.9-1.3-1.9-3.9-3.3-4.7c-0.5,2.6,3.3,7.8,3.3,11.2
			c-1.4-0.9-3.8-6-4.7-8.2c-1.9-3-1.9-6.9-4.7-9.5c-0.5,0.4-0.5,0.4-0.9,0.9c-1.4-1.7-2.3-3-3.3-5.2c-1.4-2.2-2.3-3.4-2.3,0
			c-0.5-0.9-0.9-1.3-1.4-2.2c0,0.4-0.5,0.9-0.5,1.7c-0.5-2.2-0.9-3.9-1.4-5.6c-0.5-1.3-2.8-5.6-3.3-3c-0.5-0.9-0.9-3-0.9-3.9
			c0-0.4,0-3.9,0-3L1045.1,78.8z"/>
		
			<linearGradient id="SVGID_4_" gradientUnits="userSpaceOnUse" x1="449.8835" y1="460.3504" x2="471.3242" y2="460.3504" gradientTransform="matrix(1 0 0 -1 0 598)">
			<stop  offset="0" style="stop-color:#BCD8F9"/>
			<stop  offset="0.5" style="stop-color:#9DC7F1"/>
			<stop  offset="1" style="stop-color:#68B0E7"/>
		</linearGradient>
		<path class="st4" d="M449.8,132.7c1.9,3,5.6,7.3,8,9.5c1.4-2.2,4.7,0.9,6.6,1.3c0-1.3-0.9-2.2-1.4-3.9c1.4,0.4,3.3,0.9,4.2,1.3
			c1.9,1.3,1.9,3.4,4.2,3.4c-0.9-5.2-5.6-5.2-8.9-6.9c-1.9-2.2-8.4-6-10.8-6.5L449.8,132.7z"/>
		
			<linearGradient id="SVGID_5_" gradientUnits="userSpaceOnUse" x1="98.3457" y1="-19.7324" x2="218.4431" y2="-19.7324" gradientTransform="matrix(-0.4199 0.8909 -0.8378 -0.4514 995.3884 -37.1675)">
			<stop  offset="0" style="stop-color:#C9DEF8"/>
			<stop  offset="0.5" style="stop-color:#A7CCEF"/>
			<stop  offset="1" style="stop-color:#6DAFE3"/>
		</linearGradient>
		<path class="st5" d="M983.2,82.2c-1.9,1.3-1.9,5.6-4.2,5.2c-1.4-0.4-3.8-3.4-5.6-4.3l0,0c-0.5-0.4-15.9-5.2-24.9-9.9
			c-1.4-0.9-2.3-2.2-4.2-2.2c1.9,3,3.8,6.9,3.3,10.3l0,0c-1.4-1.7-1.4-3.9-2.3-5.6c-0.9-2.2-1.4-3.4-1.9-5.6l-2.8-1.7
			c0.9,1.3,1.9,7.3,1.4,8.6c-1.4-1.3-1.9-5.2-1.9-6.9c-2.3-0.9-5.6-4.3-7-6c-1.9-3-5.2-4.3-9.4-6.9c-3.3,2.6,3.3,9.1,2.8,12.5
			c-2.3-1.7-2.8-6-4.7-7.3c0.5-3.9-3.3-6.5-5.2-9.5c0,0-3.8-3.9-4.2-3.9c0,0.4-1.4,3-1.4,3.4c-2.3,0-2.3-7.8-4.2-8.6
			c-0.9-2.6-4.7-6.5-7.5-7.8c-2.8,1.3-7,10.8-5.6,14.2c-0.5,0.4,2.8,1.7,2.8,2.2c0.9,2.6,1.9,5.2,1.9,8.2c-0.5,2.6,0.5,5.6,0,8.2
			c-0.9,3-1.4,4.3-0.9,7.8c0.5,3,1.4,6.5,3.3,8.6c0.9-3.4-0.9-6.5,0.9-9.9c0.9-1.7,1.9-1.7,1.9-3.9c0-1.3-0.5-3.9-0.5-5.2
			c0-3.4-1.4-6.5-1.9-9.9c-0.5-3.4,1.4-5.2,1.4-8.2c0,4.3,2.3,8.2,3.3,12.1c0.5,1.7-0.5,4.7,0.5,6c1.4,2.2,2.8,1.3,3.8,4.3
			c1.4,3.4,2.3,7.8,3.3,11.2c0.9,3,2.8,7.8,2.3,10.8c-2.3-1.3-1.9-5.2-4.7-5.2c-1.4,3.9,5.2,8.6,7,11.6c1.4,2.6,2.8,11.2,7,9.9
			c1.9,1.3,2.3,3.4,4.2,4.7c1.4,0.9,3.8,1.3,4.2,3.4c0.9-1.7,0-5.2-0.5-6.9c0-2.2,0-4.7,0.5-6.9c2.8,2.6,1.9,6.9,4.2,9.5
			c0-1.7,0-4.3,0.5-6c0.5-4.3,0.9-3,3.8-0.4c0-1.7,1.9-3.9,2.8-0.9c-0.5-2.6,1.9-2.2,2.3-4.3c0,0,0.5,0,0.5-0.4
			c-0.5-2.2-1.9-5.6,0-7.3c1.4,2.2,3.3,6,2.8,8.6c-0.5,3-5.2,3.9-4.2,8.2c-0.5,0-0.9,0.4-1.9,0.4c-1.4,2.2-0.9,6.9-0.9,9.5
			c-0.9-0.4-1.9-1.3-1.9-2.6c-0.5,2.6-0.9,4.7-0.5,7.3c0.5,2.6,2.3,4.3,1.9,6.9c-5.2-1.3-2.3,6.9-0.9,8.6c0.9,2.6,0,9.9-0.9,13.4
			c-0.9,2.6-3.8,4.3-3.8,6.9c0,3,3.8,1.7,4.2,4.7c-2.3,1.7,1.9,2.2,1.9,3.9c0,2.6,5.6,6,5.2,9.1c2.8,0.9,6.1,9.5,6.1,7.8
			c1.4-3.4-7.5-17.2-4.2-19.8c0.5,0.9,3.3,5.6,3.3,6.5c1.9-1.3-1.9-10.3-0.5-11.6c0.5,0.9,7.5,11.2,8,12.1
			c1.4-2.6-7.5-12.1-4.7-13.4c0.5,1.3,5.2,6,6.1,7.3c1.9-2.6-4.2-8.6-3.3-11.2c6.6,1.3,11.3,25.4,11.7,21.6l3.8,3.9
			c0.9,1.7-1.4-4.3,0-2.6c0-3-1.9-6.9-3.8-9.5c-2.3-3,2.3,0,0.9-3c-1.4-4.3-7-12.5-7-16c1.9,0,5.2,3,6.6,4.3
			c1.9-1.7-0.9-5.6-1.9-7.3c0.9-0.9,1.4-1.7,1.9-2.6c-0.5-0.9,0-2.2-0.5-3c0.9-0.9,1.4-1.7,2.3-2.6c1.4,1.3,3.8,2.6,4.7,4.3
			c1.4,1.7,24.9,19.8,27.2,20.3c1.4-2.6-18.3-21.6-16.4-20.7c3.3-1.7,0,0,0.5-3c0-0.9,15.9,11.2,15.5,9.9c0-1.3-15.9-16.4-16.4-17.7
			c-1.4-2.2-4.7-3.9-4.2-6.5c0.5-3.4,3.8-0.9,5.2,1.3c3.8-2.2,6.6,4.7,8.9,3c-1.4-1.7-10.3-14.7-7.5-15.1c-1.4-1.7,0-3,1.9-3.9
			c-0.9-2.2-0.9-5.6-0.5-8.2c2.8,0.9,1.9,5.6,5.2,5.6c0.5-3.4-2.3-6-4.7-8.2c-1.9,1.3-2.8,3.9-5.2,5.2c-0.5-3-2.8-8.2,0-10.3
			c0.5,0.9,2.3,1.3,2.8,2.2c1.4-1.3,3.8-16.4,4.2-18.5c1.9,1.7,1.4-2.2,1.9-2.2C997.7,74.1,986.5,80.5,983.2,82.2z"/>
		
			<linearGradient id="SVGID_6_" gradientUnits="userSpaceOnUse" x1="664.2144" y1="460.1348" x2="755.0489" y2="460.1348" gradientTransform="matrix(1 0 0 -1 0 598)">
			<stop  offset="0" style="stop-color:#BCD8F9"/>
			<stop  offset="0.5" style="stop-color:#9DC7F1"/>
			<stop  offset="1" style="stop-color:#68B0E7"/>
		</linearGradient>
		<path class="st6" d="M664.7,107.7c-1.9,0,6.6,16,7.5,21.6c3.3-6,4.2-4.7,9.9-0.9c0.9,0.9-0.5,2.6,1.4,3.4c1.4,0.9,3.3-1.3,4.2-1.3
			c2.8,0.9,5.6,1.3,6.6,4.7c9.9-0.4,13.1,10.8,20.6,13.4c0.9-2.2,2.3-3.9,4.2-4.7c8,6.5,13.6,11.2,20.2,19c0.9,0,7.5,5.2,8.4,5.2
			c0.9-3.4-3.3-3.4-3.8-6.9c1.4,0.9,9.4,1.3,10.8,1.7c-10.8-6-15.9-8.6-15.5-14.7c-0.5,0,0,0,0-0.4c-16.9-5.6-22-12.9-40.8-19
			C689.1,125.8,671.7,107.7,664.7,107.7z"/>
		
			<linearGradient id="SVGID_7_" gradientUnits="userSpaceOnUse" x1="1066.8582" y1="285.3943" x2="1033.2365" y2="493.5807" gradientTransform="matrix(1 0 0 -1 0 598)">
			<stop  offset="0" style="stop-color:#BCD8F9"/>
			<stop  offset="0.5" style="stop-color:#9DC7F1"/>
			<stop  offset="1" style="stop-color:#68B0E7"/>
		</linearGradient>
		<path class="st7" d="M1043.7,102.9L1043.7,102.9c0,0.4,0.9,0.4,1.4,0.9s0.9,0.4,0.9,0.9c0.9,0.4,2.3,1.3,1.9,2.2
			c-0.5,0-0.5-0.4-0.9-0.9s-0.9-0.9-1.4-1.3c-0.9-0.9-1.9-0.9-2.8-1.7v-0.4L1043.7,102.9z M1047.9,102.5c-0.5-0.4-1.9-0.9-1.4,0
			c0.5,0.4,1.4,0.4,1.9,0.9c0,0,0,0,0-0.4l0,0L1047.9,102.5z M1044.2,107.3c-0.5,0-0.9,0-0.5,0.4c0,0.4,0.5,0.4,0.9,0.4
			c0.5,0.4,0.9,1.3,1.9,1.3c0.9,0.4,0.9-0.4,0.5-0.9s-1.4-0.9-1.9-1.3H1044.2z M1059.7,120.6c0,0.4-0.5,0.4-0.9,0.4
			c-0.5,0-0.9,0.4-1.4,0c-0.9,0.4,1.4,0.9,1.9,0.4C1059.7,121.5,1060.1,121.1,1059.7,120.6C1060.1,120.6,1060.1,120.6,1059.7,120.6
			L1059.7,120.6z M1057.8,125.8c-0.5,0-0.9,0-1.4,0s-2.3-0.9-2.8,0c0.5,0.4,1.4,0.4,1.9,0.9c0.5,0,1.4,0.4,1.9,0.4
			c1.4,0.4,2.3,0,1.9-0.9l0,0C1059.2,126.2,1058.2,125.8,1057.8,125.8z M1064.3,131.8c0,0.4-0.5,0.4-0.5,0.9s0.9,0.4,1.4,0.9
			c0.5,0,0-0.4-0.5-0.9l0,0L1064.3,131.8z M1057.3,129.7c-0.5-0.4-1.9,0-1.4,0c0,0.4,0.9,0.9,1.4,0.9c0,0,0.5-0.9,0-0.4
			C1057.8,129.2,1057.8,129.2,1057.3,129.7z M1065.3,135.7C1065.3,135.7,1065.7,135.7,1065.3,135.7c0,0-0.9,0-1.4-0.4
			c-0.9,0.4-2.3,0.9-2.3-0.9c-1.4-0.9-2.3-1.7-4.2-2.2c-0.9,2.2,0,1.3-0.5,1.7c0-0.4,0,0,0,0.9c0.9,0.4,1.9,1.7,3.3,0.9
			c0,1.3,0.5,0,0.9,0c0.5,0.4,0.9,0.4,1.4,0.4c1.4-1.3,0,2.2,0.9,0.4c0,0.9,0,1.7,1.4,0.4c0.9-0.4,0.9-0.4,0.9-0.9L1065.3,135.7z
			 M1033.9,118.9c-0.9-0.4-1.9-0.4-2.8-0.9c-0.5-0.4-2.3-0.9-2.3-1.7c0-0.4,0.9,0,0-0.4c-0.5-0.4-0.9-0.4-1.9-0.9s-1.9-0.4-2.8-0.4
			c0.5,0.4,2.8,1.3,2.8,1.7s-0.9,0,0,0.4c0.5,0.4,0.9,0.4,1.4,0.9C1030.1,118.9,1033.4,120.2,1033.9,118.9
			C1033.9,119.3,1033.9,119.3,1033.9,118.9L1033.9,118.9z M1031,120.2c0.9,0.4,1.4,0.9,1.4,1.7c0,0.4-0.5,0.4-0.5,0.9
			c0,0.4,0,0.4,0,0.9c0,0,0.5,0,0.5,0.4c0.9,0,1.4-0.9,1.4-1.3c0-0.9-0.9-1.3-2.3-1.7h0.5L1031,120.2z M1036.2,123.2
			c0,0.4-0.5,0.9-0.5,1.3c0.5-0.4,0.5,2.2,1.9,1.7c0.5,0.4,0,0.4-0.5,1.3c-0.5,1.3,0.9,0.9,0.5,1.3c0.5,1.3,1.4,1.7,1.9,2.2
			c0.5,0-0.5,2.2,0.5,2.2c0-1.7-1.9-0.4-1.9-0.9c0,1.3,0.9,1.7,1.4,1.7c0,1.3,0.5,0.9,0.9,1.7c0.5,0,0.5,1.7,1.4,1.3
			c0,1.7,0.5-1.3,0.9-1.3c0.9,1.3,2.8,2.2,3.8,3c1.9-1.3,1.4,0.9,1.9,2.2c0,0.4,0.9,0.9,1.4,0c0-0.4-0.9-0.4-0.9-0.9
			c-0.5,0.4-0.5-0.9-0.9-1.3c0.5-0.9-1.4,0-0.9-1.3c0.5,0,0.9,1.3,1.9,0.4c-0.5,0.9-0.5-3.4-2.3-2.6c-0.5,0.4-0.5-1.3,0.5-0.4
			c0,0.9,0.9,0.9,1.4,1.3c0,1.7,2.8,0.4,2.8,2.2c0.5-0.4,0,0.4,0.5,0c0.5,0,0,1.7,0.9,0.4c0.5,0.4,1.9-0.9,1.9,0.4
			c0.9,0.4,1.4,1.3,2.3,1.3c0.9-0.9,0-1.7-0.5-1.3c0-0.4,0,0.4,0-1.3c-0.5-0.9-1.9-3-3.8-2.6c-0.9,0.4-0.5-1.3-1.9-0.4
			c-0.5-0.4-0.9-1.7-1.9-1.3c-0.9,1.3-0.5,0.9,0,1.3c-0.5,1.7-0.5,0.9-0.5,0c-0.9,0.4-1.9-3-3.3-3c-0.9-0.9,1.4,3,0.5,2.6
			c-0.9,0.4-2.8-2.2-3.8-2.2c-0.5-0.4-0.9-1.7-1.9-1.7c-0.5-1.3-1.4-0.9-0.9-1.7c0.9-2.2,1.9-1.3,1.9,0.9c0.9,0.4,1.9,1.7,2.8,1.7
			c0.9-1.3-0.9-1.7-1.4-2.2c-0.9-0.9-1.9-0.9-1.9-1.7c-0.9-1.3-1.9-1.7-3.3-2.6l0,0c0,0,0.5,0,0.5,0.4L1036.2,123.2z M1025.4,117.2
			c-1.9-0.9,0.5,2.2,1.4,2.6c0.5,0,0.5-0.4,0-0.9l-0.5-0.4C1025.9,118,1025.9,117.6,1025.4,117.2L1025.4,117.2z M1026.3,120.6
			c0.5,0,0.5,0.4,0.5,0.4c0.5,0.4,0.9,0.4,0.9,0.4c0.9,0.4,1.4,0.9,1.9,1.3c0.5-0.4-1.4-1.7-2.3-2.2
			C1027.3,120.6,1026.8,120.6,1026.3,120.6L1026.3,120.6z M1019.8,117.6c0.5,0.4,1.4,1.3,1.9,1.7c0.5,0.4,0.5,0.9,0.9,1.3
			c0.5,0.4,0.9,0.9,1.4,1.3c0.5,0.4,0.9,0.9,1.4,0.9c0.9-0.4-3.3-4.3-4.7-4.7L1019.8,117.6z M1017,118.9c0.9,0.4,1.9,2.6,2.8,2.6
			c0.5,0,0-0.9,0-1.3c-0.5-0.4-1.4-0.9-1.9-1.3c0,0,0.5,0,0.5,0.4L1017,118.9z M1019.3,121.9c0.5,0.4,0.9,0.9,1.4,1.3s0,0.4,0,0.9
			c0,0.4,0.5,0.4,0,0.9c0,0,0,0-0.5,0.4h-0.5c0,0.4,1.9,1.3,1.9,1.7c0.5,0.4,0.9,1.3,1.9,1.7c0.9-0.4-0.5-2.6-1.4-3.4
			c-0.5-0.4-0.5-0.9-1.4-1.3c-0.5-0.4-1.4-0.9-1.4-1.3L1019.3,121.9z M1049.8,140.9c0.5-0.4-0.9,0.9-0.5,0.9c0.5-0.9,2.8,0,2.3,0.9
			c0.5-0.4-0.5,2.2,0.5,1.7c1.4-0.9,2.3,3.4,3.8,1.7c0.5,0-0.9-1.3-1.4-2.2c0-0.9-1.4-0.4-1.4-1.3
			C1052.1,140.9,1050.3,140,1049.8,140.9z M1041.8,138.3c-0.5-0.9-1.9,0.4,0,1.3c0.9,0,1.4,0,1.4,0.4c0,0.4,0.5-1.7-0.5-1.3
			C1042.8,138.7,1041.4,138.7,1041.8,138.3z M1036.7,138.3c0-2.6-1.4-1.3-2.3-0.4c0.5,0,1.4,1.7,2.3,1.3c1.9,0,0.9-0.4,0.5-0.4
			C1037.6,138.3,1037.1,137.9,1036.7,138.3z M1015.1,122.8c0.5,0.4,1.4,0.9,2.3,1.3c0.5,0.4,0,0.9,0.9,1.3c-0.5,0-1.4-0.4-1.4,0.4
			c0.5,0,1.4,0.9,1.9,1.3c0,0.4-0.5,0.4,0,0.9c1.4,1.3,1.4-0.4,0.9-0.9c0.5,0,0.5,0.4,0.9,0.4s-0.5-1.3-0.9-1.3
			c-0.5-0.4-0.9-0.9-1.4-1.7c-0.5-0.4-0.5-0.4-0.5-0.9c0-0.4,0-0.4-0.9-0.9c-0.5,0-0.5,0-0.9,0h-0.5
			C1016,122.8,1015.6,122.8,1015.1,122.8L1015.1,122.8L1015.1,122.8z M1017.4,131.4c0,0.4-0.5,0.4-0.9,0.4c-0.9,0.4,0.9,1.3,1.9,1.3
			C1020.2,133.1,1018.4,131.8,1017.4,131.4L1017.4,131.4z M998.7,107.3c-0.9,0-1.4,0.4-0.9,0.9c0.9,0,1.9,0.9,3.3,0.4
			c1.9,0,1.4-1.3,0-1.3c0,0,0,0-0.5,0C1000.5,107.3,998.7,107.3,998.7,107.3z M996.8,109.8c0.5,0.4,0.9,2.2,1.9,3
			c0.5,0.4,3.3,2.6,2.8,3.9c-0.5,0.9,4.2,2.2,3.8,3c0.5,0.4,8,7.3,2.8,3.9c-0.5-0.4,2.3,2.6-2.8-0.4c-0.9-0.4,0.9,0.9,1.4,1.3
			s1.4,0.9,1.9,1.3c0.5,0.4,0.9,1.3,1.4,1.3v0.4c0.5,0.4,0-0.4,0.9,0.4c0.9,0.9,4.7,3.4,4.7,2.6c-7-6.5,0.5-1.7-0.5-2.2
			c-0.9-0.9-4.2-4.7-5.6-5.6c-0.9-0.9-5.6-6.9-6.6-7.8c-0.5-0.4-6.1-7.3-6.1-7.3C997.3,108.5,998.2,110.3,996.8,109.8z
			 M1023.5,137.4c0.5,0.4,1.4,0.9,0.9,1.3c-0.9-0.4-1.4-0.9-1.9-1.3l0,0h-0.5l0.5,0.4l0.5,0.4l0,0c0.5,0.4,0.5,0.4,0.9,0.4
			c0,1.3,1.9,1.3,2.8,2.2c0.9,0.9,0.9,1.7,2.3,2.6c0,0,0,0,0,0.4c0.9,0.4,2.8,2.2,2.8,0.9c0-0.9-1.4-2.2-2.3-2.6
			c-0.5-0.9-1.4-1.7-1.9-2.6c-0.9-0.4-2.3-1.3-2.8-1.7L1023.5,137.4z M1032.4,145.6c-0.9,0.4-0.5,0.9,0,1.7c0.5,0.4,0.5,0.9,0.5,1.7
			c0.5,0.4,1.4,0.9,2.3,1.3c0.5,0.4,0.5,0.4,0.5,0.9c0.5,0.4,0.9,0,0.9,0.4c1.4,0.4,1.9,1.7,2.3,2.6c0.5,0.4,0,0.9,0.9,1.3
			c0.5,0.4,1.4,1.3,1.9,1.3l0.9,0.4c0-0.9-1.9-2.2-2.3-2.6c-0.5-0.4-0.5-0.9-0.9-1.7c0.9-1.3-2.3-2.2-3.8-3.4
			c-0.9-0.4-3.3-3.4-2.8-3.4L1032.4,145.6z M1045.1,160.7c-2.3-0.4,2.3,2.2,2.8,2.6C1048.9,162,1045.6,161.6,1045.1,160.7
			c0.5,0,0.9,0.4,0.9,0.4L1045.1,160.7z M1047,159c-0.5-0.4-1.9,0-1.4,0.4c0,0.4,1.9,0.9,2.3,1.3c0.5,0,0.5-0.4,0.5-0.4
			C1047.9,159.4,1047.5,159.4,1047,159L1047,159z M1051.7,164.2c-2.8-0.9,1.4,2.6,1.9,1.3c-0.5-0.4-0.9-0.4-0.9-0.9L1051.7,164.2z
			 M1053.6,167.2c0.5,0.4,1.9,1.3,2.3,2.2c0.5,0.4,0,1.3,1.4,1.7c0.5,0.9,1.9,2.2,2.8,2.2c1.9-0.9,0.5-1.3-1.4-2.6
			c-0.9-0.4-1.4-1.3-1.9-1.7c-0.5-0.4-1.4-0.9-1.9-1.3l0,0L1053.6,167.2z M1009,113.7c1.9,0.4,3.3,0.9,5.2,1.7
			c1.4,0.9,3.3,1.3,4.2,2.2c0.5,0.4-0.5,0.4,0.5,1.3c1.4,0.4,2.3,0,3.8,0c0.9,0,3.3,1.3,3.3,1.7c0,0.4-0.9,0.4-0.9,0.9
			c0,0.4,0.5,0.9,0.9,1.3c0.5,0.4-0.5,0.9,0.5,1.3c0.5,0.4,1.9,0,2.8,0.4c0.5,0,1.4,0.9,1.9,0.9c0.9,0.4,1.9,0.9,2.8,0.9
			c0.5,0,5.2,1.7,5.2,1.7l0,0l0,0c-2.3,0-1.9-0.4-3.3-0.9c-0.9-0.4-3.3-0.4-4.2-0.9c-3.8,0.9,3.3,2.2,4.2,2.2c2.3,0.4,5.2,0.9,8,1.3
			c1.4-1.3-1.4-2.2-3.3-2.6c-1.9-0.9-3.8-1.3-5.6-2.2c-1.4-0.9-3.3-1.7-3.8-2.6c-0.5-0.4,0-0.9-0.9-1.3c-0.9-0.4-1.9-0.4-1.9-1.3
			c-2.3-0.4-2.3-1.7-4.2-2.2c-1.4-0.4-4.2-0.9-6.1-1.3C1016.5,114.6,1012.3,114.2,1009,113.7L1009,113.7z M1058.2,138.3
			c0-1.3-2.3-1.7-1.9,0.4c-2.3,1.7,0.9,3.9,1.9,1.3c1.4-0.4,2.8,2.2,4.7,0.4c1.4,1.3,3.3-0.9,4.7,0.4c0.5-2.6-2.8-3-3.8-0.9
			c-2.3,0.9-2.8-2.2-4.7-1.3c0-0.4,0-0.9-0.5,0C1058.7,138.3,1058.2,139.6,1058.2,138.3C1058.2,138.7,1058.2,140,1058.2,138.3z
			 M1047.5,140.5c0,0.9,0,1.7-0.5,1.3c2.3,1.3,2.8-1.7,4.7,0c0-0.9-1.4-0.9-2.8-1.3c-0.5-0.4-0.9,1.7-0.9,0
			C1047.9,141.3,1047.5,140,1047.5,140.5z M1060.6,143c0.5,0.4,1.4,0,1.9,0.9c0.5-0.9-0.5,1.7,0,1.3c0.9,1.3,3.3,2.2,4.2,1.3
			c1.4,0.4,0.5,0.9,2.3,2.6c1.4,3.4,2.3,0,4.2,0.4c0.9-0.4,2.8,3,4.2,2.6c1.9-1.3-1.4-1.7-1.9-1.7c-0.5-2.2-0.5-2.2-0.9-0.9
			c-0.5-1.3-1.4-0.9-1.9-0.9c-0.9-0.4,0-2.2-0.9-2.2c-0.5,0.9-1.9,0-2.8-1.7c-0.9,0-1.4-5.6-2.8-1.3c-1.4-3.9-2.8,0.9-4.2-0.9
			c0-3,0.5,0,0.5,0C1062.9,140,1060.6,145.2,1060.6,143z M1048.4,137.4c0.5,2.2-0.5-2.6-1.4,0.9c-0.9,1.3,8.9,0.9,3.3-0.4
			C1050.3,137,1048.4,134.8,1048.4,137.4z M1046.5,142.6c1.9,3.4,2.3,0.4,5.2,1.3c0.5,0.9,0.5-1.3,0.9-0.4c-0.9-1.3-2.8-2.6-4.2-0.9
			C1047.9,146.1,1046.5,143,1046.5,142.6z M1074.7,145.6c0.5,2.6,5.2,0.9,3.8,3.4c1.4,0.9,3.8,0,3.8,2.6c-0.9,0.9-1.9,1.3-2.3-0.4
			c0.5-2.2,0.9-0.4,0.5,1.3c1.9-0.9,3.8,0.4,4.7,0.9c0.5-1.7,1.4,6,1.4,2.6c-1.4,3-2.3,2.6-3.8,0.4c-0.9,3.4-1.9-4.7-2.8-3
			c-1.4,0-4.2-2.2-6.1-1.3c-0.9-2.2-2.3-2.2-3.3,0c-1.4-2.2-1.4-1.3-2.3-1.3c-1.4-1.3-3.8-1.7-5.6-1.7c-1.4-0.9,0.5,3.4,1.4,2.6
			c1.9,1.3,3.3,1.7,4.7,2.6c-1.4-0.4-2.3-2.6-3.8-0.9c0-0.9-5.6,0.4-2.3,0.4c0.9,0,2.3,3.4,2.3,1.7c0,0.4,1.4,0.4,2.8,3.4
			c1.4,0,3.3-0.9,2.3-2.2c-0.5-1.3-2.3-2.6-3.3-2.2c1.4,0.4,2.8,0.4,3.8,0c0.9-1.7,1.4-0.4,1.9,1.7c0.9-0.4,2.3-0.9,3.3,1.3
			c0.9-0.4,1.4,0.9,2.3,1.3c0.9,2.6,2.8-0.9,4.2-0.4c1.4,0.4,2.8-2.2,3.8,0.9c1.4,1.7,4.2,1.7,4.7,3.4c-2.3,0.9-2.8-0.4-4.2-1.3
			c-1.4,0.4-5.6,2.2-7,0.9c-0.5,1.7,0.5,1.7,0.9,2.6c1.4,1.7,3.8,0,4.7,1.3c-2.3-0.4-3.8-0.4-5.2-0.9c-1.4-1.3-0.9-0.9-3.8-1.3
			c-0.5,0.9-0.9,1.3-0.9,1.7c0.5,0,1.9,0.4,2.8,1.3c1.4,2.6,2.3,2.6,2.3,4.3c1.4,0.9,0.5,0.4-0.5,1.3c-1.4-0.4-2.8-1.7-4.2-2.2
			c-1.4-0.4-3.3-0.9-5.6-1.3c0,1.3,0.9,2.2,0.9,3.9c0,0.9-0.9,2.6,1.4,2.6c0.5,0.9,0.9,2.2,0.5,3c0.5,0,1.9,0,2.3,0
			c0.9,0.4,0.5,0.9,0.9,1.3c0.9,0.4,1.4,0.4,2.3,0.9c1.9,0.9,2.3,1.7,0.5,2.6c-2.8,1.7-8,2.6-8.4,5.2c3.8,0,6.1-1.7,8.4-2.6
			c2.3-1.3,5.2-3,3.8-4.7c-1.4-1.3-3.3-2.6-4.7-4.3c-0.5-0.4-0.9-2.2,0-2.6c0.9-0.9,3.8,0,5.6,0c1.4,0,3.3,0,3.3-2.6
			c0-2.6-2.3-0.4-1.9-3.9c-0.5-0.9-0.9,0.9-0.9-0.4c0.9-0.9,1.4-0.9,2.8-0.4c1.4,0.4,0,0,2.3-0.9c1.4,0.4,4.7-0.9,5.6,1.3
			c0,0.4,0.5-0.4,0-0.4c1.4-0.9,1.4,0,2.8-0.4c0.9,0.9,2.3,1.3,3.8,0c3.3,0,1.4-1.7-0.5-2.2c-2.3-1.7-3.8-0.4-3.8-2.2
			s0.5-1.3,0.5-1.7c0-1.3-1.4,0-0.5-1.3c-0.9,1.3-2.8-0.9-4.2-1.7c-1.4-0.9-2.8-0.9-2.8-2.2c0,1.3,0-3,0.9-2.6
			c0.5-1.3-0.9-1.7,0.5-0.9c0.9-0.4,2.3,1.7,3.3,0c-0.5-1.7-0.5,0.9-0.9,0c1.4,1.3,3.3,3.9,4.7,0.4c1.9-2.2,4.2,2.2,2.8,2.2
			c2.3-0.4-0.5,2.6-2.3,1.3c-0.9,2.2-1.9,0.4-1.9,0.9c0,1.3,1.4,0.9,1.4,1.7c1.4,0.4,4.7-1.3,6.1,2.2c0,1.3,0.5-0.9,0.9,0
			c0,0.9,0,0.9,0,0c0.5,0,0-0.9,0-1.7c0.9,1.3,2.3,1.7,3.3,0c0-1.7-5.6,0.4-7-1.7c0.9-0.4,2.3-0.4,3.3-0.4c0-1.3,1.4,0,1.4-1.3
			c0,0-1.4-1.7-2.3-1.7c-0.9-0.4-0.9-2.2-1.9-1.7c-1.4-1.7-2.8,0-3.8-1.3c0.9-4.3-0.5,0.4-1.9-1.7c-1.4,2.6-3.8,0.9-4.2-0.9
			c-1.4-0.9-3.8-3.9-5.2-0.4c-1.9-0.9-3.3,4.3-5.2,0c0-0.4-0.5,0.4-0.5-0.4c0,0.4-0.5,0-0.5-0.9c1.9,0.9,2.8-2.6,4.7,0
			c0.5,0.4-1.4-2.2-3.8-1.7c-2.3,0.9-4.7-0.9-5.6-0.4c0-0.9,0.5,0.4,0.9,0.4C1076.1,143.5,1074.7,144.8,1074.7,145.6z M1044.2,165.5
			C1044.2,165.5,1044.6,165.5,1044.2,165.5c-0.5,0-1.4-0.4-2.3-0.4c-0.9,0.4,1.4,2.6,2.3,3c1.9,0.9,4.2,0.9,5.6,1.7
			c0.5,0.4,0.9,1.3,1.9,1.7c0.9,0.4,2.3,1.3,2.3,2.2s-1.9,2.2-1.4,3.4l-0.5-0.4c-1.4,1.3,3.8,3.4,5.6,3c0-1.3-2.8-2.2-2.8-3.4
			c2.8,0.4,2.3,3,5.6,3c0-0.9-0.5-1.7-1.4-2.6c-0.5-0.4-2.3-1.3-2.8-1.7c2.3,0,3.3,1.3,4.7,2.2c1.9,1.3,3.8,1.7,5.6,3
			c0.9,0.4,3.3,2.2,4.2,1.3c1.4-0.9-0.9-1.3-1.9-2.2c-1.4-0.9-1.4-1.3-2.8-2.2c-1.4-0.9-3.3-0.9-4.7-1.7c-1.9-0.9-2.3-1.3-2.8-2.2
			c-0.5-0.4,0-0.4-0.5-0.9c-0.5-0.4-1.4-0.4-1.9-0.9c-0.5-0.4-0.9-0.4-0.5-1.3c0.9,0,1.9,0,2.8,0c-0.5,0-0.9-0.4-0.9-0.4
			c0.9,0,1.9,0.4,2.8,0.4c0.9-0.9,4.7-0.4,4.2-1.3c-2.8-1.7-5.6-1.3-8.9-1.3c-2.3,0-8.4-0.9-9.4-1.7L1044.2,165.5z M1034.8,164.2
			c-0.5-0.4-1.4-0.4-1.9-0.4v0.4c-0.5,0-0.9,0-0.9,0c0.9,0.4,2.3,0.4,2.3,1.3c-0.9,0-2.3,0-2.8,0.9c1.4,0.4,1.4,0.9,2.8,1.3
			c0,0,1.4,0,1.9,0.4c0.5,0,0.9,0.4,1.4,0.9c-0.5,0-1.4,0-2.3,0c-0.5,0.9,1.4,3.9,4.2,3.4l0,0l0,0c0.9,0.4,1.4,0,2.3,0.4
			c0.5-0.4,0.9-0.4,0.9-0.9c3.3-0.4,2.3,3,6.6,3c-0.5-2.2-4.2-3.9-6.1-5.2c-0.9-0.9-2.3-1.3-3.8-1.7s-2.3-1.3-3.8-2.2L1034.8,164.2z
			 M1050.7,148.2c0,1.3-1.4,3-2.3,1.3c0.9,1.3,5.2,0.9,6.6,0.4c2.8-2.6-2.3-0.9-2.8-1.7C1052.1,147.8,1050.7,149.9,1050.7,148.2z
			 M1084,213.3c-0.5,0-0.9,0-1.4-0.4c-1.4,0.4-1.9,0.9-1.4,1.3c1.4,0,6.6,0.4,6.1,1.3c1.4,0.9,2.3,1.7,4.2,2.2
			c-1.4,0-4.2-0.4-5.6-0.9c0.5,0.4,0.5,0.9,0.9,0.9c-0.9-0.4-2.3-0.4-3.8-0.9v-0.4c-1.4-0.4-2.8,0-1.9,0.9c0.9,0.4,3.3,0.4,4.7,0.4
			c2.8,0.4,6.1,0.9,8.9,1.3c-0.5,0.9,0.9,1.3,1.4,1.7c-1.4,0.4-2.3,0-3.3-0.4c-0.5,0.4-0.9,0.9-1.4,1.3c0.9,0.4,1.9,0.4,2.8,0.4
			c-0.5,0-1.4,0-2.3,0c-0.5,0.4-0.5,0.4,0,0.9c0.9,0,1.9,0,2.3,0.4c-0.5,0-0.9,0.4-0.9,0.4c0.5,0.4,0,0.4,0.9,0.9
			c-1.9,0.4-0.9,1.3-2.3,1.7h0.5c-0.9,0-1.4,0.9-1.4,1.3c-0.9,0-2.3-0.4-3.3-0.4c0-1.7,3.8,0,3.3-2.2c0-1.3-4.2-2.6-3.3-0.4
			c0.9,0,0.9,0.4,1.4,0.4c-0.5,0-0.9,0.4-1.4,0.4c-0.9-1.3-5.6-1.3-7-2.2c-0.9-0.4-0.9-0.9-2.3-1.3c-0.9-0.4-1.9-0.4-2.3-1.3
			c-1.9-0.4-5.2,0.4-2.8,1.3c0,0-0.5,0.4-0.9,0.9c-0.5,0-0.9,0-1.4,0s-0.9,0.4-0.9,0.9c0.9,0.4,1.9,0.4,3.3,0.9c0,0.9,0,1.3,0,1.7
			c2.3,0.9,3.3,0.9,5.6,0.9c3.8,0,1.9,1.3,0,0.9c0,0.9,2.8,1.7,4.7,1.7c-1.9,0.4-1.4,1.3,0.5,1.7s3.8-0.4,3.3,1.3
			c1.4,0,2.8,0,3.8-0.4c0.9,1.7,7,2.2,10.3,1.7c-0.5-1.7-4.7-2.2-7-3.4c-0.5-0.4-2.3-1.3-1.9-1.7c0.9-0.9,3.3,0,4.2,0
			c0.5-0.4,0.5-0.9,0-1.3c2.8-0.4,2.8,1.3,3.8,2.2c0.9,1.3,2.8,1.7,4.2,3c0.9,0.9,1.4,1.7,4.2,2.2c1.4,0,3.8-0.9,3.8,0.9
			c-0.5,0-8.9,0-7.5,1.3c1.4,0.9,7-0.4,8.9-0.4c0,1.3,0.5,1.7,2.3,2.6c1.4,0.4,4.7,1.3,5.2,2.2c-3.3,0.9-0.9,3,1.4,3.9
			c-0.9,0.4-0.5,2.2,0.9,2.6l0,0c0,0,0,0.4,0.5,0.4c0.9,0,1.4,0.4,2.3,0.4c0.5,0,0.5,0.4,0.5,0.4c0.5,0,0.9-0.4,1.4-0.4
			c0,0.4,0,0.4,0.5,0.9c0,0,0,0,0.5,0c0,0.4,0.9,1.7,0.9,2.2c-0.5,0.9-2.8,0.4-4.2,0.4c0,0.4-0.5,0.4-0.5,0.9
			c-1.4-0.4-6.6,0.4-7,1.3c-0.5,0.4,0,0.4,0.5,0.9c1.4,0.9,0.9,0,2.3,0c0.9,0,2.8,0.4,4.2,0c0,1.3-2.8,0.9-3.3,2.2
			c2.3,0,3.8,0.4,5.6,0c2.3-0.4,1.4-1.7,3.3-2.2c0.9-0.4,3.8-0.9,4.7,0c0.9,0.9,2.3,2.2,3.3,2.2c1.4-0.4,2.3-0.4,3.8-0.9
			c0.9-0.4,2.3-0.4,3.3-0.9c1.4-0.4,0.9-0.9,3.3-0.9c0.9,0,2.8,0.4,3.3,0.9c1.9,0.9-0.9,0.9-0.5,1.7c0.9,1.3,5.6-0.9,7-0.9
			c0,0.4,0.5,0.4,0.5,0.9c0.9,0,2.3,0.4,3.3,0.4c1.4,0,2.3-0.4,3.8-0.9c1.9,0,1.9,0,3.3,0.4c0.9,0.4,2.3,1.3,3.8,0.9c0,0,0,0,0-0.4
			c0.9,0,1.4,0,1.9-0.4c3.3,0.9,15.5,0,15.5,0s0-5.6,0-7.8c-0.9,0-8-0.4-8.9-0.9c-0.9-0.4-2.3-0.4-3.8-0.4c-1.9-0.4-3.8-0.9-5.6-1.3
			c-3.8-0.9-8.4-2.2-12.7-3.4c-4.2-1.3-8-2.6-11.7-4.3c-1.9-0.4-3.3-1.3-4.7-1.7c-1.9-0.4-3.3-0.4-5.6-0.9c-3.3-0.4-7-1.3-10.3-2.6
			c-1.4-0.4-2.8-1.3-4.2-1.7c-1.9-0.4-3.8-0.4-6.1-0.9c-1.9-0.4-3.8-1.3-5.2-1.7c-1.4-0.4-2.3-1.7-3.8-2.2c-1.9-0.4-10.3,0-9.9-1.7
			c1.4,0,4.7,0.4,5.2-0.4c0.5-1.3-2.8-1.3-3.8-1.7c-0.9-0.4-0.5-1.3-0.9-2.2c0-0.9,0-1.3-1.9-2.2c-2.3-1.3-4.2-2.6-6.1-4.3
			c-0.9-0.9-1.4-1.3-3.8-1.7c-1.4-0.4-4.7-0.9-5.6-0.4c0.5,0,0,0,0.5,0L1084,213.3z M1043.7,185.7c-2.3,0.4-0.5,0.9,0.9,1.3v0.4
			c1.9,0.4,2.3,0.9,3.3,1.7c0.9,0.9,2.3,1.3,3.3,2.2c-2.3,0-4.2-0.9-6.6-1.3c-1.9-0.4-3.3-0.4-4.7-1.7c-3.3,0.9-7-2.6-10.3-1.3
			c2.3,0.4,3.3,1.3,4.7,2.2c0,0.4,0.5,0.9,1.4,1.3c1.4-0.9,11.3,0.4,11.3,1.7c0.9,0,1.9,0,2.8,0.4c0.9,0,1.4,0.4,2.3,0.4
			c1.4,0.4,2.8,0.9,4.2,0.9c0.5-1.3-3.3-4.3-4.2-5.2c-2.3-1.7-7.5-3-7-3L1043.7,185.7z M1062.9,192.6c1.9,0.9,3.8,1.3,5.6,1.7
			c-0.5,0.4-0.5,0.9-0.9,0.9c0.9,0,0.9,0.4,1.9,0.4c-1.4,0.4-4.2,0.4-4.2,0.9c0,0.9,2.3,1.7,3.8,1.7c-1.4,1.3,3.3,0.9,4.7,0.9
			c0.5-0.9-1.4-1.7-2.8-2.2c-0.9-1.7,4.2-2.2-0.9-3.9c-1.9-0.4-4.7-1.3-6.6-1.3L1062.9,192.6z M1012.3,189.2c0.9,0,2.3,0.4,3.3,0.9
			s0.9,1.3,1.9,1.7c1.4,0.4,1.9,0,2.8,0c1.4,0,1.9,0.4,3.3,0.9c1.9,0.4,3.8,0.9,6.1,1.3c2.3,0.9,3.8,1.3,6.1,2.2
			c1.9-2.2-6.6-2.6-8.9-3.4c-0.9-0.4-1.4-1.3-2.8-2.2c-1.9-0.4-3.3-0.4-5.2-0.9c0-1.3-2.8-1.3-3.8-1.3L1012.3,189.2z M1016.5,198.7
			c1.9,0.4,4.2,2.6,1.4,3c0.9,1.7,5.2,1.3,5.6,0c0.5-1.7-3.3-2.6-5.6-3.4c0.5,0,0.5,0,0.9,0L1016.5,198.7z M1009.9,203.8
			c2.8,0.4,5.2,1.3,6.6,2.6c0.9,0.9,1.4,2.2,4.2,1.7c1.4,0.4,0.9,1.3,1.4,1.7c0.5,0.9,0.9,0.9,1.9,1.3c0.9,0.4,3.3,3,5.2,2.2
			c-1.9-1.3-3.3-1.3-3.3-2.6c1.4,0.4,2.8,0.9,4.2,1.3c0.5-2.2-6.6-2.2-5.6-4.3c3.8,0-2.8-3-4.2-3.4c-1.9-0.4-5.6-0.4-7-0.9
			L1009.9,203.8z M1022.6,218.1c0.9-0.4,6.1,1.7,6.1,3c1.4,0.4,3.8,1.7,5.2,2.2c1.4,0.4,4.7,0.4,5.2,1.7c-0.9,0-1.4,0-2.3,0
			c0.5,0.4,1.9,0.4,2.3,0.9c-0.9,0-1.9,0-2.8,0c-1.4,1.3,3.8,2.2,5.2,3c1.4-0.4,0.9-0.9,2.8-1.3c1.4-0.4,3.3,0.4,3.8,0.9
			c0.5,0.4,0,1.3,0.9,2.2c0.9,0.4,2.3,1.3,3.8,1.3c0.5-1.3-1.9-3.4-3.8-3.9c-1.4-0.4-5.2-0.4-6.6-0.4c-0.5-0.9,0.5-2.2,0.9-3
			c-1.4-0.4-3.3-0.9-4.7-1.7s-1.9-1.7-3.8-2.2c-1.4-0.4-2.8-1.3-5.2-1.7c-1.9,0-3.8,0-4.7-0.9H1022.6z M1018.4,166.3
			c0-0.4,0-0.4,0-0.4c-2.3,0-4.7,0.4-6.6,1.3c-0.9,0.4-1.9,0.9-2.8,0.9c-1.4,0-2.3-0.9-3.3,0.4c0.9,0.9,3.8,0.9,5.2,1.3
			c-1.4,0-2.8-0.4-4.2-0.4c0,0.4-0.5,0.9-0.9,1.3c1.9,0,4.2,0,6.1,0.9c0,0.4,0,0.4,0,0.9c-1.4,0-2.3,0.4-3.8,0.4
			c1.4,0.9,5.2,0.4,5.6,2.2c-0.9,0-1.9,0-2.3,0.4c2.3,0.9,7.5,0.4,8,3c-3.3,0-6.6-1.3-9.9-1.7c-1.9-0.4-3.8-0.9-5.6-0.9
			s-5.2-0.9-7-0.4c-1.4,0-2.8,0.4-0.9,1.7c0.9,0.4,4.2,0.4,5.2,0.4c3.8,0.4,8.4,1.3,11.3,3.4c-3.3,2.6-11.7,1.3-15.5,0.9
			c-3.3-0.4-6.1-0.9-9.4-1.7c-1.9-0.4-3.8-0.9-5.6-0.9c-1.4-0.4-2.3-0.4-3.3,0c0.9,1.3-1.4,2.2,0,3s3.8,1.3,5.6,0.9
			c0.9,2.6,4.7,0.4,6.6,0.4v0.4c1.9,0.9,3.3,2.2,5.2,2.2c1.9,0,3.3-0.4,5.2,0c1.9,0.4,3.3,0,5.2,0c1.9,0.4,3.8,0.9,5.6,0.9
			s4.2,0,6.1,0c2.3-0.4,2.3-0.9,4.7-0.4c1.9,0.4,9.9,0.9,10.3-1.3c2.3-0.9,4.2,0.4,6.1,0.9c0-1.7,5.2-0.4,2.8-3.4
			c-0.9-1.3-5.2-0.4-5.2-2.2c0.5,0,0.9,0,1.4,0c-0.5-2.6-3.3-0.9-4.7-2.2c0.5,0,0.5-0.4,0.9-0.9c-1.4-0.4-2.8-0.9-4.2-0.9
			c1.4-1.3,2.8,0,4.7-0.4v-0.4c-0.9-0.4-2.3-0.4-3.3-0.9c0-1.7,2.8-0.9,2.3-2.2c-0.5-0.9-3.3-0.9-0.5-2.2c-0.9-0.9-6.6-4.7-5.2-1.3
			c0.5,0.9,2.8,0.9,1.4,2.2c-0.5,0.4-2.8,0-3.8,0v-0.4c-0.9,0-2.3-0.4-2.8-1.3c0.5,0,0.9-0.4,1.4-0.4c-0.9-0.9-2.3-1.3-2.8,0
			c-2.3,0,0-2.6-2.8-2.2L1018.4,166.3z M1089.7,194.8c-0.5,0-0.5,0-0.9,0c-0.9,1.3,1.4,2.2,3.8,2.2c2.8-0.4,0.9-2.2,0.5-1.3
			L1089.7,194.8z M1109.8,200.4c-0.5,0-1.4,0-1.9,0c-0.9,1.3,2.3,2.2,4.7,1.7c2.3-0.4,1.9-1.7-0.5-1.7c0,0.4,0.5,0.4,0.9,0.4
			L1109.8,200.4z M1116.9,209c1.4,0.4,3.3,0,5.2,0c0-0.4,0-0.9,0-0.9c-1.9-0.4-2.8-0.4-5.2-0.4C1116.4,207.3,1115,208.6,1116.9,209z
			 M1108.4,210.3c3.3,0,1.9-1.7-0.9-1.7C1108,208.6,1105.2,209.9,1108.4,210.3z M912.8,193.5c1.4,0.9,3.3,1.3,5.2,1.3
			c0.9,0,0.9,0,1.9,0.4c0.5,0.4,1.9,0.9,2.3,0.4v-0.4l0,0c0.9,0,1.4,0.4,2.3,0.9c0.9,0.4,2.3,0.9,3.3,0.9c0.9,0,2.3,0,3.3,0.4
			c0.9,0.4,1.9,0.9,2.8,1.3v-0.4c0.5,0,0.5,0,0.9,0c0.5,0,0.9,0,1.4-0.4c0.5-0.4,0.5-0.4,0.9-0.9c0.5,0,0.9,0.4,1.4,0.4
			s0.9,0,1.4-0.4c0.9,0,1.9-0.4,2.8-0.4c1.4,0,1.9,0,2.8,0.4c1.9,0.4,4.7,0,6.6,0.4c1.9,0.4,3.8,0.9,5.6,1.3
			c1.4,0.4,1.9-0.4,3.3-0.4c0.9,0,1.9,0.4,2.8,0.9c1.9,0.9,4.7,0.9,6.6,0.4c0.9,0,2.3,0,3.3,0.4c0.9,0.4,2.3,0.9,3.3,1.7
			c0.5,0.9,0.5,1.7,1.4,2.2c0.9,0.4,1.9,0.9,2.8,0.9c0.5-0.4,0.9-0.4,1.4-0.4c1.4,0,2.3,0.4,2.8,1.3c0.5,0.4,0,0.9,0.5,1.3
			c0.5,0.4,0.9,0.4,1.4,0.9c2.3,0.9,4.7,2.6,6.6,3.9c2.3,1.7,4.7,2.6,6.6,4.7c1.4,1.7,3.3,3.9,5.6,4.3c0-1.3,1.4-0.4,1.4-1.7
			c0-0.4-0.5-0.9-0.9-0.9c0-0.4,0-0.9,0-1.3c-0.9-2.6-3.3-0.9-4.2-2.6c0.9-0.4,2.8-0.9,3.8-0.9c0.5-0.9,0.5-1.7,0.9-2.6l0.9-0.4
			c0.5,0,0.9-0.4,1.4-0.4c0.9,0,1.9,0.9,2.8,0.9c0.9,0,1.9,0,2.8-0.4c0.5-1.7,3.3,0.9,4.2,1.3c0.9,0.4,1.9,0.4,2.8,0.9
			c0.9,0.4,1.4,0.9,2.3,1.3c1.4,0.9,3.3,0.9,4.7,1.3c1.4,0.9,3.3,2.2,5.2,1.7c0-2.2-3.8-1.3-4.2-2.6c-0.5,0-1.4-0.4-1.9-0.4
			c-0.5,0-0.5-0.9-0.5-0.9c-0.5-0.4-0.5,0-0.9,0c-1.4-0.4-2.8-0.4-4.2-1.3c0.5,0.4,0.5,0,0.9,0.4c-0.9-1.7-3.3-0.4-4.7-1.3v-0.4
			c0,0,0.5,0,0.9,0c-1.4-1.7-4.7-2.2-6.6-3.4c-1.4-0.4-1.9-1.7-3.3-2.6c-0.9-0.4-2.3-1.3-3.8-1.7c0.5,0,0.5,0,0.9,0
			c-0.5-0.9-1.4-1.3-2.3-1.3v-0.4c-1.4-1.3-3.8-1.3-5.6-1.7c-1.4-0.4-4.7-0.9-5.6-2.2l0.5-0.4c-0.9-0.9-2.8-0.4-4.2-0.4
			c-0.9,0-1.4-0.4-2.3-0.9c-0.9,0-1.4,0-2.3-0.4c0.9-0.4,2.3-0.4,3.3-0.9c1.4-0.4,1.9-1.3,3.3-1.3c0.9,0,1.4,0.4,1.9,0.9
			c0.5,0,1.4-0.4,1.9-0.4c0.5,0,1.4,0.4,1.9,0.4c0.5,0,0.9-0.9,0.9-0.9s0,0-0.5,0c0-1.3,0.9-1.3-0.9-1.7c-0.9,0-2.3,0-3.8,0
			s-2.3,0-3.3,0c-0.9,0-1.9-0.4-2.8-0.4c-2.3-0.4-4.2,0.4-6.1,0.9c-2.3,0.4-4.7,0.9-6.6,0.9c-2.3,0-5.2,0-7.5,0c-0.9,0-2.3,0-3.3,0
			c-1.4,0-3.3-0.9-4.7,0c0.5,0.9,1.9,0.4,1.9,1.7c-1.4,0-2.3,0-3.3-0.4c-0.9-0.4-1.9-0.9-2.8-0.9c-0.9,0-1.9,0.4-3.3,0.4
			c-1.4,0-2.8,0-3.8-0.4c0-0.4,0-0.4,0-0.4c-2.8,0-5.6-0.4-8-0.9c-2.3-0.4-4.2,0.4-6.6,0.4c-1.4,0-2.3,0-3.3,0c-0.5,0-1.4,0-1.9,0
			c-0.5,0-0.9,0.4-1.4,0.4c-2.3,0.4-4.7,0-7,0c-0.9,0-1.9,0.4-2.8,0.4c-0.5,0-2.3-0.4-2.8,0.4h-0.9V193.5z"/>
		
			<linearGradient id="SVGID_8_" gradientUnits="userSpaceOnUse" x1="113.4303" y1="514.2031" x2="534.4476" y2="514.2031" gradientTransform="matrix(1.6193 0.4593 0.1711 -1.1555 -212.8461 603.1937)">
			<stop  offset="0" style="stop-color:#BCD8F9"/>
			<stop  offset="0.5" style="stop-color:#9DC7F1"/>
			<stop  offset="1" style="stop-color:#68B0E7"/>
		</linearGradient>
		<path class="st8" d="M51.1,168.9c0.5,0,1.9,0.4,2.8,0c0.9-0.4,2.3-1.7,0.9-2.2c-0.9,0-2.3,0.9-3.3,0.9c-0.5,0-0.9-0.4-1.4,0
			c-0.5,0.4-0.9,1.3-0.5,1.3H51.1z M81.6,161.6C81.6,161.6,81.2,161.6,81.6,161.6c0.9-0.9,0.5-1.7,0.5-3c0-0.4-1.9-3-1.9-0.9
			c0.5,0.4,0.5,1.3,0.9,2.2c0.5,0.9,0.9,0.9,0.5,2.2L81.6,161.6z M89.6,149.5c0,0,0,0.4-0.5,0.4c1.4-1.7,1.9-3.4,0.5-4.7
			c-0.5-0.4-1.4-0.9-1.9-1.3c-0.9-0.4-1.4-0.9-2.3-1.3c-0.9,1.7,1.4,2.6,1.9,3.4c0.5,0.4,0.5,1.3,0.9,2.2
			C88.2,148.6,89.6,149.5,89.6,149.5z M103.7,143.5L103.7,143.5c0,0,1.4-0.4,1.4-1.3c-0.5,0-1.4-0.9-1.9-0.4c-0.5,0.4,0,1.3-0.9,2.2
			L103.7,143.5z M95.2,138.3c-0.5,1.7,0.5-0.9,0.5-0.9c0-1.3-1.4-1.3-1.9-0.4c-0.5,0,0,2.2,0.5,1.7
			C93.8,140.5,94.3,140.5,95.2,138.3z M110.2,137c0.5,0,0-0.4,0.5-3c0.5-3.4,0-2.2-1.9-0.4c1.4-4.7-2.8,4.3-1.9-0.4
			c-0.5-0.4-0.5-1.7-1.4-1.3c0-1.3,1.4-4.7-0.5-1.7c0.9-3.9-1.9-1.7-3.3-2.6c-0.9,1.3-1.9,2.2-0.9,1.3c0,1.3,0.5-1.7-2.3,4.3
			c1.9,1.3,3.8,0.4,6.1,0.9c2.3-3,2.8-1.3,2.8,1.3c0.9-0.4,1.4,1.3,1.9,1.3h-0.5L110.2,137z M62.9,129.2
			C62.9,129.2,62.9,129.7,62.9,129.2c1.4-2.6-2.3-3.9-4.7-4.7c-0.5,0-1.4-0.4-2.3-0.4c-0.9,0.4-0.5,0.9-0.9,1.3
			c-0.9,1.3-3.3-0.4-4.7,0c0,1.3,0.5,2.2,2.3,3c0.9,0.4,1.4,0.4,2.3,0.4c1.9,0,0.5-0.4,0.9-1.3c0.5-1.7,2.8-0.9,3.8-0.4
			c1.4,0.4,1.9,1.7,2.8,2.6L62.9,129.2z M64.3,124.5h-0.5c1.4,0.4,3.3,0.4,4.2-1.3c0.9-0.9,1.9-3,1.4-4.3H69
			c-0.5,0.4-0.9,0.9-1.4,1.3s-0.5,1.3-0.9,1.7c-0.9,1.3-2.3,1.3-3.3,1.3L64.3,124.5z M72.2,124.5h-0.5l0,0c1.9-0.4,3.8,0,6.1-0.9
			c1.9-2.2,2.8-0.9,4.2-1.3c0.9,0,2.8,1.3,4.2-2.2c-0.9-1.3-3.8,0.9-4.7,0.4c-2.8,3.9-5.6,4.7-2.3-1.3c1.4-2.2,1.4-0.4,3.8-2.6
			c0.9,0.9,3.3-1.3,4.2-1.3c0.5,1.3,5.6-1.7,5.6,0c0.9,0-6.6,5.6-4.7,5.2c0.5,2.2,7-4.3,6.6-1.7c1.4-1.7,2.3-3,0,0.9
			c-0.5-0.4,0-2.2-1.9,2.2c0.5,1.7,1.9,0,3.3-0.4c0,3,1.9-0.9,2.3,1.7c0.9,3,5.2,0,7-0.9c2.8-3.9,0.9-1.3,1.9-2.6
			c0,1.3,1.9,1.3,2.3-2.2c-0.9-1.3-2.3-0.4-3.3-0.9c-3.3,2.6-1.9-1.3-2.8-1.3c1.4-4.3-0.9,0-1.4-0.4c0.5-1.7-0.5,0.4,0-0.9
			c-2.3,3-2.3-2.6-5.2,0.9c-0.9,0-1.9,0-2.8,1.3c-1.9,0.9,0.9-3.4,0.9-1.7c0,3.4,6.6-5.2,5.6-2.6c0.5-3-1.4-0.4-2.3-1.3
			c1.9-3,1.4,0.9,2.8-1.7c0.5,0.4,2.3-3,2.3-1.3c1.4-1.3,1.4,0,2.3-1.3c1.4-2.2,0-2.2-0.5-1.7c-1.9,1.7-5.6,6.9-4.2,1.7
			c-2.8,0.4-4.7-0.4-7.5,1.3c-0.5,0,4.2-7.3,1.4-3.9c0-1.7-2.8,2.2-2.8,0.9c-0.9,0.4-0.5-1.3-3.3,2.2c-0.5-0.9-1.4-1.7-3.8,1.3
			c0.5-0.4,0,4.3,2.8,0.9c-0.5-0.9-2.8,4.3-3.3,3.9c-0.9,0.4-2.3,0.4-4.7,2.2c-0.5,1.7-0.9-0.9-2.3,2.6c-1.4,2.2-0.9,2.6-1.9,3
			c0.5-2.6-3.8,2.6-3.8,1.3c-0.9,0.9-1.4,2.2-2.3,3.4L72.2,124.5z M55.4,121.9c0.5,0.4,0.9,0,1.4-0.4c0.5,0,0.9-0.4,1.4-0.4
			c0.9-0.4,1.4-1.3,1.4-2.2c-1.4-0.4-7,2.2-4.7,3.4L55.4,121.9z M60.5,117.2c0.5,0,0.9,0.4,0.9,0.4c0.9,0,4.7,0,5.2-1.7
			c-0.9,0-2.3,0.4-3.3,0.4c-0.5,0-0.9-0.4-1.4-0.4c-0.5,0-0.9,0.9-1.4,0.9V117.2z M53,115c1.4,1.3,10.8-1.7,10.3-3.4
			c-0.9,0-1.9,0-2.3,0c-0.9,0-2.3,0-2.8,0.4c-0.9,0.4-1.4,1.3-2.3,1.7c-0.9,0.4-2.8,0.9-3.8,0.9L53,115z M53,109
			c-0.5,0-0.5,0-0.9-0.4c0.9,0.4,1.9,0.4,2.8,0c0.5-0.4,2.3-1.3,1.9-2.6c-0.5-1.3-4.2,2.2-5.6,1.7L53,109z M60,105.1
			c0.9-0.4,1.9,0,2.8-0.4c0.9-0.4,2.3-0.9,3.3-1.7c1.9-1.3,6.1-3,6.6-6c-1.4-0.4-2.8,0.4-4.2,1.3c-0.9,0.4-3.8,0.4-4.2,0.9
			c-0.5,0.4,0,0.4,0,0.4s0,0.4,0,0.9c-0.5,0.4-0.9,0.9-1.4,1.3c-0.5,0.4-0.9,1.3-1.4,1.7c-0.9,0.4-1.9,0.4-2.8,0.4L60,105.1z
			 M112.1,106c1.4-1.7,1.4,1.3,3.3-0.9c1.4-0.9,4.2-2.2,4.2-2.6c1.9-5.2-5.6,2.6-5.2-0.9c0.5-2.6-3.3,3.9-2.8,2.6
			c-1.4,3-4.2,1.7-3.3-0.9c0-1.3-0.9,3.4-0.9,2.2C106,107.7,109.3,108.1,112.1,106z M99.9,99.9c0,2.2,2.8-2.2,2.3-1.7
			c-0.5,0.9-0.9-0.4-1.4-1.3c-2.3-1.3-3.8,4.7-1.9,3C99,98.6,99.4,100.4,99.9,99.9z M96.6,93.5c0.5,0.4,1.4,1.3,0.5-1.3
			c0.5-2.6-3.8,0.9-3.8-0.4c-0.5,3-1.9,7.3,2.3,2.2C95.2,93.9,96.2,94.3,96.6,93.5z M57.2,97.3L57.2,97.3l0.5,0.4c0,0,0,0.4,0,0.9
			c0.5,0.4,0,0.9,0.9,0.9c0.9,0.4,0.9,0,1.4-0.4s0.9-0.4,1.9-0.9c0.9-0.4,2.3-1.3,3.3-1.7c0.9-0.4,3.3-0.9,2.8-2.2
			c-0.5,0-0.9,0-1.4,0c0.9-0.9,3.8-3.9,0.9-3.9c-1.4,0-0.9,1.3-1.9,1.7c-0.5,0.4-2.3,0.4-2.8,0c-1.4,0.9,0,1.3,0.5,2.2
			c-0.9-0.4-1.9,1.3-2.8,1.7C59.6,97.8,58.6,96.9,57.2,97.3L57.2,97.3z M148.2,125.4L148.2,125.4c1.4,0,2.3-1.7,1.4-2.2
			s-1.9,0.4-2.8,0c-0.9,0.4-0.9,1.3,0,1.7L148.2,125.4z M137.4,83.5c-0.5,0-0.5-0.4-0.9-0.4c1.4-0.9,4.7,1.3,5.6-1.3
			c-0.9,0-8-0.4-5.6,1.3L137.4,83.5z M147.8,84c0-0.4,0.9-0.4,1.9,0c2.3-3.4-6.1-2.2-3.3,0.4L147.8,84z M152.9,81.8
			C152.9,81.4,153.4,81.4,152.9,81.8c1.4-0.9,2.3-0.4,3.8-0.9c1.4-0.4,2.3-0.9,3.8-0.9c3.3-0.4,5.2,0.4,5.2-3.4
			c-0.9-0.9-4.2,0.4-5.6,1.3c-1.4-1.3-2.3,0.9-3.3,1.3c-1.4,0.9-3.3,1.3-4.7,1.3L152.9,81.8z M159,117.2c2.3,0.4,5.6,0.9,7.5-2.2
			c1.4,0,3.8,0.4,5.2,0c1.9-0.4,2.8-2.6,4.7-2.6c0.5-1.3,1.4-0.9,2.3-1.3c0.9-0.4,0.9-1.3,1.9-1.7c1.4-1.3,2.8-2.2,4.7-3
			c1.9-0.9,3.8-1.7,5.6-2.2s4.7-1.3,4.2-3.4c-2.3,0-4.2,0-6.6,0c-0.9,0-7,0.4-4.7,2.6c0.9-0.4,2.3,0,3.3,0c1.4,0,1.4-0.9,2.8,0
			c0,0,0,0,0,0.4l0,0c0,0-4.2,0.9-4.7,1.3c-0.9,0.4-1.9,0.4-2.8,0.9c-0.5,0-1.9,0.9-2.3,0.9s-1.4-0.4-2.3-0.4
			c-1.4,0.4-0.5,0.9-1.4,1.7c-0.5,0.4-1.4,1.3-1.4,2.2c-0.5,0.4,0.5,0.9,0,1.7c-0.5,0.4-2.8,1.7-3.8,1.7c-0.9,0-1.4-1.3-2.8-0.9
			c-0.9,0.4-0.5,0.9-0.9,1.7c-0.9,0.9-2.8,1.3-4.7,2.2C161.8,117.2,160.9,117.2,159,117.2L159,117.2z M212.5,92.2
			C213.9,89.6,213,91.7,212.5,92.2C212,93.5,212.5,93.5,212.5,92.2c0.9,2.2,3.8-2.6,4.7-0.4c-0.5,3,2.3,3.4,3.8-0.4
			c-2.3,1.7-1.9-2.2-3.8-0.9c0-3-2.8,0.9-3.8-0.4c1.4-4.7-2.3-2.6-2.3,1.3C209.7,93.5,212,93.5,212.5,92.2
			C213.9,89.1,213,91.3,212.5,92.2z M206.9,86.1c1.4-2.2,0,1.3,0.5,0.4c1.4-0.4,2.3,0,2.8-1.3c-2.3,2.2-0.9-2.6-3.3-0.9
			C207.8,83.1,207.3,84,206.9,86.1C206.4,86.6,207.3,84.8,206.9,86.1z M219.5,86.1C219.1,85.7,216.7,90.4,219.5,86.1
			c1.9-2.2-0.5,5.2,3.3-0.4c-2.3,7.3,2.3-1.7,2.8-1.3c1.9-2.2,3.3-3,3.3-1.7c0.5,0.4,0.9-2.6,2.3-3c0,0.4,0.5,1.7,1.9-0.4
			c-0.5,1.7-0.5,1.7,1.4-1.3c0,0.4,2.8,0.4,2.3-2.2c-0.9-0.9-4.7,3.9-5.2,3c-1.4,0.4,0.5-5.6-3.3-0.4c-2.8,2.2-2.3,3-3.8,3.4
			c0-1.7-2.3-0.9-4.2,0.9c0-0.4-1.4,3.9-0.9,2.2c-0.9,0.9-1.4,0-1.9,0.4C219.1,81.8,217.2,90.4,219.5,86.1z M206.4,90.9
			c5.2-0.9-1.9-4.3-1.9-1.7c-1.9,5.6,2.3-1.7,0.5,1.3C203.1,94.8,205.9,92.2,206.4,90.9z M208.3,82.7c0,3,2.3,1.3,3.8,0
			c-0.5,1.3,0.9-2.6,0-1.3c-2.8,0.9-0.5-4.3-4.7,0.9C207.8,81.4,211.1,76.6,208.3,82.7z M230.8,85.7c0,0-0.9,1.3-0.5,0
			c0.5,0.9,3.8-1.7,4.2,0.4c0.9,1.7,4.2-2.2,3.8-1.7c-3.3,3.9-1.4-2.2-3.3-1.3c0.5-1.3,0.9-1.7,0.9-1.3c0.5-0.9,0,0.4,0.5-0.4
			c4.2-6,1.9,2.2,3.8,1.3c-1.4,5.6,2.3,1.7,4.2,0.9c1.9-2.6,4.7-4.7,3.8-0.4c2.8-3,0.5,4.3,2.8-2.6c1.4-1.3,1.4,1.3,3.3-0.9
			c0.5,0.9,1.9-1.7,2.8-2.2c0.5,0.4,2.8-2.2,2.8-2.2c1.4-2.6-0.9-0.4,0-2.6c-0.5-0.4-1.9-0.4-1.9-1.7c2.3-2.6,5.2,2.2,6.6-0.4
			c0.9-3.4-0.5-3.4-2.3-1.3c0.5-0.9,1.9-2.6,1.4-2.6c0.5-1.3,0.5-1.3-0.5,0c-0.9,1.3,0.5-2.2-0.5-0.4c-3.3,4.7-4.2,0.9-5.6,1.3
			c-0.9,1.7-1.4,0.4-2.3,2.6c-0.5,1.3,1.4-1.3,0.5,2.2c2.3-1.7,2.3,3.9,0.9,2.6c0.9,0.4-4.2,6.9-3.8,3c1.4-5.6-1.4-2.2-3.8-0.4
			c0.9-1.3-0.9,3,0.9,0c0.5-3-1.9,0.4-2.3-0.9c-1.9,1.3-0.5,0.9,0-1.3c-0.9,0.4,1.9-6,1.4-4.3c1.4-2.2,1.9-1.3,3.8-2.6
			c1.9-1.3,4.2-3.9,4.2-1.7c0.5-3,0.5-0.4,1.4-2.2c0.9-1.3,0-0.9,1.4-3c1.4-3,1.4-0.4,4.2-2.6c1.9-0.4,4.2-2.6,1.9-3.4
			c0-1.7-1.4-1.7-2.8-0.9c-0.5-0.9-0.9,0-1.4-1.7c0-0.4,0.5-1.7,0.5-0.9c-2.3,3-3.8,0-4.7,0.4c-0.9-1.7,0.5-2.2-0.9-1.7
			c-1.4,0.9-1.9,0.4-1.4-1.3c0.9-1.7,0,1.3,0.9,0c2.3-5.6,2.3-1.3,4.2-5.6c1.4-3.4,0.5-4.3-0.5-4.7c-0.9-0.4-3.3-0.4-3.8-1.7
			c0-0.9,1.4-3.4,1.9-3.9c1.9-2.2,4.7-3.4,6.6-5.6c2.3-2.6,1.9-5.6,0.9-8.2c-0.9-2.2-0.9-5.6-3.8-6.5c-1.9,4.3,1.4,7.3,1.9,10.8
			c0.5,2.2-0.5,3.4-2.3,4.3c-0.9,0.4-0.9,0-2.3,0.4c-0.9,0.4-0.9,1.7-1.9,2.2c-0.5-0.4-1.4-0.4-1.9-0.4c-0.5,1.7-1.4,3-2.3,4.7
			c-1.4-0.4-2.3,2.6-2.8,3.4c-0.9,2.2-2.3,3.4-3.3,5.6c1.9,0.4,3.3,0.4,5.2-0.4c1.4-0.4,3.3-1.7,4.7-2.2c0.5,1.3,0.9,1.3-0.5,2.2
			c-1.4,2.6-1.9,2.2-5.2,6c-1.4,1.3-2.8,1.7-3.3,1.3c-0.5,0.9-0.5,1.7-0.9,3c1.9,0,1.9,0.9,3.8-1.3c1.4-0.9,2.3,0,4.2,0
			c-1.4,1.7-2.3-0.9-4.2,1.3c-0.9,0.9-1.4,0.9-2.8,3.9c1.9-1.3,3.8,2.6,4.2,3.4c1.4-0.4,2.8-2.6,3.8-0.9c-1.9,2.6-3.8,1.7-6.1,3.9
			c-2.8,3.9-2.3,0-3.3,0c-1.4,0.9,0-5.6-2.8-1.3c-0.9,0.4-2.3,2.2-2.8,1.3c-2.3,3-3.3,2.6-3.3,1.3c-2.3,3-3.3,5.2-2.8,2.6
			c-0.5-0.9-1.4-1.3-2.8-0.9c0,0.9,2.3-0.4,3.8-2.2c1.4-1.7,0.5-3-0.5-3.9c-3.3,3.9-4.2,3.9-4.2,4.3c1.4-3.4-2.3,2.2-2.8,1.7
			c-2.3-0.4,0.5,3,1.4,1.7c-0.5,3,1.9,0,3.3,0c-1.4,1.3-2.8,1.3-5.2,3c0-1.7-4.7,5.2-2.8,3.9c1.4,0.4,3.3,0.9,5.2-0.9
			c0.5,0.4,0,1.7,2.8-1.3c-0.9,3.4,0,3.9,2.3,0.4c0.5,1.7,4.2-1.3,5.2-0.4c-0.5,3,6.1-9.9,4.2-3.9c2.8-3.9,3.8-3.9,2.3,1.3
			c2.3-5.2-4.2,6.5-2.8,3.4c-0.9,0-3.3,1.7-4.2,0c-0.9,2.6-2.3,5.6-1.4,1.7c1.9-2.6,1.9-1.7,1.9,0c-1.9,3.9-3.3,2.2-4.7,2.6
			c-0.9,4.7-3.3,0.9-5.6,4.7C229.4,86.1,229.4,88.3,230.8,85.7z M224.2,45.6c1.4-1.3,6.6-0.4,8,0c2.3,0.4,4.2,2.2,7.5,0
			c0.9-1.7-1.9-1.7-2.3-3.4c-0.5-0.4-1.4-0.4-2.3-0.4c0.5,0,0.9-0.4,1.4-0.4c-0.9,0-1.4,0-2.3-0.4c0-0.9,0.5-1.3,1.4-1.7
			c0.5-0.4,1.4-0.4,1.9-0.9c0.9-0.4,0.5-0.9,0.9-1.3c0.9-1.3,1.9-1.7,3.8-2.6c1.4-0.4,3.3-0.4,4.7-1.3s1.9-1.7,3.3-2.6
			c0.9-0.4,3.3-0.9,2.8-2.6c-0.5-1.7-2.8,0-4.2,0.4c-2.3,0.9-4.2,1.7-6.1,3c-1.4,0.9-3.3,3-4.7,2.2c0.9-0.9,2.3-1.3,3.3-2.2
			c1.4-0.9,2.3-2.2,2.8-3.4c-2.3-0.4-3.8,3.4-6.1,3.4c0.9-2.2,3.8-2.6,4.2-4.3c-0.9-1.3-6.1,0.9-6.6,3c0-0.4,0.5-0.4,0.5-0.4
			c-0.9,2.2-0.5,3.9-1.4,5.6c-0.5,1.3-2.3,2.2-3.3,2.6c-0.9,0.9-1.9,1.7-2.8,2.2c-1.9,1.3-3.8,0.4-5.6,1.3c-0.9,0.4-4.2,3.4-4.2,4.3
			c0.9,0,1.9-0.4,2.3-0.9c0,0.4-0.5,0.4-0.5,0.4L224.2,45.6z M111.6,165.9c0,0.9,1.9,0.4,2.3,0.4c0.9,0,1.9,0.4,2.8,0.4
			c2.3,0.4,4.7-0.9,6.6,0c0.5,0,0.5-0.4,0.9-0.4c0.5,0,1.4,0.9,1.9,0.9c0.9,0,2.3,0,3.3,0c1.9,0,3.8,0.9,6.1,0.4s4.7-0.9,7.5-1.3
			c0-0.4,0-0.4,0-0.9c0.9-0.4,2.3-0.9,3.8-0.9c0.9,0,1.9,0.4,2.8,0.9c0.9,0,1.9-0.4,2.8-0.9c0.9-0.4,1.9-0.9,3.3-0.9
			c0,1.3-1.4,0.9-1.9,2.2c0.9,0.9,2.8-0.4,4.2-0.4c0.9,0,1.9,0,3.3,0c2.3,0.4,4.7,0,7,0c1.9,0,4.2,0.9,6.1,1.3
			c1.9,0.4,3.8,1.7,5.6,1.3c0.9-0.4,1.4-0.9,2.3-0.9c0.9,0,1.9,0,3.3,0c0.9,0,2.3,0,3.3-0.4c1.4-0.4,0.9-0.4,0.9-2.2l0,0
			c-0.5-0.4-0.5-1.3-0.9-1.3c-0.5,0-1.4,0.4-1.9,0.4c-0.5,0-0.9-0.4-1.9-0.4c-0.9,0-1.4,0.9-1.9,0.9c-1.4,0.4-1.9-0.9-2.8-1.3
			c-0.9-0.4-2.3-0.4-3.3-1.3c0.5-0.4,1.4-0.4,1.9-0.4c0.5-0.4,1.4-0.9,2.3-0.9c1.4-0.4,2.8,0.4,3.8-0.9l-0.5-0.4
			c0.9-1.3,3.8-2.2,5.2-2.6c1.4-0.4,3.8-0.9,5.2-2.6v-0.4c0.9,0,1.9-0.4,1.9-1.7c-0.5,0-0.5,0-0.9,0c0.9-0.4,2.3-1.3,3.3-2.2
			c0.9-0.9,1.9-2.6,2.8-3.4c1.9-1.3,4.7-2.6,6.1-4.7c0,0-0.5,0-0.9,0v-0.4c1.4-0.9,3.8,0.9,4.2-1.7c-0.5,0-0.5,0-0.9,0.4
			c0.9-0.9,2.8-1.3,3.8-1.7c0.5,0,0.5,0.4,0.9,0c0.5-0.4,0.5-0.9,0.5-1.3c0.5-0.4,0.9-0.9,1.9-0.9c0-2.2,3.8-0.9,3.8-3.4
			c-1.4-0.4-3.3,1.3-4.7,2.6c-1.4,0.9-2.8,1.3-4.2,2.2c-0.9,0.4-1.4,1.3-2.3,1.7s-1.9,0.4-2.3,0.9c-0.9,0.4-3.3,4.3-3.8,1.7
			c-0.9,0-1.4-0.4-2.3-0.4c-0.9,0-1.9,0.9-2.8,0.9c-0.5,0-0.9-0.4-1.4-0.4l-0.9-0.9c-0.5-0.9-0.5-2.2-0.9-3
			c-0.9-0.4-2.8-0.4-3.8-1.3c0.9-2.6,3.3,0,3.8-3.4c0-0.4,0-1.3,0-1.7s0.5-0.9,0.5-1.3c0-1.3-1.4-0.4-1.4-2.2
			c-1.9,0.9-3.8,3.9-5.2,6c-1.9,3-3.8,4.3-6.1,6.5c-1.9,1.7-3.8,3.9-6.1,5.2c-0.5,0.4-0.9,0.4-1.4,0.9s-0.5,1.3-0.5,1.7
			c-0.5,1.3,1.9,2.6,0.9,2.6c-0.5,0-4.2-0.9-4.7-1.3c-0.9-0.4-1.9,0.4-2.8,1.3s-0.9,2.2-1.4,3c-0.5,0.9-1.9,1.7-2.8,2.2
			c-0.9,0.9-1.9,1.3-2.8,0.9c-1.9-0.4-4.2-0.4-6.1,0.4c-0.9,0.4-1.4,1.3-2.3,1.3c-0.9-0.4-1.9-0.9-2.8-0.9c-1.9,0.4-3.3,1.3-5.2,1.7
			c-1.9,0.4-4.2,0-6.1,0.4c-0.9,0.4-1.4,0.9-2.8,0.4c-0.9,0-1.9-0.4-2.8-0.4c-0.5,0-0.9-0.4-1.4-0.4c-0.5,0-0.9,0.4-1.4,0.4
			c-0.9,0-0.5-0.4-0.9-0.9c-0.5-0.4-0.9-0.4-0.9-0.4c-0.5,0-0.5,0-0.9,0c0-0.4,0-0.4,0-0.9c-0.9,0.4-1.4,1.3-2.3,1.7
			c-0.9,0.4-1.9,0.4-2.8,0.4c-0.9,0-2.3,0.4-3.3,1.3c-0.9,0.9-1.4,1.3-2.3,1.3l0,0c0,0,0-0.4,0-0.9c-0.5-0.4-1.4,0.4-1.9,0.4
			c-0.9,0.4-0.9,0.9-1.9,0.4c-1.9,0-3.3,0.4-4.7,1.7L111.6,165.9z M148.2,155.1c1.4,0,2.8,0,4.7,0.4c1.4,0.4,3.3,0.9,4.7,0
			c0-0.4,0-0.9,0-0.9c-0.5,0-0.9,0-1.4-0.4c-0.5-0.4,0.5-1.7-0.5-1.3c0.9-0.9,1.9,0,2.8,0c1.4,0,2.3-0.9,3.8-0.9
			c0.5,0,1.4,0,1.9-0.4c0.5-0.9,0-1.3,0-1.7c0-1.3-0.5-0.9,0.5-1.7c0.5-0.4,0.9-0.4,1.4-0.9c0-0.4,0-0.4,0-0.9c0,0,0-0.4-0.5-0.4
			c0.9,0,3.3,0.4,2.8-1.7c0.9-0.4,1.4-1.3,1.9-1.3c0.9-0.4,1.4-0.4,2.3-1.3c0.5-0.9,0.9-1.7,1.4-2.2c0.5-1.3,0-1.7-0.9-1.3
			c0.5-4.7,6.1-5.2,8-7.3c0-0.4,0-0.9,0-1.3c1.4-0.4,3.3-2.6,2.8-4.7c0.5-0.4,1.4-0.9,1.4-2.2c-0.5-1.3-1.9,1.3-2.3-0.4
			c-1.4-0.4-2.3,1.3-3.8,0.9l0,0c-0.9,0.9-2.3,2.2-3.8,2.2c-0.9,0-2.3-0.4-3.3,0c-0.9,0-1.9-0.4-3.3,0c-0.9,0-1.9,0.9-2.8,1.3
			c-1.9,0.9-4.2,2.2-6.6,2.6c-2.3,0.4-4.7,0.4-7,0.9c-5.2,0.9-10.3,3-15.5,3.9c-2.3,0.4-4.2,1.3-6.6,1.7c-0.9,0-1.9,0.9-2.8,0.9
			s-1.9-0.4-3.3,0c-1.4,0.4-3.3,0.4-5.2,1.3c-1.4,0.9-2.8,0.4-4.7,0.9c-3.3,0.9-7,1.7-10.8,2.2c0.9,1.3,2.3,0.4,3.3,0.4
			s2.3,0.4,3.3,0.4c0.9,0,2.3,0,3.8,0.4c0.9,0.4,1.9,0.9,2.8,1.3c0.9,0.4,2.3,0.4,3.8,0.4c0.5,0,1.4,0,1.9,0s0.9,0.9,1.4,0.9
			c1.4,0.9,2.8,0.4,4.2,0.4c1.4,0,2.3,0.4,3.8,0c2.3-0.4,4.7-2.2,7-1.7c0.9,0,2.3,0.9,3.3,0.9c1.4,0,2.8,0.4,4.2,0.4
			c1.9,0.4,4.2-0.4,6.1-0.4c2.3-0.4,4.7-1.3,6.6-2.2c0.9-0.4,3.8-0.9,3.8-2.6c-0.9,0-2.8,0.9-2.8-0.9c0.9-0.4,2.3-0.9,3.3-0.4
			c0-0.4-0.5-0.9-0.5-1.3c0.9,0.4,2.3-0.4,3.3-0.9c0.9-0.9,1.4-2.6,2.8-3.4c1.4-0.9,2.8-0.9,4.2-1.3c0.9,0,1.9-0.9,2.8-1.3
			c-1.9,2.6-5.2,3.9-6.6,6.9c-0.9,1.3-0.9,2.6-2.3,3.4c-1.4,0.9-2.8,0.9-4.2,2.2c-0.9,0.4-1.4,1.7-2.3,2.2c-0.9,0.9-2.3,1.3-3.8,2.2
			c-0.9,0.4-2.3,1.7-3.3,2.2c-1.4,0.9-2.3,0.9-3.8,1.3c-1.9,0.4-2.8,1.7-3.3,4.3c0-0.4,0-0.9,0-0.9L148.2,155.1z M716.3,191.8
			c1.4-0.9,2.8-0.4,3.3-2.6c0-0.9-0.5-1.7,0-2.6c0.5-0.4,1.4-0.9,1.4-1.7c3.3-0.9,0.9-6,4.7-5.6c-0.5,1.7-0.9,3.9-1.9,5.2
			c-0.5,0.4-1.4,0.9-1.4,0.9c-0.5,0.4,0.5,0.9,0.5,1.3c-0.5,0.9-1.9,1.3-1.4,2.6c-0.9,0.4-1.4,0.9-1.4,1.3c1.9-0.9,2.3-1.3,3.3-2.6
			c0.9-0.9,2.3-1.7,1.9-3c2.3-0.4,2.3-1.7,3.8-2.6c-0.5,0-0.9-0.4-1.9-0.9c0.9-0.4,1.9-0.9,2.3-1.3c-0.5,0-1.4-0.4-1.9-0.4
			c0-1.3,2.3-2.2,3.8-1.7c0.5-0.9,0.9-2.2,1.9-2.6c0.5-0.4,2.8,0,3.8-0.4c1.4-0.4,2.3,0,3.8-0.4c0.5,0,2.3-2.2,2.3,0
			c0.5-0.9,3.3-1.3,4.2-1.7c1.4-0.4,2.3-1.7,3.3-0.4c3.3-1.3,2.3-3,2.8-4.7l-0.5-0.4c-3.3-0.4-2.3,2.6-3.8,3.9
			c0-0.4-0.5-0.4-0.5-0.9c-0.9,0-1.9,0.4-2.8,0.4c1.4-1.3,3.3-2.2,0.9-3.4c-3.3,0-3.8,0.4-6.1,1.7c-1.4-1.3-3.3-0.9-4.7,0
			c-2.3,0.9-2.3,1.3-3.8,3c-1.9,1.7-6.1,4.7-9.4,4.7c0.5-1.3,1.9-1.3,3.3-2.2c0.5-0.4,0.5-0.9,1.4-1.3c0.9-0.4,1.9,0,2.8-0.4
			c1.9-0.4,6.6-4.7,5.6-6c-0.9,0-1.9,0.4-2.8,0.4c-0.9-0.9-0.5-2.2,0.9-3c-0.5,0-0.9-0.9-1.4-0.9c0.5,0,0.5-0.4,0.9-0.4
			c-0.9-0.4,0-0.4,0-0.4c0.5-0.9,0-1.7-0.9-1.7c-0.9,0-1.9,0.4-1.9,1.3c0-0.9-1.4-3-2.8-2.2c-1.4,0.9,0,2.6-2.3,2.6
			c-0.5-1.3,0.5-1.3,0.9-2.2c0.5-0.9,0.9-1.3,1.4-2.2c-1.4,0-2.3,0.9-2.8,1.7c0-0.4-0.5-0.9-0.5-1.3c-1.9,0.9-1.4,3-3.8,3.4
			c0-0.9,0.5-1.3,0-2.2l0,0c0.5-0.9-0.5-1.7-0.9-2.6c-0.9,0.4-2.3,1.3-3.8,0.9c0-1.3-0.5-2.2-1.9-3c-1.4,0.4-0.9,1.3-1.4,1.7
			c-0.5,0.9-0.5,1.3-1.4,2.2c0.9,0,1.4,0.4,1.4,1.3c1.4,0,2.3,0,3.8,0c0.9-0.4,2.3-0.9,3.3-0.4c0,1.7-1.9,3.4-4.2,3.4
			c0-0.4,0-1.3,0-1.7c-0.9,0-1.4,1.7-1.9,2.2c-0.5,0.4-1.4,0.4-2.3,1.3c0.5,0.4,1.4,0.9,2.3,0.9c0,0.9-1.4,2.2,0.5,2.6
			c1.4-0.4,2.3-1.7,3.3-2.6c1.4-0.9,2.8-1.7,4.2-2.2c2.8-0.9,6.6-0.9,9.4,0c0,0.4,0,0.4-0.5,0.9c0.9,0.9,1.4,3-0.5,3.9
			c-1.4-0.4-0.9-1.7-0.9-2.6c-0.5,0-0.9,0-0.9,0.4c0,0.4-0.5,0.9-0.5,1.3c-0.5-0.4-0.9,0-1.9-0.4c0,0.9-0.5,2.6-1.9,2.6
			c0-0.9,0-1.7-0.9-2.2c-3.8,0,0.9,2.6-2.3,4.3c-4.2,1.7-2.8-2.6-2.8-4.3c-0.5,0.4-2.3,4.3-1.9,5.2c0.9,2.2,5.6,0,7,0.4
			c-1.4,1.3-2.3,1.3-4.7,1.3c-0.5,0.9,0.5,1.3,0.5,1.7c0,0.9-0.5,1.7-0.5,2.6c0.9,0,2.3,0,2.3,0.4c-0.9,0-4.2,4.3-3.3,5.6
			c-0.9,0.4-1.9,0.9-1.4,1.7c-0.9,0.4-0.9,0.9-0.5,1.3c0.9-0.4,3.3-0.9,2.3,0.9C716.3,190.5,715.3,191.8,716.3,191.8L716.3,191.8z
			 M666.6,139.6c2.3-1.7,0-3,1.4-4.7c0.9-1.7,4.2-2.2,5.2-3.4c-2.3,0-4.2-0.4-6.1,0.9c-1.4,0.9-0.9,2.6-1.9,3
			c-1.4,0.9-5.2-0.4-4.7,2.2c0,1.3,2.8,2.2,4.2,2.2L666.6,139.6z M684.4,141.3c0.5-2.2,6.6-0.4,9.4-1.3c-1.4-2.6-3.3-2.2-6.1-3.4
			c0.9-2.6-3.3-4.3-5.2-1.7c0,1.7,2.8,3.9,0.5,5.6L684.4,141.3z M707.4,141.3c-0.5-0.9,1.9-6.9-2.8-4.3c0,1.3,1.4,3.4,0,3.9
			L707.4,141.3z M713.9,143.9c0-1.7,5.6-5.2,1.4-6.9c-4.7-1.7-0.9,5.2-3.3,6.5L713.9,143.9z M638.4,159c-0.5-1.7,0.9-1.7,2.3-2.6
			c0.5-0.4,1.9-0.4,2.3-0.9s0.5-1.3,0.5-1.3c1.9-1.7,5.6-2.6,2.8-5.2c1.4-0.9,3.3-1.3,3.8-2.6c0.5-2.2-1.9-1.7-3.3-2.6
			c1.4-0.9,0.5-1.7,1.4-2.6c0.9-0.9,1.9-0.4,2.8-1.3c1.9-1.3,2.8-2.2,4.2-4.3c0.9-2.2,1.4-4.3,2.8-6s4.7-4.3,2.8-6
			c-0.5,0-0.9,0-0.9,0c-0.9,1.3-2.8,1.7-4.2,3c-1.4,1.3-0.9,2.6-1.9,3.9c-0.9,1.7-2.8,6.9-5.2,7.3c0.5-2.6-4.7-1.3-7-0.9
			c0-1.3,1.4-2.2,1.4-3c2.8-0.4,3.8-3,2.3-4.7c-0.9-0.4-1.4-0.9-1.9-1.3c2.3-1.7,6.6-1.7,4.2-4.3c-0.9,0.4-2.3,0.9-2.8,1.3
			c-0.9,2.2-2.3,0-3.3,2.6c-1.4,0.4-3.8,1.7-4.2,2.6c1.4,0.4,3.3,0,4.7-0.4c0,0.4,0,0.4,0.5,0.9c-0.5,0-0.9,0.4-1.9,0.9
			c1.4,1.7,0.5,3.9-2.3,3c0,0.9,0,2.2-0.9,3c-2.8,0-6.6,1.7-5.2,3.9c1.4,2.2,6.1,0.4,8,2.2c-0.5,1.3,0,3.4,0,4.7
			c0,0.9-0.5,1.7-0.5,2.6c0,1.3,1.9,1.3,1.4,2.6c-3.8,0.4-3.3,3-4.7,4.7L638.4,159z M617.8,168.9c-0.9-3.9-1.9-1.7-2.8-0.9
			c0.5-1.3,0-1.3,0-3.4c0-2.2,0.5-3,0.5-4.3c-0.9-0.9-1.4-6.9-1.9-2.6c0.9-0.4,1.9-1.7,2.8-1.3c0.9-2.6,1.4-4.3,1.4-4.7
			c-0.5-5.2-0.5,0.4-0.5-0.9c1.4-0.9-0.9-5.2-1.4-6.9c0.5-5.2,1.4-5.2,1.9-2.2c0,4.7-1.4-4.3-1.4-3c-1.4,1.3-0.5,1.7-1.9,4.7
			c0,0,0-2.6,0-3.4c0,1.7-0.5,2.2-0.5,0c-0.5-2.2-0.9,0-1.4,2.6c-0.5,0,0.5,6-0.5,4.3c-0.5,0.4-0.5-3.4-1.4-4.7
			c0.5,5.6,0.5,3,0.5,3.4c0,0.4,0.5-1.3,0.5,0.9c0,0.9,0,0,0,2.2c0,0.4-0.5,1.3-0.9,1.7c-0.5,0.4,0.5,1.7,0,5.2
			c-0.9-5.6-0.5,6.9-0.5,3.4c-0.9,0.4-1.4,1.7-2.3-0.9c-0.9-0.9-1.4,0-2.3,0.4c0.9,0.9,1.9,1.7,2.3,0.4c0.5,3,1.4-1.7,1.9,2.2
			c-0.9,2.6-2.3-2.2-1.9,2.6c0,3,0.9,5.6,0,8.2c0,0.4,0.5,1.3,0.5,1.7c1.4,1.3,2.8,1.3,4.7,1.3c1.4-0.4,2.8-0.9,4.7-1.7
			C628.1,174.5,618.2,168.5,617.8,168.9z M587.3,154.7c0.5,0,0.5,0,0.9,0c0-1.7,0.9-3.4,0-5.2c-0.5-1.3-1.4-0.9-2.3,0
			C586.8,152.1,587.8,153,587.3,154.7L587.3,154.7z M597.6,152.1c-1.9-0.4-1.4-1.3-1.4-0.9c-0.5,0-0.5,0.9-0.9,0.9
			c-1.4-0.4,0.5-0.9-0.9-1.3c-0.5-0.4,1.4,0.9-0.9,0c-0.5,0,0.5,0-2.3-0.9c0.9,0.4,0,0-0.9-0.4c1.9,0.9-0.9-0.9-0.5,0
			c0,0.9-0.5,1.7,0.9,2.6c1.9,0.9,0.5,0.4-0.5,0.4c-1.4-0.4-1.4-0.9-0.9-1.3c-0.5,0,0,0.4-1.9-0.4c1.9,0,0.9-0.4,0-1.3
			c0.5,0.4-1.9,0-0.9,0.9c-1.4-0.9,0.5-2.2,0-2.6c-1.9-1.3-2.3-0.9-0.9,0.4c-0.9-0.4,0,0-0.9-0.4c-0.5,0-2.8-0.4,0,0.9
			c0.9,0.4-0.5,0.4,0.9,0.9c0,0.9-2.8,0.9-0.5,1.7c0.9,1.3,0,2.2,0.5,3c0,0-0.5,0,0,0c0,0.9-1.9-0.9-1.4-2.2
			c2.3-0.4,1.4-2.2-1.4-2.6c0,0-1.4,0.4-0.9,0.9c-0.9,0-1.9,0-0.9,0.4c-1.4,0,1.4,0-0.9,0.4c0.9,0.9,0,1.3,0,1.7
			c-1.4-0.4-0.5-1.3-0.9-1.3c0-0.4-0.5,0-0.9-0.4c1.9,0.4,1.4,0.4-0.9-0.4c-0.9-0.4,0.9-0.4-1.4-0.4c1.4-2.2-4.2-2.2-3.3-2.6
			c0.9,2.2-0.9,1.7,1.4,3.4c0.5,0.4-1.4,0-2.8-0.4c-0.5,0-4.2-1.3-2.8-0.9c-0.5,0,0.5-0.9-2.3-2.6c-1.9-1.7-2.8-1.7-0.9-2.6
			c1.9-0.4-1.9-1.7-3.3-1.7c2.3,0.9,0,0-1.4,0c0,0.4,0,1.3-0.5,1.3c0,0.9-3.3-0.9-3.3-0.9c0.5,1.3-3.3,0-2.8,0.9
			c-0.9-0.4,0.9,0.4,0.5,0c-0.9,0.9-1.4,1.3-2.8,2.6c3.8,1.3,3.3,0.9,2.8,0.9c-2.8,0,1.4,1.7-0.5,1.7c-2.3,0-2.3,0,0.5,1.3
			c-2.8,0-1.4,1.7,0.5,3c-2.8-0.9,0-0.9-2.8-2.6c-1.9-1.7-3.8-3.4-2.3-3.9c-0.5-0.4-1.9-2.2-2.8-3c-2.8-1.7-2.8-1.7-2.8-0.4
			c-1.4,0.4-1.9,0.4,2.3,2.2c-0.5,0.9-0.9,1.3-0.9,1.3c-0.9-0.4-2.3-1.3-1.4-0.9c-0.5,0,0.9,1.7,0,1.7c0.9,1.3,2.8,0.9,2.8,0.4
			c1.9,0.4,3.3,1.7,2.8,1.7c0.5,0.4,1.9,1.3,2.3,2.2c-0.5,0,0,0.9,0.5,1.3c-0.9,0,0.5,0.9,1.4,1.7c1.9,1.3,3.3,1.7,2.3,2.2
			c-1.9-0.4,0.9,0.4,1.9,0.4c1.4,0.4-0.9-1.3,1.4-0.9c1.4,0,2.3,0.4,2.8-1.3c0.9,0.4,1.9,1.3,3.3,1.3c0.9,0,0.5-0.9,3.8-0.4
			c-1.4-0.9-2.3-2.2-0.9-2.6c-0.5-0.9,2.3,1.7,2.3,2.6c-1.4,0.4,3.8,2.2,2.8,2.2c0.5,1.3-2.3,1.7,0,3.4c0.9,0.9,2.3-0.4,2.3-1.7
			c0.9,0,0.9,0.9,1.9,0.9c-1.4-0.9,1.4-0.4,0.5-0.9c2.8,0,1.4,1.7,2.8,3c0.5,0.9,0,0.9,1.4,1.3c0.5,0,0.5-0.4,1.4,0
			c0.9,0.9-0.5,3,1.4,4.3c1.9,2.2,2.3-0.9,1.4-2.2c0.9,0.9,2.8,1.3,3.8,0.9c0-0.9,0.9-0.9-0.5-2.2c1.4-0.9-1.4-0.9,1.4-0.9
			c-2.8-1.3-0.9-1.7,0.5-1.7c2.3,0,2.3,0.4,1.4,0c0.5-0.9-2.3-2.6,1.9-1.7c2.8,0.9,1.9,0.4,1.4,0c1.9,0-0.5-1.3,0.9-1.3
			c2.3,2.6,0.9,2.2,0.5,3.9c-0.9,0.9,0.9,3-1.4,3.4c-1.9,0.4-1.9,1.3-1.9,2.6c-0.5,1.3-0.5,2.2-1.4,3c-0.5,0.4-2.3,0.9-1.9,2.2
			c0.5,1.7,1.9,0,2.3-0.4c0.9-0.4,1.4-1.3,1.4-2.6c0.5-0.9,0.5-2.2,0.9-3c0-1.7-0.5-3.4,1.9-4.7c-0.5-1.3-1.4-2.6,0.9-3
			c0.9-0.9,3.8-12.5,2.3-13.4C599.5,150.8,600,153,597.6,152.1z M569.9,168.5c-0.5-0.9,0-1.7-0.9-3c1.4-0.4-1.4-2.2-1.9-2.2
			c-0.5-0.4-0.9-0.4-2.8-0.4c0,0.4-2.3,0.4-1.9,1.7c0.5,0.9-0.5,1.7,1.9,1.7c0.5-0.4-2.8-2.2,1.4-0.4c1.9,0.9,1.4,0.9,2.3,1.7
			c1.4,0.9,1.4,1.3,2.3,2.2L569.9,168.5z M563.4,167.6c0,0-4.2-2.2-2.8,0.9c0.5,2.2,1.9,0,3.8,0.4c-1.4-0.4-0.9-0.4-0.5,0
			C562.9,168.5,564.8,168,563.4,167.6z M535.2,162.4c0,0.4,0.5-3.9-0.9-2.6c0-3.9-1.4-3.4-1.4-0.4c0,1.3,0.9,3,1.4,3.4h-0.5
			L535.2,162.4z M535.2,167.6c0-3.9-2.8-3-3.8-4.3c-1.9-2.6-0.5-6-1.9-9.1c0-0.4,0-1.3,0-1.7c-0.9-0.9-2.3,2.2-3.8,1.7
			c-0.5,1.3,0.9,5.2,1.4,6.5c-0.9-0.4-2.8-3.4-3.3-4.7c-1.4-2.2-1.4-4.7-1.9-7.8c0.9-0.9,1.9,0.4,2.8,0.4c0-0.9,0.5-0.9,0.5-0.9
			c0.5,2.2-0.9,3.9,0.5,4.3c0.5,0,2.3-0.9,1.9-3c0-1.7-3.3-6-3.8-7.3c-1.4-3-3.8-2.6-5.2-3.9c-1.4-1.3-3.8-4.3-4.7-7.3
			c-0.9-2.2-2.3-9.9-3.8-9.5c-1.4,0.4-2.3,8.6-0.9,6.9c0,4.7,0.9,2.6,2.3,1.7l0,0c-0.5,1.3-0.9,2.6-0.9,4.3c0.9,0,1.4-2.6,2.3-3
			c0,4.3-1.9,7.3-3.8,9.9c-0.5-2.2,0-3.4,0-5.6c0-1.7-0.5-2.6-0.9-4.3c-0.5,0-0.9,0-0.9-0.4c-0.5-0.4,0-1.7-0.5-2.2
			c-0.9-1.7-1.4,0-1.4-3.4c-1.9,0,0,6.5-2.3,4.7c-0.5-0.4-0.9-0.9-1.9-0.9c-0.9,0-1.4,0-1.4-1.7c-0.5,0.4-1.9-3.4-1.9,0.4
			c0.5,1.7,1.9,2.6,0.9,5.2c-0.5,2.2-1.4,1.3-1.4,3.9c-1.4,0.4-1.9-1.7-2.8-2.6c-0.9-0.9-2.3-2.2-3.3-1.7c0,0,0,1.3-0.5,1.3
			c1.4,3,1.4,5.2,0,7.8h0.5c0,1.7-0.9,2.6-1.4,3c0,0,0,0,0-0.4c-0.9,0.4-2.8,1.7-3.8,3l0,0c-0.9,0-1.4,0-2.8-0.9
			c-0.5-0.4-1.4-1.3-2.3-1.3c1.4-0.4,3.8-0.4,5.2-2.6c-0.5-1.7-3.3,0-1.9-3.9c-0.5-0.9-0.9-1.3-1.4-1.7c0,0.4,0,0.4,0,0.9
			c0-0.4,0-1.3,0-1.7c-0.5,0.4-1.4,0.4-1.9,0.4c0,0.4,0,0.4,0,0.9c0-0.9,0-1.7-0.5-3c2.3,0.4,0.9-3,1.9-5.6c-0.5-2.6-1.9,0-2.8-2.2
			c-0.5,2.2-1.9,3.9-2.8,2.2c0-0.4,0-0.4-0.5-0.4c-0.9-1.7,0.5-3.4,0.9-4.3c-0.5-2.6-1.9,1.7-2.8,1.7c-0.5,0.4-0.9-0.9-1.4-0.4
			c-0.5,0.4-0.9,1.7-1.4,2.2c0.9,1.7,1.4,1.7,2.3,1.3c0,1.7-0.9,2.6-1.9,3c0.5,0.9,0.9,1.7,0.9,3.4c0,2.6-1.4,2.6-1.9,3.9
			c0.5,2.2,1.9,0.9,2.8,1.7c0.5,0.4,0.5,1.3,0.9,1.7c0.5,0.4,0.9,0,1.4,0c1.4,0.4,0.9,1.3,1.9,2.6c0.9,1.3,1.9,0,2.3,1.7v0.4
			c3.8,0.9,7.5,1.3,10.8,3c1.9,0.9,3.3,2.2,5.2,2.6c1.4,0.4,3.8,1.7,5.2,2.2c1.9,0.4,3.8,1.3,5.6,1.7c1.9,0.9,3.8,2.2,5.6,3.4
			c2.3,1.7,3.8,3.9,6.1,3.4c1.9-0.4,3.8,1.3,6.1,2.2c2.8,1.3,5.2,0.9,8,2.2c0,0.4,0,0,0,0.4C533.8,167.6,534.8,168,535.2,167.6z
			 M497.7,118.9c2.8-0.4,1.9-7.3,0-3.4c0.5,1.7,0,4.3-0.9,3.4H497.7z M485,117.6c0.5,0.4,2.8-2.6,2.3-3.9c0.5-1.7,0.9-6,0.9-8.2
			c-0.5,0-1.4,0-1.9-0.4c0.5-1.3,1.4-2.2,1.9-3.9c-0.9-0.4-2.3-1.3-3.3,0.9c-0.5,0.9-0.5,2.6-0.9,3.4c-0.5,0.4-0.9,0.9-1.9-0.4
			c-0.9-1.7-1.4-4.3-2.3-5.2s-2.8-0.4-3.3,0.9c0.9,0.9,1.4,0.4,2.3,1.7c0.9,0.9,0.9,0.9,1.9,1.7c-1.4,3,1.4,3,1.9,3.9
			c-0.9,3.4,0.5,3.9,1.4,6c0,0.4,0,1.7,0,2.2s0.5,0,0.9,0.4C484.6,118,485,117.6,485,117.6z M466.7,124.9h0.5
			c-0.5-3-0.5-3.4,0.9-4.7c1.4-1.7,2.8-3,3.3-6c0.5-0.9,0.9-3.4,0-3.4c-0.5,0-0.9,2.2-1.4,3c-0.9,2.2-2.3,4.3-3.8,3
			c0-2.6,2.3-1.7,2.8-4.3c0.5-2.2-0.9-2.2-1.9-1.7c-1.4,0.4-1.4,2.6-1.9,4.3c-0.9,1.3-1.9,1.3-2.8,1.3c0.5-1.3,0.9-3,0.9-4.7
			c-0.5,0.4-1.4,2.2-1.9,1.7c-0.9-0.4-0.5-3.4-1.4-2.2c-0.9,0.9-0.5,3-0.9,4.3c-0.5,1.7-0.5,2.6-1.4,3c1.9,0,2.3,2.6,4.2,2.6
			c0-1.7,0.9-1.3,1.4-1.3c0,0.9,0.5,1.3,0.9,1.3c-0.9,2.6-2.3,1.3-2.8,3.4c0.9-1.3,2.8,1.3,3.8,2.2
			C466.3,126.2,466.7,124.9,466.7,124.9z M470.5,105.1c0.5,0.9,4.2-1.7,3.3-5.2c1.4-1.7,1.9-3.9,2.3-7.3c-0.9,0-1.4,0.9-2.3,1.7
			c0.5-3.4-1.4-4.3-2.3-3s-0.5,3.4-0.5,5.2c0.9,0.4,3.3-0.4,1.9,3c-0.5,1.7-2.3,2.2-2.3,1.7V105.1z M462.5,105.1
			c0.9,0,1.9-0.4,2.3-1.7c0.9-1.3,1.4-3,1.4-4.7c-1.4,1.3-1.9,2.2-2.8,2.2c-0.9,1.3-1.4,3.4-2.3,3.9L462.5,105.1z M440.5,91.7
			c0.9-2.6,0.5-3.9-0.9-2.6c-0.9-1.3-1.4,2.6-1.9,3.9C438.1,96.5,440,93.9,440.5,91.7z M451.7,112.9c0.5-0.4,3.8-2.6,1.9-4.7
			c-1.4-1.7-1.9,3-2.3,5.2L451.7,112.9z"/>
		
			<linearGradient id="SVGID_9_" gradientUnits="userSpaceOnUse" x1="351.1061" y1="484.5302" x2="351.1061" y2="560.0211" gradientTransform="matrix(1 0 0 -1 0 598)">
			<stop  offset="0" style="stop-color:#BCD8F9"/>
			<stop  offset="0.5" style="stop-color:#9DC7F1"/>
			<stop  offset="1" style="stop-color:#68B0E7"/>
		</linearGradient>
		<path class="st9" d="M410,102.1c-18.3-8.6-20.6-13.8-36.6-26.7c0,0-10.3-10.3-15.9-12.5c-4.7-4.3,4.7,9.1,4.7,9.1
			c-3.8-3-20.6-18.1-26.3-23.3c-0.5-0.4,2.8,6,2.3,5.6c-0.9-0.9-11.3-17.2-12.2-17.7c-0.5-0.4,7,13.4,6.6,12.9
			c-1.4-1.3-12.2-17.7-13.6-19c0,0-0.5-1.3-3.8-2.6c0.9,0,0,5.6-3.3,3.9c-2.3-0.9-7-7.3-9.4-8.2c-0.9-0.4,3.8,5.6,2.8,5.2
			c-1.4-0.4-9.4-8.6-9.4-8.6c-8.4-5.2-15.5-11.6-26.7-13.4c0,17.7,7.5,25,14.5,31c-10.3-33.2,8.9,16,8.9-1.3
			c4.7,21.6,19.7,38.8,19.7,60.4c0,2.2,1.4,4.3,0,6.5c-2.8-1.3-5.2-7.3-8.4-6.5c2.8,6.9,3.3,14.2,3.3,21.6c0-0.9,0-1.3,0-2.2
			c5.2,1.3,8.9,16.4,12.2,20.7c2.3,3,5.2,6.5,7,9.1c1.4,1.7,2.8,3.4,4.7,4.7c1.4,1.3,3.8,1.3,4.7,3.4c0.9-2.6-3.3-7.3-4.7-9.9
			c0.5,0.4,1.9,0.9,2.3,1.3c-1.4-0.9-5.2-7.8-5.6-9.9c-0.5-1.7-0.5-3.9-0.9-5.6c-0.9-2.6-2.8-4.7-2.8-7.8
			c8.9,8.2,20.2,23.3,24.4,17.2c0.9-1.7-4.7-12.9-5.6-15.5c-1.4-3.9-5.2-10.3-4.7-14.2c4.7,2.6,8.4,6.9,12.7,10.3
			c-1.4-0.9-0.9-1.3-0.9-3c2.3,0,4.7,1.3,5.6,3.4c0,0,0.5-0.9,0.5-0.4c1.9,0.4,3.8,1.7,3.8,3.4c3.3,0,12.2,9.5,14.5,11.6
			c4.7,4.7,9.9,9.5,15,13.8c-0.9-1.7-1.4-3.9-2.8-5.2c3.8-1.3,8.9,8.2,11.3,10.8c3.8,3.4,9.9,9.5,14.5,11.2c0-0.4,0-1.3-0.5-1.7
			c3.3,1.3,6.1,2.6,9.4,3.4c-0.9-1.3-8.9-4.7-4.7-6.9c1.4-0.4,2.8,1.3,3.8,1.3c1.9-0.4,1.9,0.9,3.3-0.9c0.9-1.3-1.9-9.1-2.8-9.9
			c-8-7.3,8,0,12.2-4.3c-12.2-11.2-18.8-15.5-23.5-24.1c-1.9-3.9-1.4-6.5,4.2-7.8C424,118,414.2,103.8,410,102.1z"/>
		
			<linearGradient id="SVGID_10_" gradientUnits="userSpaceOnUse" x1="428.6359" y1="483.866" x2="466.3468" y2="418.6942" gradientTransform="matrix(1.0311 -5.940700e-02 5.940700e-02 -1.0762 -44.609 659.1314)">
			<stop  offset="0" style="stop-color:#BCD8F9"/>
			<stop  offset="0.5" style="stop-color:#9DC7F1"/>
			<stop  offset="1" style="stop-color:#68B0E7"/>
		</linearGradient>
		<path class="st10" d="M433.9,141.3c3.8,3.9,13.6,12.1,14.5,8.6c8,4.7,0.9-3.4,0.5-4.3c0.9,0.9,2.3,1.3,3.3,2.2
			c-1.4-1.3-4.2-3.9-4.7-5.2c4.2,2.2,9.4,8.2,14.5,11.2c0-0.9-6.6-6.5-8.4-8.6c-3.3-3-8.9-6.9-11.3-9.9c0.9,0.4,0.9,0,2.3,0.9
			c-1.9-2.2-3.3-3.4-5.6-5.6c-2.3-2.6-3.3-3.4,1.4-0.4c-0.5-0.9-1.4-1.7-1.9-2.2c0.9,0.4,1.9,0.9,3.3,1.7c-2.3-2.2-5.2-3.9-8-6
			c-1.4-1.3-6.6-6-2.3-3.4c-0.9-0.9-7-3-7-3s-13.6,0.9-6.6,7.8C421.7,128.8,431.6,138.7,433.9,141.3z"/>
		<g>
			
				<linearGradient id="SVGID_11_" gradientUnits="userSpaceOnUse" x1="921.2131" y1="480.8698" x2="917.8235" y2="593.2448" gradientTransform="matrix(1.3787 -5.936000e-03 5.936000e-03 -1.2313 -142.2934 751.2418)">
				<stop  offset="0" style="stop-color:#BCD8F9"/>
				<stop  offset="0.5" style="stop-color:#9DC7F1"/>
				<stop  offset="1" style="stop-color:#68B0E7"/>
			</linearGradient>
			<path class="st11" d="M1154.4,93.9c-11.3,17.7-3.3,0.9-3.3,0.9c-1.4-0.4-3.3-1.7-4.2,5.2c-1.4,0-2.3,4.7-3.3,5.6
				c-0.9,2.6-2.3,1.7-2.8,5.6c-0.9-3.4-1.4,3.9-2.3,6c-0.9-3.9-1.4-0.9-1.9,6c0,7.3-0.9,5.2-0.9,6.5c-0.5,0.9,0,8.2,0,6.5
				c1.4-6.5,2.8-9.5,4.7-4.7c1.4-7.8,3.3-6,4.7-6c1.4-1.3,2.3-18.1,4.2-6.5c1.9,5.2,2.3-3,3.3-6.5c0.9,1.3,1.9,3.4,1.4-6
				c0-9.1,0-6-0.5-5.2c2.8-3.4,5.2-0.4,7.5-3.9c2.3,3,4.2,4.3,5.6-4.3c1.9,0,3.3-3.4,4.7-5.2c0,0-2.8,0.9-7,3.4
				c-2.3,0.4-4.2,3.9-6.1,0.9C1157.7,93.9,1155.8,92.6,1154.4,93.9z M1101.9,98.2c-12.2,7.8-2.8,0.4-3.8,0.4c-0.5,0-0.9,0-1.4,0.4
				s-0.9,0.4-1.4,0.9c-0.9,0.4-1.9,1.3-2.3,1.7c-0.9,1.3,0.5,3-2.3,4.3c-0.9,2.2-1.4,3.9-3.8,5.6c0.5-0.9,0.9-0.4,0.9-0.9
				c0.5-0.9,0.9,0.9,0.9-0.9c0.5-0.9,0.5-1.7,0.9-0.4c0.5,0.9,0.5-0.9,0.9-0.9c0.5-0.4,0.5-0.9,0.9-0.9c0.5,0.4,0.5-0.4,0.9,0
				c0.5,0.4,0.5-1.3,0.9-0.4c0.5,0.4,0.5-1.7,0.9-0.9c0.5,0.4,0.5-0.9,0.9-0.4c0-0.9,0.5-0.4,0.5-0.4c0-0.4,0-1.3,0.5-1.3
				c0-0.9,0.5,0.4,0.5,0.4s0.5,0.9,0.5,0c0,0.4,0.5,0,0.5,0c0,0.4,0.5-0.4,0.5-0.9c0.5,0,0.5-2.6,0.9-0.9c0.5-0.4,0.5,0.4,0.9-0.9
				c0,0.4,0,0.4,0.5,0.9c0.5-0.4,0.5-0.9,0.5-0.9s0-0.4,0.5-0.4s0.5,0.4,0.5,0.4c0.5,0,0.5,0,0.9,0l0,0c0,0,0,0,0,0.4
				c0.5,0,0.5-0.4,0.5-0.4c0-0.4,0.5-0.4,0.9-0.9c0.5-0.4,0.9-0.9,1.9-1.3c0,0.4,0,0.4,0,0.9c0,0,0,0.4,0,0.9l0,0l0,0
				c0-0.4,0.5-0.4,0.9-0.9c0.5,0,0.5-0.4,0.5-0.4c0-0.4,0.5-0.4,0.9-0.4c0,0,0,0,0,0.4c0.5,0,0.5,0,0.9-0.4l1.4-0.4
				c-0.5,0-1.9,0-2.3,0s-1.4,0-1.9,0c-0.5,0-1.4,0-1.9,0C1097.6,102.5,1102.8,98.2,1101.9,98.2L1101.9,98.2z"/>
		</g>
		
			<linearGradient id="SVGID_12_" gradientUnits="userSpaceOnUse" x1="421.5843" y1="927.6942" x2="647.1848" y2="927.6942" gradientTransform="matrix(0.4992 0.9241 0.912 -0.4386 -488.1617 50.5779)">
			<stop  offset="0" style="stop-color:#CFE3F9"/>
			<stop  offset="0.5" style="stop-color:#ACD1F1"/>
			<stop  offset="1" style="stop-color:#72B7E7"/>
		</linearGradient>
		<path class="st12" d="M364.9,142.2c-0.5,0-0.5-0.4-1.4-0.4c-0.5,0-0.5,0.4-0.9,0.4c-0.5,0-0.5,0-0.9,0c-0.9-0.9-2.3,0.9-2.8,0
			c0.5-0.4,1.4-0.4,2.3-0.4h0.5c0,0,0-0.4,0.5-0.4c0.5,0,0.9,0.4,0.9,0c0.5,0,0.5,0,0.9,0c-0.5-0.4-0.9-0.4-1.4-0.4
			c-0.5,0-0.9,0-1.4,0c-0.5-0.4-0.9-0.4-1.4-0.4v0.4c-0.5,0-0.5-0.4-0.9-0.4v0.4c-0.5,0.4-0.9,0-0.9-0.4c-0.5,0-0.9,0.4-0.9,0
			l-0.5-0.9c-0.5-0.4-0.5-0.4-0.5-0.9c0,0-0.9,0-0.5-0.4c-0.5,0-0.9-0.4-0.9-0.9c-0.5,0-0.9-0.4-0.5-0.9c-0.9-0.4-1.4,0-2.3,0.4l0,0
			c0.5,0.9,1.4,0,1.9,0c0,0,0,0,0,0.4c0,0.4,0.5,0.4,0.5,0.4c-0.5,0-1.4-0.4-1.4,0.4c0.5,0.9,0.9,0.9,1.4,1.3
			c-0.5,0.4,0.5,0.9,0.9,1.3c0.5,0.4,0.9,0.4,1.9,0.4c0.9,0,2.8,0.4,3.3,1.3c-0.5,0-0.9,0-1.4-0.4h-0.5c-0.5,0-0.5-0.4-0.5-0.4
			c-0.5-0.4-2.8-0.9-2.8,0l0.5,0.4c0,0.4-0.9,0.4-1.4,0.4v0.4c0,0,0,0-0.5,0c0,0.4,0,0,0,0c-0.5,0-0.5,0.4-0.5,0.4s0.5,0.4,0.9,0
			c-0.5,0-0.9,0.9-0.5,1.3c0.5,0,0.9-0.4,1.4,0c-0.5,0.4-0.5,0-0.9,0c-0.5,0-0.5,0-0.9,0c0,0.4,0.5,0.4,0.9,0.4l-0.5,0.4
			c0.5,0.4,1.4-0.4,1.9,0c-0.5,0-0.5,0-0.9,0.4l0,0c-0.5,0-0.5,0.4-0.5,0.9c0.5,0.4,0.9,0.4,0.9,0.9c-0.5,0.4-0.5,0.4-0.9,0.9
			c0.5,0.4,0.5,0,0.9,0c0.5,0,0.5,0,0.9,0c0-0.4,0-0.4,0.5-0.4c0-0.4-0.5-0.4-0.5-0.9c-0.5,0-0.5-0.4-0.5-0.9
			c0.5-0.4,1.4-0.4,1.9,0.4l-0.5,0.4h0.9c0.5,0,0.5,0.4,0.9,0.4c0-0.4,0-0.4,0-0.9c0.5,0,0.9,0,0.9-0.4c-0.5-0.4-0.9,0-1.4-0.4
			c-0.5,0-0.9-0.4-1.4-0.9c-0.5-0.4-1.4-1.3-1.4-2.2c0,0,0,0,0.5,0c0-0.4,0.9-0.9,1.4-0.9c0,0.4-0.5,0.4-0.9,0.9c0,0,0,0,0.5,0.4
			h0.5c0,0.4,0,0.4,0,0.4c0.5,0,0.9-0.4,0.9,0c-0.5,0.4-0.5,0.4-0.5,0.9c0.5,0.9,0.9-0.9,1.9-0.4c1.4,0.9-0.5,1.3-1.4,1.7
			c0.5,0,1.9-0.4,2.3-0.4c0.5-0.4-0.9-1.3-0.9-1.7c0.5,0,0.9,0.4,1.4,0.9c0.5,0,0.5-0.4,0.5-0.4s0.5-0.4,0.9-0.4
			c0-0.4-0.5-0.4,0-0.9c0,0.4,2.3,0.4,2.3-0.4c0.5,0,0.5,0.4,0.9,0c0.5,0,0.5,0,0.5,0c-0.5,0-0.9-0.4,0-0.9
			C364.9,142.2,365.4,142.2,364.9,142.2L364.9,142.2z M353.7,155.1c-0.5,0-0.5,0.4-0.9,0.4c-0.5,0-0.9-0.4-1.4-0.4
			c0,0.4,0.5,0.9,0.9,0.9c0.5,0,0.5,0,0.9,0s0.5,0.9,0.9,0.4C354.2,156,354.2,155.5,353.7,155.1L353.7,155.1z M352.3,152.1
			c-0.5,0-0.9-0.9-1.4-1.3c-0.5,0.4,0,0.9,0,1.3c-0.5,0-0.5,0.9,0,1.3C351.3,153,351.8,152.1,352.3,152.1L352.3,152.1z M349.9,148.6
			c0,0-1.9,0.4-0.5,0.9c0.5,0,0.5-0.9,0.9-0.4L349.9,148.6z M349.9,146.9c-0.5,0-1.9-0.4-1.4,0.9
			C348.5,148.6,349.5,147.4,349.9,146.9L349.9,146.9z M349.5,162.4c-0.5,0.4-0.5,0-0.9,0l-0.5-0.4h-0.5c-0.5,0-0.9-0.4-1.4,0
			c-0.5,0-0.5-0.4-0.9-0.4c-0.5,0,0,0.4,0,0.9c-0.5,0-0.5,0-0.5,0c-0.5,0-0.5-0.4-0.5-0.4c-0.5,0-0.9,0-1.4,0
			c-0.5,0-0.9,0.4-1.9,0.4c-0.5,0-1.4,0.4-1.4,0.4c0.5,0,0.5,0.4,0.9,0.4c0.5,0,0.5,0,0.9,0s1.9-0.4,2.3,0c-0.5,0.4,0,0.9,0.5,1.3
			c-0.5,0-0.5,0-0.9,0c-0.5-0.4-0.9-0.4-1.4,0v0.4c-0.5,0-1.9-0.4-2.3,0.4l0.5,0.4c0.5,0,1.4,0,1.9-0.4c0.5,0,0.9,0.4,0.9,0.4
			c0-0.4-0.5-0.4-0.5-0.9l0,0c0,0,0,0,0.5,0c0-0.4,0.9-0.4,0.9,0c0,0,0.5-0.4,0.9-0.4c0.5,0.4,0.9,0.9,1.4,0.4
			c0.5-0.4-0.5-0.9-0.5-1.7c0.5,0,0.9-0.4,0.9-0.4c0.5,0,0.5,0,0.5-0.4c0,0,0-0.4,0.5-0.4C348.5,163.3,349,162.9,349.5,162.4
			L349.5,162.4z M374.3,162.4c-0.5,0.9,0.5,1.3,0.9,1.7c-0.5,0-0.5,0-0.9,0.4c-0.5,0.4-0.9,0-0.9,0.4c0,0.4-1.4,1.7,0,1.3
			c-0.5-0.4-0.9-0.9-1.4-1.3c-0.9,0-1.4-0.4-1.9-0.4c-0.9,0.9,0,0,0,0.4c-0.5-0.4-0.9,1.3-1.4,1.3c-1.4,0.4-1.9,0-0.9-0.4
			c0.9-0.9-0.5,1.3,0,1.3c0.9,0.9,0.5,0,1.9,0.4c0,0-0.9,0-0.9,0.4c0.5,0,0.5,0,0,0.4c-0.5,0.4,0.5,0.4,0.9,0.4c0,0,1.4-0.9,1.4-0.4
			c0,0-0.9,0.4-0.5,1.3c1.4-0.9,0.5-0.9,0.9-0.4c0,0-0.5,0,0-0.4c0.5,0,0,0,0.5,0h0.5c0.5,0,0-0.4,0.9-0.9c-0.9,1.3,1.9-0.4,0.9,0
			c0.5,0.4,0.9,0.9,0.5,1.3c0,0.9,0.5,0.9,0.9,1.3c0-0.4-0.5-1.3-0.9-1.3c0.5-0.4-0.9-0.4-0.5-1.3c0.9,0,0.5,1.7,1.4,0.9
			c0.5-0.4,0.9-1.3,1.9-0.9l0.5-0.4c-0.5-0.9-0.9-1.7-1.4-2.6c-0.5-0.9-1.4-1.7-1.9-2.2C372,156,373.9,162.4,374.3,162.4z
			 M381.8,180.5l-0.5-0.4c-0.5,0-0.9,0-1.4,0.4c0,0.4,0.5,0.9,0.9,1.3C381.4,181.4,380.9,181,381.8,180.5L381.8,180.5z M772.6,143.5
			c1.4,1.3,0.9,1.3,0.9,1.3c0.5,0,0.5-0.4,1.4,0c0.9,0.9-0.9,0,0,1.3c0.5,0.4-0.9-0.9,0.9,0.4c0.5,0.4-0.5,0,1.4,1.7
			c-0.9-0.9,0,0,0.9,0.9c-1.4-1.3,0.5,0.9,0.5,0c0.5-0.9,1.4-0.9,0.5-2.2c-1.4-1.7,0-0.4,0.5-0.4c0.9,0.9,0.9,1.3,0,1.3
			c0.5,0,0-0.4,1.4,0.9c-1.4-0.9-0.9,0-0.5,0.9c0-0.4,1.9,0.9,1.4-0.4c0.9,1.3-1.4,0.9-1.4,1.7c0.9,1.7,1.9,1.7,1.4,0
			c0.9,0.9,0,0,0.5,0.9c0.5,0,2.3,1.3,0.5-0.4c-0.5-0.9,0.5,0-0.5-1.3c0.5-0.4,3.3,0.9,1.4-0.9c0-1.3,1.4-1.7,1.4-2.2
			c0,0,0.5,0.4,0,0c0.5-0.4,0.9,1.3,0.5,2.2c-2.3-0.9-2.3,0.9,0,2.6c0,0,1.4,0.4,1.4,0c0.9,0.4,1.9,1.3,1.4,0.4
			c1.4,0.9-0.9-0.9,1.4,0c-0.5-0.9,0.5-0.9,0.9-0.9c0.9,0.9,0,0.9,0,1.3c0,0.4,0.5,0.4,0.9,0.9c-1.4-1.3-0.9-0.9,0.9,0.4
			c0.5,0.4-0.9,0,0.9,0.9c-2.3,0.9,2.8,3.4,1.9,3.4c0-2.2,1.4-0.9,0.5-3c-0.5-0.4,1.4,0.9,2.3,1.7c0.5,0.4,3.3,3,2.3,2.2
			c0.5,0.4-0.9,0.4,0.9,3c0.9,1.7,1.4,2.2-0.9,2.2c-1.9-0.4,0.9,2.2,2.3,2.6c-1.4-1.7,0,0,0.9,0.4c0.5-0.4,0.5-0.9,1.4-0.4
			c0.5-0.4,2.3,2.2,2.3,2.2c0.5-1.3,3.3,1.3,2.8,0.9c0.5,0.4-0.5-0.4-0.5,0c1.4,0,1.9-0.4,3.8-0.4c-2.8-2.6-2.3-2.2-2.3-1.7
			c2.8,1.7-0.5-1.7,1.4-0.9c2.3,1.3,2.3,1.3,0-1.3c2.3,1.7,2.3-0.4,0.9-2.2c1.9,1.7,0,0.4,1.4,3c0.9,1.7,1.9,4.3,0,3.4
			c0,0.4,0.5,2.2,0.9,3.4c1.9,2.6,1.9,2.6,2.3,1.7c1.9,0.4,3.3,2.2-0.9-2.6c0.9-0.4,1.9-0.4,1.4-0.4c0.5,0.4,1.4,1.7,0.9,1.3
			c0.9,0,0-1.3,0.9-1.3c-0.5-1.3-2.3-1.7-2.3-1.7c-1.9-1.3-2.3-2.6-1.4-2.6c0-0.4-0.9-1.7-1.4-2.6c0.5,0,0.5-0.4,0-1.3
			c1.4,0.4,0-0.9-0.5-1.7c-1.4-1.7-2.3-3-0.9-2.6c1.4,1.3-0.5-0.9-1.4-1.3c-1.4-0.9,0,1.3-1.4,0c-1.4-0.4-1.9-1.3-3.3-0.4
			c-0.9-0.9-0.9-1.7-2.3-2.6c-0.9-0.4-0.9,0.4-3.8-1.7c0.5,1.3,1.4,2.6-0.5,2.2c0,0.4-1.4-2.2-0.9-3c1.4,0.4-2.8-3-1.4-3
			c0-0.9,3.3-0.4,1.4-2.2c-0.5-1.3-2.3-0.9-2.8,0c-0.5-0.4-0.5-1.3-1.4-1.7c0.9,1.3-1.4-0.4-0.9,0.4c-2.3-1.3-0.5-1.7-1.4-3.4
			c0-0.9,0.5-0.9-0.5-1.7c-0.5-0.4-0.9,0-1.4-0.9c-0.5-1.3,2.3-1.7,0.9-3.4c-0.5-2.6-2.3-0.4-2.3,0.9c-0.5-0.9-1.9-2.2-2.8-2.2
			c0,0.4-1.4,0-0.5,1.7c-1.9-0.4,0.9,1.3-1.4,0c1.9,2.2,0,1.3-1.4,0.9c-2.3-0.9-1.9-1.7-1.4-0.4c-0.9,0.4,0.9,3-2.8,0
			c-1.9-1.7-1.4-1.3-1.4-0.9c-1.9-0.9-0.5,0.9-1.4,0.4c-0.9-3,0.5-1.7,1.9-2.6c1.4,0,0.5-2.6,2.8-1.7c1.9,0.4,2.8,0,2.8-0.9
			c0.9-0.4,1.4-1.3,2.8-1.3c0.9,0,2.8,0.4,2.8-0.9c0.5-1.3-1.9-0.9-2.3-0.9c-0.9,0-1.9,0.4-2.8,0.9c-0.9,0.4-1.4,1.3-2.3,1.7
			c-0.9,1.3-1.4,2.2-3.8,2.2c0,0.9,0,2.2-2.3,1.7c-0.9,0-5.6,1.7-5.6,1.7c0,0.9-4.7,5.2-3.3,6.5
			C769.8,143.5,770.2,141.7,772.6,143.5z M794.6,136.6c0,0-0.9,0.9-0.9,1.7c1.4,1.3,3.3,2.6,5.2,3c0.5-1.3,2.8-2.2,3.3-3.4
			c-0.5-0.4-0.9,0-1.9,0c-0.9,0-0.9-0.9-1.4-0.9c-0.9-0.4-3.8,0.4-3.8-1.3L794.6,136.6z M804.9,144.3c0,0.9-0.5,1.3,0,2.6
			c-1.4,0,0.9,1.7,0.9,2.2c0.5,0.4,0.5,0.4,2.8,1.3c0-0.4,2.3,0.4,2.3-0.9c0-0.9,0.9-1.3-0.9-1.7c-0.5,0.4,1.9,2.2-1.4,0
			c-1.9-1.3-0.9-0.9-1.9-1.7c-1.4-0.9-0.9-1.3-1.4-2.2L804.9,144.3z M811.5,146.9c0,0,3.8,2.6,3.3,0c0.5-1.7-1.9-0.4-3.8-1.3
			c0.9,0.9,0.9,0.4,0.5,0C812.4,146.5,810.6,146.1,811.5,146.9z M791.8,126.2c0,0,1.4,1.3,1.4,0c1.4,1.3,2.3-0.4,0.9-1.3
			c-0.5-0.4-1.9,0-2.3,0.4c0,0,0-0.4,0.5-0.4L791.8,126.2z M787.1,120.6c0,0.4-1.4,0.9-1.9,1.3c1.4,1.3,3.8-1.7,4.7-2.2
			c2.3-0.9,2.8,1.3,4.7,1.3c0,0.4,0.5,0.4,0.5,0.4c0.9-0.4,0.9-2.6,1.9-3.4c-0.5-0.9-2.3-0.9-3.3-0.9c0.9-0.9,3.3-0.9,4.2-1.3
			c1.9-0.4,2.8,0,4.7,0.9c0,0.9-1.4,1.3-1.9,2.2c0,0.4,0,0.4,0,0.9c-1.4,0-0.9-2.2-2.3-0.9c-0.5,0.4-1.4,2.2,0,2.6
			c0.9,0.4,4.7-0.9,5.6-0.9c2.3-0.4,3.3-2.2,5.2-3c1.4-0.9,4.2-1.3,6.1-1.7c1.4,0,5.6,1.3,6.1-0.4c0.5-1.3-1.9-4.7-2.3-3
			c-1.9-1.3-1.4-0.4-1.9,1.3l0,0c0-0.4-0.5-1.3-1.4-1.7c-0.5,0.9,0,1.7,0,2.6c-1.4-1.3-1.4-3.9-1.4-6c0.9,0.4,1.4,0.9,2.3,1.7
			c0.9,0.4,1.4,0.4,2.3,0.9c0,0,0.5-0.9,0.9-0.9c0.5,0,0.9,0.4,0.9,0.4c0.9,0,0.9-1.3,2.3,0c1.4-1.7-2.3-2.2-0.5-3
			c0.5-0.4,0.9-0.4,1.9-1.3c0.5-0.4,0.9-0.9,1.9-0.9c0.5-0.9,2.8-0.4,0.9-1.7c-0.9,0-2.3,0.9-2.8-0.9c-0.5-1.3,0.5-1.3-0.5-2.6
			c0.9-1.3,1.9-0.9,2.8-1.3c0.9-0.4,2.3-1.3,2.8-2.2l-0.5-0.4c-2.3,0-2.8-0.4-2.8-2.6c0,0-0.5,0-0.5,0.4c-0.9-0.4-0.5-1.3-0.5-1.7
			l0,0c0.5-0.9,0.9-2.6,1.4-3.9l0,0c0.9-0.9,0.9-1.3,1.9-1.7c0.9-0.4,1.4-0.9,1.9-1.3c-0.9,1.3-2.3,3-2.3,4.7c0.9,0,2.3-2.6,2.8-0.4
			c0.5,0,1.4-0.4,1.4-0.9c0,0-0.5,0-0.5-0.4c0,0,0.5,0.4,0.9,0.4c0.5-0.4,0.5-1.3,0.9-1.7c0,0,0,0-0.5,0c0.5,0,0.9,0.4,1.4,0.4
			c-1.4,1.3,0.5,1.7,0.9,3.4c1.4,0.4,1.4-1.3,2.8-1.3c-0.9-0.9,0-2.6,0.9-2.6h0.5c1.4,0,0.9,1.3,0.9,2.2c1.4,0.4,0.9-2.2,1.4-2.6
			s0.9-0.4,0.9-1.3c0-0.4,0-1.3,0-1.7c-1.4,0-1.4,0.4-1.9,1.3c-0.5-0.4-0.5-1.7,0-2.2c-0.5,0-1.4,0-1.9-0.4c-0.9-0.9,0-2.2,0-2.6
			c-1.4,0-1.4,1.3-2.3,1.7c-0.5,0.4-0.9,0-1.4,0.4s-0.5,0.9-0.9,1.3c-0.9,0.9-1.4,0.4-2.3,0.9c-0.9,0.4-1.4,1.7-2.3,1.3
			c0,0-5.6,5.2-8.4,7.3c-1.9,1.3,2.3,0.9,0.9,2.2c-1.4,1.3-6.6,3.4-8,4.3c-1.4,1.3,5.6-0.9,4.2,0.4c-1.4,1.3-12.7,8.6-14.1,9.9
			c-2.3,1.3-9.9,5.2-11.7,6.5C790.9,118.5,787.1,120.6,787.1,120.6z M822.8,119.8c0,0.4-0.5,0.9-0.5,1.3c0,0.9,0,0,0.9,0.4
			c0.5,0.4,0.5,0.4,0.9,0.9c0.5,0.4,0,0.9,0.5,1.3c0.9,0.9,1.4,0,2.3,1.3c0.5,0.4,0.5,0.9,0.9,1.3c0.5,0.4,0.5,0,0.9,0.4
			c0.5-0.4,0.5-0.9,0.5-1.3c0.5,0,0.9,0,0.9,0.4c0.5-0.4,0.5-0.9,0.9-0.9c0.5,0.9,0.5,1.3,0.5,2.2c0.5,0,0.9,0.4,1.9,0.4
			c0.9-1.3,0.5-1.7,1.9-0.4c0,0.4-0.5,0.9-0.5,0.9c0.5,0,0.9,0,1.4-0.4c0,0.4,0,0.9,0,0.9c0.5,0.4,0.5,0.4,0,0.9c0.5,0,0.5,0,0.9,0
			c0,0.9-0.5,3-0.5,3.4c1.4,1.3,1.9-0.9,1.9-1.3c1.4,0.4,0,1.7,0,2.6c-0.5,0.9-0.5,0.9-0.5,1.7c0.5,0.9,0.5,2.2,1.4,1.7
			c0.9-0.4,1.4-2.2,1.4-2.6c-0.5-0.4-0.9-1.3-0.5-1.7c0,0,0,0,0.5,0c0-0.4-0.5-1.3-0.5-1.7s0-0.9,0-1.3c-0.5-1.3-1.4-0.9-1.9-2.2
			c0.9-0.9,2.3-0.4,3.3,0c0.5,0.4,0.9,0,0.9,0.9c0,0.4,0,1.7,0,2.2c0.5,0.4,0.5,1.3,0.5,1.7c0.5,0.4,0.5,0,0.9-0.4
			c0.9-0.4,0-0.4,0.9-0.4c0.9,0,1.4,0.9,1.9-0.9c0.5-0.4,1.4,0,0.5-0.9c-1.4-0.4-1.9-0.9-1.9-2.6c-0.9-0.4-1.4-0.9-1.9-1.3
			c-0.9-0.4-1.9-0.4-2.8-0.4s-1.4,0-2.3-0.4c-0.9-0.4-1.4-0.9-2.3-1.3c-1.4-0.4-3.3-0.4-3.3-1.7c0-0.9,1.9-3.4,0.9-3.9v0.4h-0.9
			c0.5-1.3,1.4-2.6,1.9-3.9c0-0.4,0.5-1.7,0-1.7c-0.5-0.9-0.9-0.4-0.9,0.4c0.9-1.3-0.5-3.4-1.9-2.2c1.4,1.7,0.9,3,0.5,4.7
			c0,0.4-0.5,1.3-0.5,2.2c0,0.4,1.4,1.3,0.5,1.7c-0.5,0.4-3.8-1.7-4.7-1.7c-0.9,0-0.9,0-1.9,0.4c-0.5,0.4-0.9,0.9-1.4,0.9
			s0-0.4,0-0.4L822.8,119.8z M836.8,120.2c0,0.4,0,0.9,0.5,1.3c0.5,0.4,0.9,0,0.9,0.4c0.9,0.4,1.4,0.4,2.3,0.9
			c0.9-1.3-0.5-1.3-0.5-2.6c-0.5-1.3,1.4-0.9,0.9-2.6c-1.9-0.4-1.9,1.3-3.3,2.2C837.8,119.8,836.8,120.2,836.8,120.2z M830.7,105.5
			c-1.4,2.2,1.9,3.4,1.4,0.9c-0.9,0-1.9-0.9-0.9-1.7L830.7,105.5z M838.7,95.2c-0.5,0.4-0.5,3,0.5,2.6c0,0.9,1.9,2.6,2.8,3
			c0.5-0.4,0.5-1.3,1.4-1.3c0,0.9,0,1.7,0.5,2.6c0.9-0.9,1.9-1.7,1.9-3c0-0.4-0.9-0.9-0.9-1.7c0-0.9,0.5-1.3,0.9-1.3
			c1.4-0.4,2.3,0,3.3-0.9c0.9-0.4,1.9-2.2,1.4-3c-0.9,0.4-0.9,0.9-1.9,1.3c-0.9,0.4-0.9,0.9-1.9,1.3c-0.5-2.2-2.3,0.4-2.8,0.4
			c-0.9-1.7-1.9-0.4-3.3-0.4c0,0-0.5-0.4-0.9-0.4l-0.5,0.4C838.7,94.8,838.7,95.2,838.7,95.2z M846.7,77.9l-0.5,0.4
			c1.4,0.4,1.9,0.4,1.4,2.2c0,1.7-0.5,3,0.5,4.3c0.5,0.4,0.5,1.7,1.4,0.9c0.5-0.4-0.5-1.3-0.5-1.7c-0.5-1.3,0-3,0.9-3.9
			c0.9,0.9-0.5,2.6,0.5,3.4c0.9,0.9,1.4-0.4,1.9-1.3c0.5-1.3-0.5-1.7-0.5-2.6s0.5-1.7,0.9-2.6c0,0.9,0.9,1.7,1.4,2.2
			c0-0.4,0-1.7,0.5-1.7c0.5-0.4,1.4,0.4,1.9-0.9c0-0.9-0.9-1.3-1.4-1.7s-0.5-1.3-0.5-1.7c-0.9,1.3-2.3,1.3-3.3,2.6
			c0.5,0.4,0,0.9-0.5,1.7c-0.5,0-0.9,0-0.9,0.4c-0.5-1.3,0.9-2.2,0.5-3.4c0,1.3-2.3,2.2-3.3,2.6C846.7,77.1,846.7,77.9,846.7,77.9z
			 M852.3,86.1c-0.5,0-1.9,3.9,0,3.9c0,1.3,0.5,2.6,1.4,3.9c0.5-0.4,0.5-1.7,0.5-2.2c0.9,1.3,2.3,0,2.8-1.3c0-0.9-0.9-1.3-1.9-1.7
			c-0.5,0.4-1.4,2.6-2.3,0.9c-0.5-0.9,0.5-2.6,0.5-2.2L852.3,86.1z M857,79.2c-0.5,0.4-0.9,1.7-0.9,2.6s0.5,1.7,1.4,2.2
			c0-1.3,0.5-2.2,0.5-3s-0.5-2.2,0-3L857,79.2z M865.5,79.2c2.3,0.9-1.9-0.4,0,1.3c-3.3-1.3-1.4,0.4-0.5,1.7c-0.9,0.9-1.4,2.6,0,3.9
			c1.4,0.9,2.3,0.9,1.4-0.4c0,0.4,1.4,1.7,0.5,2.2c1.4,1.7-1.9,0.9-0.5,2.2c-0.9,0.4,0,2.6,0,3.4c-0.5,0.4,0,0.9,1.4,2.2
			c1.4,0.4,0-2.6,1.4-2.6c0.5-1.7,1.4,0,2.3-0.4c1.4-0.4-0.5-2.2,0-3c-0.5-1.3-0.9-3,0-3.4c0.5,0.4-0.9,0.4,1.9,2.6
			c-0.9,0,2.3,2.2,1.4,2.2c0.9,0.9,2.3,2.2,1.9,1.7c2.3,0.9,0.5-1.7,0.9-2.6c-2.8-2.6,0.9-0.9,1.4,0.4c-1.4,0-0.9,3.4-0.9,4.3
			c-0.5,0,3.8,1.7,1.4,0.4c-0.5,0,3.8,2.6,1.4,1.7c0.5,0.9,1.4,2.6,2.8,3c0.9,0-1.4-1.7,0-1.3c1.9,0,0.9-0.4,1.4-0.9
			c3.3,0.4-3.8-14.2-1.9-13.8c-1.9-1.7-0.5-1.7-0.9-2.6c-0.5-1.3-1.9-1.7-0.9-2.2c-0.5,0.4,0.5,2.2-1.9,2.2c0,1.3,0.5,2.6-1.4,2.2
			c-2.3-2.2,2.3-0.4,0.9-2.6c-0.9-1.7,1.9-1.3,0.9-2.6c-0.9,0-1.9,1.3-2.3,2.2c-1.4-1.3-2.3-2.6,0-2.2c1.4,1.3-0.5,1.3-1.9,0.9
			c-0.5,1.7-0.5,3-2.8,3c-0.5-1.3,1.4-1.3,0.9-2.6c0.9-0.9,2.3-0.9,2.8-1.3c0,0,0.5,0,0,0c0.9,0.4,0.5,0.4-0.5,0
			c1.4,0,1.9-0.4,1.4-2.2c0.9-0.4,0-1.3-1.4-1.3c-0.9,0-0.9,1.3-1.9,0.9c0-0.9,0.5-2.6-1.4-2.6c0.5,1.3,1.9,3-0.5,2.6
			c0.5,1.7,0,3-1.4,3.4c0.5,0.9-1.9,0-0.9,0.4c-0.9-0.4-1.4,0.4-0.9,0.9c-0.5,0.9-1.4-0.9-1.4-1.7C866.9,78.4,864.5,78.4,865.5,79.2
			z M875.3,64.1c0.5,1.3,1.4,1.3,1.4,0c0.9-0.4-0.5-1.7-0.5-2.6C874.8,60.7,874.8,63.3,875.3,64.1z M860.3,68c0,0.4-0.9,3.9,0.9,2.6
			c1.4-0.9,0-2.6-0.9-3V68z M889.4,74.5c-0.9,0.9,0.5,3,1.4,3c1.9,0-1.4-2.6,0-2.6C889.8,73.2,891.3,74.1,889.4,74.5z"/>
		
			<linearGradient id="SVGID_13_" gradientUnits="userSpaceOnUse" x1="474.6146" y1="475.7407" x2="494.403" y2="494.8919" gradientTransform="matrix(1 0 0 -1 0 598)">
			<stop  offset="0" style="stop-color:#BCD8F9"/>
			<stop  offset="0.5" style="stop-color:#9DC7F1"/>
			<stop  offset="1" style="stop-color:#68B0E7"/>
		</linearGradient>
		<path class="st13" d="M462,71.9c-3.3-0.4,3.8,3.4,0,12.5c-1.4,3.4,7.5-0.9,9.4,3.4c1.9-0.4,3.8-0.4,5.6,0c0,0.4,0,0.4,0,0.9
			c0,0,0-0.4,0.5-0.4c0.5,3.4,4.7,3.4,7,5.2c2.3,1.7,3.8,5.2,5.2,7.8c3.3,6,3.8,17.2,10.3,21.6c-0.5-2.2-0.5-4.3-0.9-6.5
			c2.3,0.4,4.2,1.7,5.2,3.9c9.4-2.2,16.4,10.8,26.3,11.2C494.4,102.1,478.5,74.9,462,71.9z"/>
	</g>
</g>
</svg>
