<?xml version="1.0" encoding="utf-8"?>
<!-- Generator: Adobe Illustrator 20.1.0, SVG Export Plug-In . SVG Version: 6.00 Build 0)  -->
<svg version="1.1" id="Layer_1" xmlns="http://www.w3.org/2000/svg" xmlns:xlink="http://www.w3.org/1999/xlink" x="0px" y="0px"
	 viewBox="0 0 33.4 44.3" style="enable-background:new 0 0 33.4 44.3;" xml:space="preserve">
<style type="text/css">
	.st0{fill:#345770;}
</style>
<path class="st0" d="M795.3,736.8c-0.1-0.3-0.3-0.2-0.5-0.3c-2.1-1-2.6-3.4-0.9-5.1c3.2-3.2,6.4-6.4,9.6-9.6c0.6-0.6,0.5-0.8,0-1.3
	c-3.1-3-6.1-6.1-9.2-9.1c-2.3-2.3-1.7-4.8,1.3-5.8c0.3,0,0.6,0,0.9,0c1,0.3,1.7,0.9,2.4,1.6c3.7,3.7,7.4,7.4,11.1,11.1
	c0.7,0.7,1.4,1.5,1.7,2.5c0,0.4,0,0.8,0,1.2c-0.7,1.3-1.7,2.2-2.7,3.2c-3.2,3.2-6.5,6.4-9.7,9.6c-0.9,0.9-1.7,1.7-2.9,2
	C796,736.8,795.6,736.8,795.3,736.8z"/>
<path class="st0" d="M11.3,37.8c-0.1-0.3-0.3-0.2-0.5-0.3c-2.1-1-2.6-3.4-0.9-5.1c3.2-3.2,6.4-6.4,9.6-9.6c0.6-0.6,0.5-0.8,0-1.3
	c-3.1-3-6.1-6.1-9.2-9.1C8,10.1,8.6,7.6,11.6,6.6c0.3,0,0.6,0,0.9,0c1,0.3,1.7,0.9,2.4,1.6c3.7,3.7,7.4,7.4,11.1,11.1
	c0.7,0.7,1.4,1.5,1.7,2.5c0,0.4,0,0.8,0,1.2c-0.7,1.3-1.7,2.2-2.7,3.2c-3.2,3.2-6.5,6.4-9.7,9.6c-0.9,0.9-1.7,1.7-2.9,2
	C12,37.8,11.6,37.8,11.3,37.8z"/>
</svg>
