<?xml version="1.0" encoding="utf-8"?>
<!-- Generator: Adobe Illustrator 20.1.0, SVG Export Plug-In . SVG Version: 6.00 Build 0)  -->
<svg version="1.1" id="Layer_1" xmlns="http://www.w3.org/2000/svg" xmlns:xlink="http://www.w3.org/1999/xlink" x="0px" y="0px"
	 viewBox="0 0 33.4 44.3" style="enable-background:new 0 0 33.4 44.3;" xml:space="preserve">
<style type="text/css">
	.st0{fill:#345770;}
</style>
<path class="st0" d="M22.5,6.6c2.1,0.7,2.9,1.9,2.7,3.7c-0.1,0.8-0.5,1.3-1.1,1.9c-3.2,3.1-6.3,6.3-9.5,9.4c-0.6,0.5-0.5,0.8,0,1.2
	c3.1,3.1,6.1,6.3,9.3,9.2c1.9,1.8,1.6,5.2-1.4,5.7c0,0,0,0.1,0,0.1c-0.4,0-0.7,0-1.1,0c-1.1-0.5-1.9-1.4-2.8-2.2
	c-3.1-3.1-6.3-6.3-9.4-9.4c-1-1-2.1-1.9-2.8-3.2c0-0.5,0-0.9,0-1.4c0.3-1,1.1-1.7,1.8-2.4c3.7-3.6,7.3-7.3,11-10.9
	c0.7-0.7,1.4-1.3,2.4-1.6C21.9,6.6,22.2,6.6,22.5,6.6z"/>
</svg>
