<?xml version="1.0" encoding="utf-8"?>
<!-- Generator: Adobe Illustrator 20.1.0, SVG Export Plug-In . SVG Version: 6.00 Build 0)  -->
<svg version="1.1" id="Layer_1" xmlns="http://www.w3.org/2000/svg" xmlns:xlink="http://www.w3.org/1999/xlink" x="0px" y="0px"
	 viewBox="0 0 48.5 43.1" style="enable-background:new 0 0 48.5 43.1;" xml:space="preserve">
<style type="text/css">
	.st0{fill:#345770;}
	.st1{fill:#113A41;}
</style>
<path class="st0" d="M805.7,736.2c-0.1-0.3-0.3-0.2-0.5-0.3c-2.1-1-2.6-3.4-0.9-5.1c3.2-3.2,6.4-6.4,9.6-9.6c0.6-0.6,0.5-0.8,0-1.3
	c-3.1-3-6.1-6.1-9.2-9.1c-2.3-2.3-1.7-4.8,1.3-5.8c0.3,0,0.6,0,0.9,0c1,0.3,1.7,0.9,2.4,1.6c3.7,3.7,7.4,7.4,11.1,11.1
	c0.7,0.7,1.4,1.5,1.7,2.5c0,0.4,0,0.8,0,1.2c-0.7,1.3-1.7,2.2-2.7,3.2c-3.2,3.2-6.5,6.4-9.7,9.6c-0.9,0.9-1.7,1.7-2.9,2
	C806.4,736.2,806,736.2,805.7,736.2z"/>
<path class="st1" d="M23.4,5.1c0,0.1-0.1,0.1-0.2,0.1c-0.1,0-0.1,0-0.1-0.1C23.2,5.1,23.3,5.1,23.4,5.1z"/>
<path class="st1" d="M27.4,5.1c0,0.1,0,0.1-0.1,0.1c-0.1,0-0.2,0-0.2-0.1C27.2,5.1,27.3,5.1,27.4,5.1z"/>
<path class="st1" d="M8.4,19.8c0.1,0,0.1,0,0.1,0.1c0,0-0.1,0.1-0.1,0.1C8.4,19.9,8.4,19.8,8.4,19.8z"/>
<path class="st1" d="M8.4,23.9c0,0,0.1,0.1,0.1,0.1c0,0-0.1,0-0.1,0C8.4,24,8.4,23.9,8.4,23.9z"/>
<path class="st1" d="M745.9,1768.3c1.2,0,2.4,0,3.7,0c0,0.1,0.1,0.1,0.2,0.1c0.1,0,0.1,0,0.1-0.1c0.2,0,0.4,0,0.6,0
	c0.2,0.5,0.7,0.3,1.1,0.4c8.8,2.1,14.7,10.8,12.6,19.9c-1.6,7.1-6.2,11.4-13.3,13c-0.1,0-0.5-0.1-0.3,0.3c-1.8,0-3.7,0-5.5,0
	c-0.2-0.6-0.8-0.3-1.2-0.4c-8.9-2.1-14.7-11.3-12.5-20c1.7-7,6.2-11.3,13.3-12.9c0.1,0,0.4,0.1,0.3-0.3c0.2,0,0.4,0,0.6,0
	c0,0.1,0,0.1,0.1,0.1C745.8,1768.5,745.9,1768.4,745.9,1768.3z M740.3,1790.2c0.1,0.1,0.1,0.2,0.1,0.2c0.1,0,0.1,0.1,0.2,0.1
	c3.1,1.6,6.3,1.7,9.3,0c3-1.7,4.5-4.4,4.7-7.9c0-0.5,0.1-0.9,0.5-1.2c0.4-0.3,0.8-0.7,1-1.2c-0.5,0-0.9,0.3-1.4,0.2
	c0.4-0.5,0.9-0.9,1-1.6c-0.3,0.1-0.4,0.2-0.6,0.3c-0.8,0.3-1.4,0.6-2.3-0.1c-1-0.8-2.3-0.7-3.4,0c-1.1,0.7-1.7,1.7-1.6,3
	c0,0.6-0.1,0.6-0.6,0.5c-2.3-0.3-4.2-1.3-5.7-2.9c-0.5-0.5-0.6-0.3-0.8,0.2c-0.4,1.4,0,2.6,1.1,3.8c-0.3-0.1-0.4-0.1-0.6-0.1
	c-0.8-0.2-0.9-0.2-0.7,0.6c0.3,1.1,1,1.8,2,2.3c-0.3,0.2-0.7,0-1,0.2c0.5,1.3,1.4,1.9,2.8,2.3C743.4,1790,741.9,1790.3,740.3,1790.2
	z"/>
<path class="st1" d="M23.9,5.3c1.2,0,2.4,0,3.7,0c0,0.1,0.1,0.1,0.2,0.1c0.1,0,0.1,0,0.1-0.1c0.2,0,0.4,0,0.6,0
	c0.2,0.5,0.7,0.3,1.1,0.4c8.8,2.1,14.7,10.8,12.6,19.9c-1.6,7.1-6.2,11.4-13.3,13c-0.1,0-0.5-0.1-0.3,0.3c-1.8,0-3.7,0-5.5,0
	c-0.2-0.6-0.8-0.3-1.2-0.4C13,36.4,7.2,27.2,9.4,18.5c1.7-7,6.2-11.3,13.3-12.9c0.1,0,0.4,0.1,0.3-0.3c0.2,0,0.4,0,0.6,0
	c0,0.1,0,0.1,0.1,0.1C23.8,5.5,23.9,5.4,23.9,5.3z M18.3,27.2c0.1,0.1,0.1,0.2,0.1,0.2c0.1,0,0.1,0.1,0.2,0.1c3.1,1.6,6.3,1.7,9.3,0
	c3-1.7,4.5-4.4,4.7-7.9c0-0.5,0.1-0.9,0.5-1.2c0.4-0.3,0.8-0.7,1-1.2c-0.5,0-0.9,0.3-1.4,0.2c0.4-0.5,0.9-0.9,1-1.6
	c-0.3,0.1-0.4,0.2-0.6,0.3c-0.8,0.3-1.4,0.6-2.3-0.1c-1-0.8-2.3-0.7-3.4,0c-1.1,0.7-1.7,1.7-1.6,3c0,0.6-0.1,0.6-0.6,0.5
	c-2.3-0.3-4.2-1.3-5.7-2.9c-0.5-0.5-0.6-0.3-0.8,0.2c-0.4,1.4,0,2.6,1.1,3.8c-0.3-0.1-0.4-0.1-0.6-0.1c-0.8-0.2-0.9-0.2-0.7,0.6
	c0.3,1.1,1,1.8,2,2.3c-0.3,0.2-0.7,0-1,0.2c0.5,1.3,1.4,1.9,2.8,2.3C21.4,27,19.9,27.3,18.3,27.2z"/>
</svg>
