<?xml version="1.0" encoding="utf-8"?>
<!-- Generator: Adobe Illustrator 20.1.0, SVG Export Plug-In . SVG Version: 6.00 Build 0)  -->
<svg version="1.1" id="Layer_1" xmlns="http://www.w3.org/2000/svg" xmlns:xlink="http://www.w3.org/1999/xlink" x="0px" y="0px"
	 viewBox="0 0 48.5 43.1" style="enable-background:new 0 0 48.5 43.1;" xml:space="preserve">
<style type="text/css">
	.st0{fill:#345770;}
	.st1{fill:#113A41;}
</style>
<path class="st0" d="M805.7,736.2c-0.1-0.3-0.3-0.2-0.5-0.3c-2.1-1-2.6-3.4-0.9-5.1c3.2-3.2,6.4-6.4,9.6-9.6c0.6-0.6,0.5-0.8,0-1.3
	c-3.1-3-6.1-6.1-9.2-9.1c-2.3-2.3-1.7-4.8,1.3-5.8c0.3,0,0.6,0,0.9,0c1,0.3,1.7,0.9,2.4,1.6c3.7,3.7,7.4,7.4,11.1,11.1
	c0.7,0.7,1.4,1.5,1.7,2.5c0,0.4,0,0.8,0,1.2c-0.7,1.3-1.7,2.2-2.7,3.2c-3.2,3.2-6.5,6.4-9.7,9.6c-0.9,0.9-1.7,1.7-2.9,2
	C806.4,736.2,806,736.2,805.7,736.2z"/>
<path class="st1" d="M23.4,5.1c0,0.1-0.1,0.1-0.2,0.1c-0.1,0-0.1,0-0.1-0.1C23.2,5.1,23.3,5.1,23.4,5.1z"/>
<path class="st1" d="M27.4,5.1c0,0.1,0,0.1-0.1,0.1c-0.1,0-0.2,0-0.2-0.1C27.2,5.1,27.3,5.1,27.4,5.1z"/>
<path class="st1" d="M8.4,19.8c0.1,0,0.1,0,0.1,0.1c0,0-0.1,0.1-0.1,0.1C8.4,19.9,8.4,19.8,8.4,19.8z"/>
<path class="st1" d="M8.4,23.9c0,0,0.1,0.1,0.1,0.1c0,0-0.1,0-0.1,0C8.4,24,8.4,23.9,8.4,23.9z"/>
<path class="st1" d="M745.9,1768.3c1.2,0,2.4,0,3.7,0c0,0.1,0.1,0.1,0.2,0.1c0.1,0,0.1,0,0.1-0.1c0.2,0,0.4,0,0.6,0
	c0.2,0.5,0.7,0.3,1.1,0.4c8.8,2.1,14.7,10.8,12.6,19.9c-1.6,7.1-6.2,11.4-13.3,13c-0.1,0-0.5-0.1-0.3,0.3c-1.8,0-3.7,0-5.5,0
	c-0.2-0.6-0.8-0.3-1.2-0.4c-8.9-2.1-14.7-11.3-12.5-20c1.7-7,6.2-11.3,13.3-12.9c0.1,0,0.4,0.1,0.3-0.3c0.2,0,0.4,0,0.6,0
	c0,0.1,0,0.1,0.1,0.1C745.8,1768.5,745.9,1768.4,745.9,1768.3z M740.3,1790.2c0.1,0.1,0.1,0.2,0.1,0.2c0.1,0,0.1,0.1,0.2,0.1
	c3.1,1.6,6.3,1.7,9.3,0c3-1.7,4.5-4.4,4.7-7.9c0-0.5,0.1-0.9,0.5-1.2c0.4-0.3,0.8-0.7,1-1.2c-0.5,0-0.9,0.3-1.4,0.2
	c0.4-0.5,0.9-0.9,1-1.6c-0.3,0.1-0.4,0.2-0.6,0.3c-0.8,0.3-1.4,0.6-2.3-0.1c-1-0.8-2.3-0.7-3.4,0c-1.1,0.7-1.7,1.7-1.6,3
	c0,0.6-0.1,0.6-0.6,0.5c-2.3-0.3-4.2-1.3-5.7-2.9c-0.5-0.5-0.6-0.3-0.8,0.2c-0.4,1.4,0,2.6,1.1,3.8c-0.3-0.1-0.4-0.1-0.6-0.1
	c-0.8-0.2-0.9-0.2-0.7,0.6c0.3,1.1,1,1.8,2,2.3c-0.3,0.2-0.7,0-1,0.2c0.5,1.3,1.4,1.9,2.8,2.3C743.4,1790,741.9,1790.3,740.3,1790.2
	z"/>
<g>
	<path class="st1" d="M27.8,38.9c-1.2,0-2.3,0-3.5,0c-0.1-0.2-0.3-0.1-0.5-0.2c-9.3-1.4-15.6-9.7-14.3-19c0.9-6.8,6.2-12.5,12.9-14
		c0.7-0.2,1.5-0.3,2.2-0.4c1,0,2,0,3.1,0c0.1,0.1,0.2,0.1,0.3,0.1c7.1,0.8,13,6,14.5,13c0.1,0.7,0.1,1.3,0.4,2c0,1.1,0,2.2,0,3.4
		c-0.1,0.1-0.1,0.2-0.1,0.3c-0.8,6.9-5.7,12.4-12.4,14.2C29.5,38.6,28.6,38.7,27.8,38.9z M26.4,31.4c1.9,0,3.8,0.1,5.6-0.2
		c0.9-0.1,1.5-0.6,1.7-1.5c0.5-2.4,0.5-4.8,0-7.3c-0.2-0.9-0.8-1.4-1.6-1.5c-3.8-0.3-7.6-0.3-11.3,0c-0.8,0.1-1.5,0.6-1.7,1.5
		c-0.5,2.4-0.5,4.8,0,7.3c0.2,0.9,0.8,1.4,1.7,1.5C22.6,31.4,24.5,31.3,26.4,31.4z M31,17.3c0-0.7,0-1.3,0-2c0-0.4,0-0.6-0.5-0.6
		c-0.5,0-0.5,0.2-0.5,0.6c0,1,0,2,0,3.1c0,0.3-0.1,0.7-0.5,0.7c-0.3,0-0.2-0.4-0.2-0.6c0-1.1,0-2.1,0-3.2c0-0.3-0.1-0.5-0.4-0.5
		c-0.3,0-0.6-0.1-0.6,0.4c0,1.4,0,2.8,0,4.2c0,0.7,0.5,0.9,1.1,0.6c0.2-0.1,0.4-0.4,0.7,0c0.4,0.4,0.9,0,0.9-0.6
		C31,18.6,31,17.9,31,17.3z M21.2,13c0.8,2,1.6,4,1.3,6.3c-0.1,0.5,0.1,0.6,0.6,0.6c0.5,0,0.6-0.3,0.5-0.7c-0.1-1.5,0.1-3,0.7-4.5
		c0.2-0.6,0.4-1.2,0.5-1.8c-0.9-0.3-1.3,0-1.4,0.9c-0.1,0.4-0.2,0.9-0.4,1.5c-0.2-0.6-0.4-1.1-0.4-1.5C22.5,13.1,22.1,12.8,21.2,13z
		 M27.6,17.3c0-0.5,0.1-1.1-0.1-1.6c-0.2-0.7-0.7-1.1-1.4-1c-0.7,0-1.1,0.4-1.3,1.1c-0.2,1-0.2,2,0,3c0.1,0.9,0.7,1.3,1.4,1.3
		c0.8,0,1.3-0.5,1.3-1.4C27.6,18.1,27.6,17.7,27.6,17.3z"/>
	<path class="st1" d="M27.5,24.8c0.2-0.2,0.3-0.3,0.5-0.3c0.7-0.4,1.2-0.1,1.3,0.6c0.1,1.1,0,2.2,0,3.3c0,0.9-0.6,1.1-1.3,0.7
		c-0.2-0.1-0.3-0.4-0.4,0.1c-0.1,0.3-0.4,0.1-0.6,0.1c-0.2,0-0.2-0.3-0.2-0.4c0-1.9,0-3.9,0-5.8c0-0.3,0-0.5,0.4-0.5
		c0.4,0,0.4,0.1,0.4,0.5C27.5,23.6,27.5,24.1,27.5,24.8z M28.5,26.9C28.5,26.9,28.5,26.9,28.5,26.9c0-0.5,0-0.9,0-1.4
		c0-0.3-0.1-0.5-0.5-0.5c-0.3,0-0.5,0.2-0.5,0.5c0,0.8,0,1.7,0,2.5c0,0.3,0.1,0.5,0.5,0.5c0.4,0,0.5-0.3,0.5-0.6
		C28.5,27.6,28.5,27.3,28.5,26.9z"/>
	<path class="st1" d="M25.9,26.8c0,0.7,0,1.4,0,2.1c0,0.2,0.1,0.4-0.2,0.4c-0.2,0-0.6,0.1-0.6-0.1c-0.1-0.7-0.4-0.2-0.5-0.1
		c-0.7,0.4-1.2,0.2-1.2-0.6c0-1.2,0-2.4,0-3.7c0-0.3,0-0.5,0.4-0.5c0.4,0,0.4,0.2,0.4,0.5c0,1,0,2.1,0,3.1c0,0.3,0,0.6,0.4,0.6
		c0.3,0,0.5-0.3,0.5-0.6c0-1,0-2,0-3c0-0.3-0.1-0.6,0.4-0.6c0.5,0,0.5,0.2,0.5,0.6C25.9,25.5,25.9,26.2,25.9,26.8z"/>
	<path class="st1" d="M30.1,26.8c0-0.5,0.1-0.9,0.1-1.4c0.1-0.7,0.5-1.1,1.2-1.2c0.7-0.1,1.1,0.3,1.4,0.9c0.1,0.5,0.1,0.9,0.1,1.4
		c0,0.2-0.1,0.3-0.3,0.3c-0.2,0-0.4,0-0.5,0c-1,0-1.2,0.2-1,1.2c0.1,0.2,0.2,0.4,0.4,0.4c0.3,0,0.5-0.2,0.5-0.4
		c0-0.5,0.3-0.6,0.7-0.5c0.4,0.1,0.2,0.5,0.2,0.8c-0.2,0.7-0.7,1-1.4,0.9c-0.7-0.1-1.1-0.5-1.2-1.2C30.1,27.7,30.1,27.3,30.1,26.8z
		 M31.9,25.7c0-0.3,0-0.7-0.5-0.7c-0.5,0-0.4,0.4-0.5,0.8c0,0.4,0.2,0.4,0.5,0.4C31.9,26.3,32,26.1,31.9,25.7z"/>
	<path class="st1" d="M21,26.3c0-0.8,0-1.5,0-2.3c0-0.4-0.1-0.6-0.5-0.6c-0.4,0.1-0.6-0.1-0.6-0.5c0-0.5,0.3-0.4,0.6-0.4
		c0.7,0,1.4,0,2.1,0c0.3,0,0.4,0.1,0.4,0.4c0,0.3,0,0.6-0.4,0.5C22,23.4,22,23.7,22,24.2c0,1.5,0,3.1,0,4.6c0,0.3,0,0.6-0.5,0.6
		c-0.4,0-0.5-0.2-0.5-0.5C21,28,21,27.2,21,26.3z"/>
	<path class="st1" d="M26.5,17.3c0,0.4,0,0.9,0,1.3c0,0.2-0.1,0.4-0.4,0.4c-0.2,0-0.4-0.2-0.4-0.4c0-0.9,0-1.8,0-2.7
		c0-0.2,0.1-0.5,0.4-0.4c0.2,0,0.3,0.2,0.3,0.5C26.5,16.5,26.5,16.9,26.5,17.3C26.5,17.3,26.5,17.3,26.5,17.3z"/>
</g>
</svg>
